<?xml version="1.0" encoding="utf-8"?>
<!-- Generator: Adobe Illustrator 24.3.0, SVG Export Plug-In . SVG Version: 6.00 Build 0)  -->
<svg version="1.1" id="Layer_1" xmlns="http://www.w3.org/2000/svg" xmlns:xlink="http://www.w3.org/1999/xlink" x="0px" y="0px"
	 viewBox="0 0 218 59" style="enable-background:new 0 0 218 59;" xml:space="preserve">
<style type="text/css">
	.st0{clip-path:url(#SVGID_2_);fill:url(#SVGID_3_);}
	.st1{clip-path:url(#SVGID_5_);fill:url(#SVGID_6_);}
	.st2{clip-path:url(#SVGID_8_);fill:url(#SVGID_9_);}
	.st3{clip-path:url(#SVGID_11_);fill:url(#SVGID_12_);}
	.st4{clip-path:url(#SVGID_14_);fill:url(#SVGID_15_);}
	.st5{clip-path:url(#SVGID_17_);fill:url(#SVGID_18_);}
	.st6{clip-path:url(#SVGID_20_);fill:url(#SVGID_21_);}
	.st7{clip-path:url(#SVGID_23_);fill:url(#SVGID_24_);}
	.st8{clip-path:url(#SVGID_26_);fill:url(#SVGID_27_);}
	.st9{clip-path:url(#SVGID_29_);fill:url(#SVGID_30_);}
	.st10{clip-path:url(#SVGID_32_);fill:url(#SVGID_33_);}
	.st11{clip-path:url(#SVGID_35_);fill:url(#SVGID_36_);}
	.st12{clip-path:url(#SVGID_38_);fill:url(#SVGID_39_);}
	.st13{clip-path:url(#SVGID_41_);fill:url(#SVGID_42_);}
	.st14{clip-path:url(#SVGID_44_);fill:url(#SVGID_45_);}
	.st15{clip-path:url(#SVGID_47_);fill:url(#SVGID_48_);}
	.st16{clip-path:url(#SVGID_50_);fill:url(#SVGID_51_);}
	.st17{clip-path:url(#SVGID_53_);fill:url(#SVGID_54_);}
	.st18{clip-path:url(#SVGID_56_);fill:url(#SVGID_57_);}
	.st19{clip-path:url(#SVGID_59_);fill:url(#SVGID_60_);}
	.st20{clip-path:url(#SVGID_62_);fill:url(#SVGID_63_);}
	.st21{clip-path:url(#SVGID_65_);fill:url(#SVGID_66_);}
	.st22{clip-path:url(#SVGID_68_);fill:url(#SVGID_69_);}
	.st23{clip-path:url(#SVGID_71_);fill:url(#SVGID_72_);}
	.st24{clip-path:url(#SVGID_74_);fill:url(#SVGID_75_);}
	.st25{clip-path:url(#SVGID_77_);fill:url(#SVGID_78_);}
	.st26{clip-path:url(#SVGID_80_);fill:url(#SVGID_81_);}
	.st27{clip-path:url(#SVGID_83_);fill:url(#SVGID_84_);}
	.st28{clip-path:url(#SVGID_86_);fill:url(#SVGID_87_);}
	.st29{clip-path:url(#SVGID_89_);fill:url(#SVGID_90_);}
	.st30{clip-path:url(#SVGID_92_);fill:url(#SVGID_93_);}
	.st31{clip-path:url(#SVGID_95_);fill:url(#SVGID_96_);}
	.st32{clip-path:url(#SVGID_98_);fill:url(#SVGID_99_);}
	.st33{clip-path:url(#SVGID_101_);fill:url(#SVGID_102_);}
	.st34{clip-path:url(#SVGID_104_);fill:url(#SVGID_105_);}
	.st35{clip-path:url(#SVGID_107_);fill:url(#SVGID_108_);}
	.st36{clip-path:url(#SVGID_110_);fill:url(#SVGID_111_);}
	.st37{clip-path:url(#SVGID_113_);fill:url(#SVGID_114_);}
	.st38{clip-path:url(#SVGID_116_);fill:url(#SVGID_117_);}
	.st39{clip-path:url(#SVGID_119_);fill:url(#SVGID_120_);}
	.st40{clip-path:url(#SVGID_122_);fill:url(#SVGID_123_);}
	.st41{clip-path:url(#SVGID_125_);fill:url(#SVGID_126_);}
	.st42{fill:#9CBE4C;}
	.st43{fill:none;stroke:#221E1F;stroke-width:9.465126e-02;stroke-miterlimit:10;}
</style>
<g>
	<g>
		<g>
			<g>
				<defs>
					<path id="SVGID_1_" d="M35.8,23c-0.4,0.4-1.3,1.3-2.4,2.4c0.8,0.2,1.7,0.5,2.6,0.6c0.8-1.1,1.8-2.6,2.1-2.8
						c0.5-0.5,0.7-0.7,0.7-0.9s-0.3-0.4-0.6-0.4C38,21.9,36.7,22.1,35.8,23 M47.1,18.3c0-0.6,0.5-1,1.1-1c3,0,4.5,4.3,4.5,4.6
						c0,0.1-0.1,0.2-0.3,0.2C51.2,21.9,47.1,20.3,47.1,18.3 M44.6,17.6c0,1.5,0.9,3.6,4.6,4.7c0.1,0,0.2,0,0.2,0.1
						c0,0.2-1.7,2.6-3.4,2.8c-0.2,0-0.3-0.1-0.3-0.3c0-0.2,0.3-0.6,0.3-1.5c0-0.7-0.2-1.8-1.6-1.8c-1.4,0-3,0.6-7,4.6
						c1,0.2,2,0.4,3,0.5c1.3-1.5,3.2-3,3.6-3c0.3,0,0.5,0.1,0.5,0.3c0.1,0.5-0.7,0.9-1.2,1.3c-0.5,0.4-0.7,0.5-0.6,0.9
						c0,0.2,0.3,0.3,0.4,0.5c0,0.1,0,0.2-0.1,0.4c0.6,0.1,1.3,0.1,2,0.1c0.3-0.2,0.5-0.3,0.8-0.3c0.2,0,0.3,0.1,0.3,0.3
						c0,0,0,0,0,0.1c1.1,0,2.2,0,3.3-0.1c0.6-0.9,1.4-1.8,1.7-2c0.6-0.4,1-0.7,1-1c0-0.2-0.5-0.5-0.5-0.7c-0.1-0.3,0.2-0.4,0.5-0.3
						c0.6,0.2,1.1,0.2,1.1,0.6c0,0.4-0.4,1.8-1.1,3.1c0.5-0.1,1.2-0.2,1.7-0.2c0.5-1.2,0.8-2.4,0.8-2.9c0-0.1,0.1-0.3,0.3-0.3
						c0.3,0,0.9,0.1,1.3,0.1s0.7,0.3,0.7,0.9c0,0.4-0.3,1-0.6,1.8c2.1-0.5,4.2-1,6.2-1.7c0.1-1.3,0.7-1.8,0.7-2.3
						c0-0.3-0.1-0.5-0.5-0.5c-0.8,0-2.4,1.9-2.6,1.9c-0.2,0-0.5-0.8-0.7-1.2c-0.4-0.5-0.9-0.6-2.4-0.6c-0.7,0-1.2,0.1-1.8,0.1
						c-0.7,0-0.9,0-1.1-0.4c-0.1-0.4-2.3-6-7.3-6C45.7,15.6,44.6,16.1,44.6,17.6 M29.6,19.8c-1.5,1.1-2.7,2.1-3.7,3.1
						c0.9,0.4,1.9,0.7,3,1.1c0.5-0.7,1.2-1.5,2-2.1c2.9-2.7,6.3-4,8.4-4c0.9,0,1.9,0.2,2.1,0.2c0.1,0,0.2,0,0.2-0.1
						c0.1-0.1,1.6-2.9,1.6-2.9v-0.1c0,0-0.3-0.1-0.9-0.1C40,14.8,34.8,16,29.6,19.8"/>
				</defs>
				<clipPath id="SVGID_2_">
					<use xlink:href="#SVGID_1_"  style="overflow:visible;"/>
				</clipPath>
				
					<radialGradient id="SVGID_3_" cx="3930.2" cy="-2152.7271" r="0.8976" gradientTransform="matrix(30.6336 0 0 30.6336 -120343.9531 65972.4453)" gradientUnits="userSpaceOnUse">
					<stop  offset="0" style="stop-color:#9BBC51"/>
					<stop  offset="3.956800e-02" style="stop-color:#9BBC51"/>
					<stop  offset="0.2752" style="stop-color:#89B44B"/>
					<stop  offset="0.6074" style="stop-color:#74AC45"/>
					<stop  offset="0.8309" style="stop-color:#6DA943"/>
					<stop  offset="1" style="stop-color:#6DA943"/>
				</radialGradient>
				<rect x="26" y="14.8" class="st0" width="37.2" height="12.4"/>
			</g>
		</g>
		<g>
			<g>
				<defs>
					<path id="SVGID_4_" d="M53.6,30.6c-0.3,0.5-0.5,0.8-0.7,1.1c0,0-0.2,0.3,0.1,0.3h2.9c0.1,0,0.3-0.1,0.4-0.3
						c0-0.1,0.4-0.5,0.7-1.1C55.9,30.6,54.8,30.6,53.6,30.6 M45.4,29.7c0,0.9,0.3,2.3,2.6,2.3c1.3,0,2.4-0.6,3.3-1.6
						C49.4,30.3,47.4,30,45.4,29.7L45.4,29.7z M61.6,30.1c0,0.8,0.2,2.1,1.5,2.1c2.6,0,6-3.4,6.1-3.4c0.1,0,0.1,0,0.1,0.2
						c0,0.1-0.4,1.5-4.3,6.2s-5.8,6.6-5.8,7.7c0,1,0.8,1.4,1.3,1.4c0.4,0,2.1-0.1,6.2-6.7c2.9-4.7,4.3-7.7,5.8-9.9
						C69.8,28.7,66.3,29.5,61.6,30.1 M19.6,41.2c0-1.4,4.7-4.9,5.3-4.9c0.1,0,0.2,0.1,0.2,0.2c0,1.1-3.5,5.4-4.8,5.4
						C19.8,41.9,19.6,41.6,19.6,41.2 M22.2,29.6c0,2,1.8,2.3,2.8,2.3c2.6,0,3.6-1.2,4.2-1.2c0.5,0-0.3,1.2-1.1,1.6
						c-6.4,3.8-11.6,7.1-11.6,10.2c0,1.4,1.3,1.5,2.3,1.5s5.7-0.6,13-11.8c0.4-0.5,0.9-0.8,1.5-1.2c0.5-0.4,2.3-1.6,2.6-1.6
						c0.4,0,0.4,0.2,0.3,0.3c0,0.2-0.3,0.7-0.3,1.3c0,0.6,0.6,1.3,1.6,1.3c2.2,0,3.8-1.5,5.1-3c-0.5-0.1-0.9-0.2-1.5-0.4
						c-0.5,0.5-1,0.8-1.3,0.8c-0.5,0-0.6-0.3-0.7-0.5c0-0.2,0-0.5,0.1-0.7c-1-0.3-2.1-0.5-3.4-0.9c-0.4,0.2-0.6,0.4-0.9,0.3
						c-0.1,0-0.1-0.1,0.1-0.4c0,0,0.1-0.1,0.2-0.2c-0.9-0.3-1.8-0.5-2.7-0.9c-1.8,1.7-3.9,3.4-5.1,3.4c-0.5,0-0.9-0.3-0.9-1.1
						c0-0.5,0.6-2.1,1.9-3.9c-1-0.4-1.9-0.8-2.9-1.3C23.2,25.9,22.2,28,22.2,29.6"/>
				</defs>
				<clipPath id="SVGID_5_">
					<use xlink:href="#SVGID_4_"  style="overflow:visible;"/>
				</clipPath>
				
					<radialGradient id="SVGID_6_" cx="3882.8208" cy="-2171.8315" r="0.8976" gradientTransform="matrix(23.8218 0 0 23.8218 -92450.0703 51768.6523)" gradientUnits="userSpaceOnUse">
					<stop  offset="0" style="stop-color:#CE447D"/>
					<stop  offset="1" style="stop-color:#BD2B6D"/>
				</radialGradient>
				<rect x="16.6" y="23.4" class="st1" width="56" height="20.8"/>
			</g>
		</g>
		<g>
			<g>
				<defs>
					<path id="SVGID_7_" d="M41.2,28.8c0.5,0.1,1.1,0.3,1.5,0.4c0.7-0.8,1.4-1.5,2-1.9c-0.6,0-1.3-0.1-2-0.1
						C42.5,27.5,41.8,28.2,41.2,28.8 M51.9,26.9c-0.7,1.3-1.6,2.5-2.8,2.5c-0.4,0-0.6-0.2-0.6-0.5c0-0.5,0.3-1,0.6-1.6
						c-1.1,0.1-2.2,0.1-3.3,0.1c-0.1,0.4-0.4,1.5-0.5,2.5c2,0.4,4,0.6,5.8,0.7c1-1,1.9-2.5,2.5-3.7C53.1,26.8,52.5,26.9,51.9,26.9
						 M36.8,26.7c-0.2,0.2-0.5,0.5-0.9,0.7c1.2,0.4,2.4,0.7,3.4,0.9c0.2-0.5,0.5-1,1-1.5c-1-0.1-2-0.3-3-0.5
						C37.2,26.4,37,26.6,36.8,26.7 M32.5,26.2c0.9,0.4,1.9,0.6,2.7,0.9c0.2-0.3,0.5-0.6,0.8-1.2c-0.9-0.2-1.7-0.5-2.6-0.6
						C33.2,25.7,32.8,25.9,32.5,26.2 M25.5,23.4c1,0.5,2,0.9,2.9,1.3c0.2-0.3,0.4-0.5,0.5-0.7c-1-0.4-2-0.7-3-1.1
						C25.8,23.1,25.6,23.2,25.5,23.4 M66,26c0-0.5,1.8-2.3,2.5-2.3c0.1,0,0.2,0.1,0.2,0.2c0,0.7-1.8,2.4-2.4,2.4
						C66.1,26.3,66,26.2,66,26 M71.9,24.6c-1.8,2-4,4.6-6,4.6c-0.7,0-1-0.5-1-0.9c0-0.4,0.3-0.6,0.8-0.8c1.9-0.5,4.8-3,4.8-4.6
						c0-0.5-0.2-0.9-0.8-0.9c-0.8,0-3.1,0.4-5.9,3.7c-0.3,0.4-0.6,0.6-0.9,0.6s-0.5-0.5-0.5-1.5c0-0.1,0-0.2,0-0.3
						c-2,0.7-4.1,1.3-6.2,1.7c-0.7,1.4-1.8,3-2.6,4.3c1.2,0,2.3,0,3.4,0c0.7-1.1,1.7-2.7,1.8-2.8s0.2-0.2,0.4-0.2
						c0.5,0-0.1,1.2,1.5,1.2c0.5,0,0.9-0.3,1.1-0.3c0.1,0,0.2,0.1,0.2,0.2c0,0.2-0.3,0.6-0.3,1.2c0,0.1,0,0.2,0,0.3
						c4.7-0.6,8.2-1.5,11-2.6c0.6-0.9,1.5-2.2,2.2-2.8c1.2-1.2,1.5-1.8,1.5-2.1c0-0.4-0.2-0.7-0.6-0.7
						C75.2,21.9,73.7,22.6,71.9,24.6 M75.3,20.6c0,0.5,0.7,0.8,1,0.8c0.4,0,1.6-0.8,1.6-2c0-0.5-0.3-0.9-0.7-0.9
						C76.7,18.6,75.3,19.9,75.3,20.6"/>
				</defs>
				<clipPath id="SVGID_8_">
					<use xlink:href="#SVGID_7_"  style="overflow:visible;"/>
				</clipPath>
				
					<radialGradient id="SVGID_9_" cx="3861.7537" cy="-2180.2629" r="0.8976" gradientTransform="matrix(21.6824 0 0 21.6824 -83680.2266 47297.8477)" gradientUnits="userSpaceOnUse">
					<stop  offset="0" style="stop-color:#54B0DF"/>
					<stop  offset="6.474800e-02" style="stop-color:#54B0DF"/>
					<stop  offset="0.3827" style="stop-color:#45A2D6"/>
					<stop  offset="0.9935" style="stop-color:#1D7CBD"/>
					<stop  offset="1" style="stop-color:#1D7CBD"/>
				</radialGradient>
				<rect x="25.5" y="18.6" class="st2" width="52.6" height="12"/>
			</g>
		</g>
		<g>
			<g>
				<defs>
					<path id="SVGID_10_" d="M58.7,27.7L58,28.6c-0.4,0.5-0.8,1.3-1.3,1.9c0.1,0,0.3,0,0.4,0c0.4-0.5,0.7-1.1,1.2-1.7l0.6-0.9
						c0-0.1,0.2-0.2,0.2-0.2s0.1,0,0.1,0.2c0.1,0.4,0.3,0.9,1.5,0.9c0.4,0,0.6-0.1,0.9-0.2c0.1,0,0.2-0.1,0.2-0.1v0.1
						c0,0,0,0.2-0.1,0.3c-0.1,0.3-0.2,0.5-0.2,0.9c0,0.1,0,0.2,0,0.3c0.1,0,0.2,0,0.3,0v-0.3c0-0.4,0.1-0.6,0.2-0.8
						c0.1-0.2,0.1-0.3,0.1-0.4c0-0.4-0.2-0.4-0.3-0.4s-0.2,0-0.3,0.1c-0.2,0.1-0.5,0.2-0.8,0.2c-1,0-1.1-0.5-1.2-0.7
						c-0.1-0.2-0.1-0.5-0.4-0.5C59,27.4,58.8,27.5,58.7,27.7"/>
				</defs>
				<clipPath id="SVGID_11_">
					<use xlink:href="#SVGID_10_"  style="overflow:visible;"/>
				</clipPath>
				
					<linearGradient id="SVGID_12_" gradientUnits="userSpaceOnUse" x1="3000.481" y1="-1718.7997" x2="3001.3784" y2="-1718.7997" gradientTransform="matrix(3.6059 3.0749 -3.0749 3.6059 -16046.5869 -3000.5547)">
					<stop  offset="0" style="stop-color:#3A82C4"/>
					<stop  offset="0.43" style="stop-color:#4699D3"/>
					<stop  offset="0.7775" style="stop-color:#52A9DD"/>
					<stop  offset="1" style="stop-color:#5CB5E5"/>
				</linearGradient>
				<polygon class="st3" points="59,24.9 63.6,28.8 59.8,33.1 55.2,29.2 				"/>
			</g>
		</g>
		<g>
			<g>
				<defs>
					<path id="SVGID_13_" d="M51.8,26.9c-0.3,0.5-0.6,1-1,1.5c-0.5,0.5-1.1,0.8-1.6,0.8c-0.2,0-0.5-0.1-0.5-0.5
						c0-0.5,0.3-1.1,0.7-1.6c-0.1,0-0.3,0-0.4,0c-0.4,0.6-0.6,1.2-0.6,1.6s0.3,0.7,0.7,0.7c0.6,0,1.3-0.4,1.9-0.9
						c0.5-0.5,0.8-1.1,1.2-1.6C52,26.9,51.9,26.9,51.8,26.9"/>
				</defs>
				<clipPath id="SVGID_14_">
					<use xlink:href="#SVGID_13_"  style="overflow:visible;"/>
				</clipPath>
				
					<linearGradient id="SVGID_15_" gradientUnits="userSpaceOnUse" x1="2836.4033" y1="-1893.6617" x2="2837.3008" y2="-1893.6617" gradientTransform="matrix(3.698 2.1874 -2.1874 3.698 -14582.8066 825.5739)">
					<stop  offset="0" style="stop-color:#1D7CBD"/>
					<stop  offset="0.2444" style="stop-color:#3C91CB"/>
					<stop  offset="0.5635" style="stop-color:#5EA9DB"/>
					<stop  offset="0.8269" style="stop-color:#73B8E4"/>
					<stop  offset="1" style="stop-color:#7BBDE8"/>
				</linearGradient>
				<polygon class="st4" points="49.3,25.2 53.2,27.6 51.1,31.2 47.2,28.9 				"/>
			</g>
		</g>
		<g>
			<g>
				<defs>
					<path id="SVGID_16_" d="M70.3,22.9c0,1.6-2.9,4-4.7,4.6c-0.5,0.2-0.9,0.5-0.9,0.9H65c0-0.3,0.3-0.5,0.6-0.6
						c1.8-0.5,4.9-3,4.9-4.7L70.3,22.9L70.3,22.9z"/>
				</defs>
				<clipPath id="SVGID_17_">
					<use xlink:href="#SVGID_16_"  style="overflow:visible;"/>
				</clipPath>
				
					<linearGradient id="SVGID_18_" gradientUnits="userSpaceOnUse" x1="3317.8335" y1="-2399.0698" x2="3318.731" y2="-2399.0698" gradientTransform="matrix(6.5288 0 0 6.5288 -21596.6797 15688.6309)">
					<stop  offset="0" style="stop-color:#0B72AE"/>
					<stop  offset="1" style="stop-color:#046BA8"/>
				</linearGradient>
				<rect x="64.8" y="22.9" class="st5" width="5.8" height="5.5"/>
			</g>
		</g>
		<g>
			<g>
				<defs>
					<path id="SVGID_19_" d="M63.8,25.6c-0.3,0.4-0.6,0.5-0.8,0.5s-0.5-0.4-0.5-1.4c0-0.1,0-0.3,0-0.4c-0.1,0-0.2,0.1-0.3,0.1
						c0,0.1,0,0.2,0,0.3c0,1.1,0.4,1.6,0.7,1.6c0.4,0,0.8-0.5,1-0.6c0.4-0.5,0.7-0.8,1-1.2l-0.1-0.3C64.5,24.8,64.1,25.1,63.8,25.6"
						/>
				</defs>
				<clipPath id="SVGID_20_">
					<use xlink:href="#SVGID_19_"  style="overflow:visible;"/>
				</clipPath>
				
					<linearGradient id="SVGID_21_" gradientUnits="userSpaceOnUse" x1="6319.2876" y1="-909.4754" x2="6320.1851" y2="-909.4754" gradientTransform="matrix(-2.1652 0.2265 -0.2265 -2.1652 13540.043 -3375.0552)">
					<stop  offset="0" style="stop-color:#5BB4E5"/>
					<stop  offset="0.6" style="stop-color:#3695D1"/>
					<stop  offset="1" style="stop-color:#1B7BBD"/>
				</linearGradient>
				<polygon class="st6" points="65.2,26.5 62.2,26.8 62,24.4 65,24.1 				"/>
			</g>
		</g>
		<g>
			<g>
				<defs>
					<path id="SVGID_22_" d="M64.9,24.4l0.1,0.3c2.4-2.4,4.2-2.6,4.7-2.6c0.6,0,0.6,0.6,0.6,0.7h0.3c0-0.5-0.3-1.1-0.9-1.1
						C69,21.8,67.2,22.1,64.9,24.4"/>
				</defs>
				<clipPath id="SVGID_23_">
					<use xlink:href="#SVGID_22_"  style="overflow:visible;"/>
				</clipPath>
				
					<linearGradient id="SVGID_24_" gradientUnits="userSpaceOnUse" x1="2057.3596" y1="-2691.9507" x2="2058.2571" y2="-2691.9507" gradientTransform="matrix(2.5637 0.2404 -0.2404 2.5637 -5854.2183 6429.9917)">
					<stop  offset="0" style="stop-color:#5BB4E5"/>
					<stop  offset="0.6" style="stop-color:#348BC3"/>
					<stop  offset="0.7932" style="stop-color:#1F7DB7"/>
					<stop  offset="1" style="stop-color:#046BA8"/>
				</linearGradient>
				<polygon class="st7" points="65,21.3 70.9,21.8 70.6,25.2 64.6,24.7 				"/>
			</g>
		</g>
		<g>
			<g>
				<defs>
					<path id="SVGID_25_" d="M66.1,26c0-0.5,1.8-2.2,2.3-2.2h0.1C68.5,24.5,66.8,26,66.1,26C66.1,26.1,66.1,26.1,66.1,26 M65.9,26
						c0,0.3,0.2,0.4,0.4,0.4c0.6,0,2.6-1.7,2.6-2.5c0-0.2-0.2-0.3-0.4-0.3C67.7,23.7,65.9,25.4,65.9,26"/>
				</defs>
				<clipPath id="SVGID_26_">
					<use xlink:href="#SVGID_25_"  style="overflow:visible;"/>
				</clipPath>
				
					<linearGradient id="SVGID_27_" gradientUnits="userSpaceOnUse" x1="5809.1499" y1="-3105.6616" x2="5810.0474" y2="-3105.6616" gradientTransform="matrix(-1.6656 -2.1845 2.1845 -1.6656 16528.1133 7543.353)">
					<stop  offset="0" style="stop-color:#43A4D0"/>
					<stop  offset="0.2511" style="stop-color:#3D9CCB"/>
					<stop  offset="0.6299" style="stop-color:#2B88BD"/>
					<stop  offset="1" style="stop-color:#146DAB"/>
				</linearGradient>
				<polygon class="st8" points="66.9,27.9 64.5,24.7 67.7,22.2 70.2,25.4 				"/>
			</g>
		</g>
		<g>
			<g>
				<defs>
					<path id="SVGID_28_" d="M75.4,20.6c0-0.5,1.3-1.9,1.8-1.9c0.4,0,0.5,0.4,0.5,0.7c0,1.1-1.2,1.8-1.5,1.8
						C76.1,21.3,75.4,21,75.4,20.6 M75.2,20.6c0,0.6,0.8,1,1.2,1c0.5,0,1.8-0.9,1.8-2.1c0-0.5-0.4-1-0.9-1
						C76.6,18.5,75.2,19.8,75.2,20.6"/>
				</defs>
				<clipPath id="SVGID_29_">
					<use xlink:href="#SVGID_28_"  style="overflow:visible;"/>
				</clipPath>
				
					<linearGradient id="SVGID_30_" gradientUnits="userSpaceOnUse" x1="665.2047" y1="-2046.7264" x2="666.1021" y2="-2046.7264" gradientTransform="matrix(1.4742 0.6124 -0.6124 1.4742 -2158.3987 2629.5225)">
					<stop  offset="0" style="stop-color:#5BB4E5"/>
					<stop  offset="0.6" style="stop-color:#3588BD"/>
					<stop  offset="0.7715" style="stop-color:#227AB1"/>
					<stop  offset="1" style="stop-color:#03649D"/>
				</linearGradient>
				<polygon class="st9" points="75.6,17.4 79.3,18.9 77.7,22.7 74.1,21.1 				"/>
			</g>
		</g>
		<g>
			<g>
				<defs>
					<path id="SVGID_31_" d="M71.8,24.5l-0.5,0.6c-1.7,1.9-3.6,4-5.4,4c-0.6,0-0.8-0.5-0.8-0.8h-0.3c0,0.6,0.4,1,0.9,1.1
						c0.6,0,1-0.1,1.7-0.5c1.4-0.7,2.7-2.3,4-3.6l0.5-0.6c1.8-2,3.3-2.6,3.6-2.6v-0.3C75.2,21.8,73.6,22.5,71.8,24.5"/>
				</defs>
				<clipPath id="SVGID_32_">
					<use xlink:href="#SVGID_31_"  style="overflow:visible;"/>
				</clipPath>
				
					<linearGradient id="SVGID_33_" gradientUnits="userSpaceOnUse" x1="3410.3599" y1="-3093.6208" x2="3411.2573" y2="-3093.6208" gradientTransform="matrix(3.732 -2.5034 2.5034 3.732 -4912.106 20108.0781)">
					<stop  offset="0" style="stop-color:#0B72AE"/>
					<stop  offset="0.4" style="stop-color:#2E8DC5"/>
					<stop  offset="1" style="stop-color:#5BB4E5"/>
				</linearGradient>
				<polygon class="st10" points="61.2,24.1 72.2,16.7 79.2,27 68.1,34.4 				"/>
			</g>
		</g>
		<g>
			<g>
				<defs>
					<path id="SVGID_34_" d="M75.6,22c0.4,0,0.5,0.3,0.5,0.5c0,0.1-0.1,0.6-1.5,2c-0.7,0.6-1.6,2-2.3,3c0.2-0.1,0.4-0.2,0.5-0.2
						c0.5-0.8,1.5-2,2-2.6c1-1,1.5-1.7,1.5-2.2s-0.3-0.8-0.8-0.8C75.6,21.8,75.6,22,75.6,22z"/>
				</defs>
				<clipPath id="SVGID_35_">
					<use xlink:href="#SVGID_34_"  style="overflow:visible;"/>
				</clipPath>
				
					<linearGradient id="SVGID_36_" gradientUnits="userSpaceOnUse" x1="2593.8777" y1="-1076.4628" x2="2594.7751" y2="-1076.4628" gradientTransform="matrix(1.7004 2.5032 -2.5032 1.7004 -7032.8599 -4640.8755)">
					<stop  offset="0" style="stop-color:#5BB4E5"/>
					<stop  offset="0.43" style="stop-color:#3588BD"/>
					<stop  offset="0.6743" style="stop-color:#227AB1"/>
					<stop  offset="1" style="stop-color:#03649D"/>
				</linearGradient>
				<polygon class="st11" points="75.2,19.8 79.2,25.8 73.6,29.5 69.6,23.6 				"/>
			</g>
		</g>
		<g>
			<g>
				<defs>
					<path id="SVGID_37_" d="M39,29c0,0.5,0.4,0.6,0.8,0.6c0.4,0,0.9-0.4,1.5-0.9c-0.1,0-0.2-0.1-0.4-0.1c-0.5,0.4-0.9,0.6-1.2,0.6
						c-0.4,0-0.5-0.1-0.5-0.4c0-0.2,0-0.4,0.2-0.6c-0.1,0-0.2-0.1-0.3-0.1C39.1,28.6,39,28.9,39,29"/>
				</defs>
				<clipPath id="SVGID_38_">
					<use xlink:href="#SVGID_37_"  style="overflow:visible;"/>
				</clipPath>
				
					<linearGradient id="SVGID_39_" gradientUnits="userSpaceOnUse" x1="2208.8108" y1="-2845.8374" x2="2209.7083" y2="-2845.8374" gradientTransform="matrix(2.6905 0 0 2.6905 -5904.2793 7685.7705)">
					<stop  offset="0" style="stop-color:#AE1F5F"/>
					<stop  offset="0.43" style="stop-color:#C14772"/>
					<stop  offset="0.9447" style="stop-color:#D9648C"/>
					<stop  offset="1" style="stop-color:#DC678F"/>
				</linearGradient>
				<rect x="39" y="28.3" class="st12" width="2.4" height="1.5"/>
			</g>
		</g>
		<g>
			<g>
				<defs>
					<path id="SVGID_40_" d="M35,27.3c-0.1,0.2-0.2,0.3-0.1,0.5c0,0.1,0.1,0.1,0.2,0.1c0.4,0,0.7-0.2,1.1-0.4
						c-0.1,0-0.3-0.1-0.4-0.1c-0.2,0.1-0.5,0.2-0.6,0.3c0,0,0-0.1,0.1-0.1c0,0,0.1-0.1,0.2-0.3c-0.1,0-0.2-0.1-0.3-0.1
						C35.1,27.2,35,27.2,35,27.3"/>
				</defs>
				<clipPath id="SVGID_41_">
					<use xlink:href="#SVGID_40_"  style="overflow:visible;"/>
				</clipPath>
				
					<linearGradient id="SVGID_42_" gradientUnits="userSpaceOnUse" x1="2093.7188" y1="-2892.1741" x2="2094.6162" y2="-2892.1741" gradientTransform="matrix(2.5356 0 0 2.5356 -5275.0562 7360.8926)">
					<stop  offset="0" style="stop-color:#A01E57"/>
					<stop  offset="0.5832" style="stop-color:#C14273"/>
					<stop  offset="1" style="stop-color:#D45783"/>
				</linearGradient>
				<rect x="34.8" y="27.1" class="st13" width="1.3" height="0.7"/>
			</g>
		</g>
		<g>
			<g>
				<defs>
					<path id="SVGID_43_" d="M19.8,41.2c0-1.3,4.6-4.7,5.1-4.8l0,0l0,0l0,0c0,0.6-1.4,2.6-2.6,3.9c-0.8,0.8-1.5,1.4-2,1.4
						C19.9,41.7,19.8,41.5,19.8,41.2 M22,38.2c-0.9,0.8-2.5,2.2-2.5,3.1c0,0.5,0.3,0.8,0.8,0.8c0.6,0,1.5-0.8,2.2-1.5
						c1.3-1.3,2.7-3.4,2.7-4.1c0-0.1,0-0.2-0.1-0.3s-0.2-0.1-0.3-0.1C24.5,36.1,23.1,37.2,22,38.2"/>
				</defs>
				<clipPath id="SVGID_44_">
					<use xlink:href="#SVGID_43_"  style="overflow:visible;"/>
				</clipPath>
				
					<linearGradient id="SVGID_45_" gradientUnits="userSpaceOnUse" x1="3175.6667" y1="-1464.5137" x2="3176.5642" y2="-1464.5137" gradientTransform="matrix(2.757 4.084 -4.084 2.757 -14715.6426 -8895.0498)">
					<stop  offset="0" style="stop-color:#AE1F5F"/>
					<stop  offset="0.43" style="stop-color:#C14772"/>
					<stop  offset="0.9447" style="stop-color:#D9648C"/>
					<stop  offset="1" style="stop-color:#DC678F"/>
				</linearGradient>
				<polygon class="st14" points="23.4,33.5 27.9,40.2 21.2,44.6 16.8,38 				"/>
			</g>
		</g>
		<g>
			<g>
				<defs>
					<path id="SVGID_46_" d="M26.3,28.6c0,0.9,0.5,1.2,1,1.2c1.2,0,3.2-1.5,5.3-3.5c-0.1,0-0.2-0.1-0.3-0.1c-1.8,1.6-3.8,3.3-5,3.3
						c-0.5,0-0.7-0.4-0.7-0.9c0-0.5,0.6-2.1,1.9-3.8c-0.1-0.1-0.2-0.1-0.3-0.1C27,26.4,26.3,28,26.3,28.6"/>
				</defs>
				<clipPath id="SVGID_47_">
					<use xlink:href="#SVGID_46_"  style="overflow:visible;"/>
				</clipPath>
				
					<linearGradient id="SVGID_48_" gradientUnits="userSpaceOnUse" x1="3239.2366" y1="-1889.1945" x2="3240.1343" y2="-1889.1945" gradientTransform="matrix(5.1068 3.5593 -3.5593 5.1068 -23239.5449 -1856.3562)">
					<stop  offset="0" style="stop-color:#A01E57"/>
					<stop  offset="0.43" style="stop-color:#BD426F"/>
					<stop  offset="0.9302" style="stop-color:#D8628B"/>
					<stop  offset="1" style="stop-color:#DC678F"/>
				</linearGradient>
				<polygon class="st15" points="28.4,21.7 35.1,26.3 30.6,32.8 24,28.1 				"/>
			</g>
		</g>
		<g>
			<g>
				<defs>
					<path id="SVGID_49_" d="M16.4,42.5L16.4,42.5h0.3c0-2.9,4.7-6,11.5-10.1L28,32.1C21.2,36.3,16.4,39.4,16.4,42.5"/>
				</defs>
				<clipPath id="SVGID_50_">
					<use xlink:href="#SVGID_49_"  style="overflow:visible;"/>
				</clipPath>
				
					<linearGradient id="SVGID_51_" gradientUnits="userSpaceOnUse" x1="3412.3894" y1="-2996.8054" x2="3413.2869" y2="-2996.8054" gradientTransform="matrix(4.1118 -2.4868 2.4868 4.1118 -6554.1714 20844.2578)">
					<stop  offset="0" style="stop-color:#DC678F"/>
					<stop  offset="0.43" style="stop-color:#C24873"/>
					<stop  offset="1" style="stop-color:#AE1F5F"/>
				</linearGradient>
				<polygon class="st16" points="11.9,35 25.1,26.9 32.8,39.7 19.6,47.7 				"/>
			</g>
		</g>
		<g>
			<g>
				<defs>
					<path id="SVGID_52_" d="M22.1,29.6c0,1.5,1.1,2.4,3,2.4v-0.3c-1,0-2.7-0.3-2.7-2.1c0-1.5,0.9-3.6,3.3-6.1
						c-0.1-0.1-0.2-0.1-0.3-0.1C23,25.9,22.1,28.1,22.1,29.6"/>
				</defs>
				<clipPath id="SVGID_53_">
					<use xlink:href="#SVGID_52_"  style="overflow:visible;"/>
				</clipPath>
				
					<linearGradient id="SVGID_54_" gradientUnits="userSpaceOnUse" x1="1362.0985" y1="-506.2982" x2="1362.996" y2="-506.2982" gradientTransform="matrix(1.0681 1.3648 -1.3648 1.0681 -2121.6262 -1290.0837)">
					<stop  offset="0" style="stop-color:#DC678F"/>
					<stop  offset="0.43" style="stop-color:#C24873"/>
					<stop  offset="1" style="stop-color:#AE1F5F"/>
				</linearGradient>
				<polygon class="st17" points="24.2,21.6 29.8,28.7 23.4,33.7 17.9,26.6 				"/>
			</g>
		</g>
		<g>
			<g>
				<defs>
					<path id="SVGID_55_" d="M37.5,32c-0.9,0-1.5-0.6-1.5-1.2h-0.3c0,0.7,0.7,1.5,1.7,1.5c2.3,0,4-1.6,5.3-3.1
						c-0.1,0-0.2-0.1-0.4-0.1C41.2,30.5,39.6,32,37.5,32"/>
				</defs>
				<clipPath id="SVGID_56_">
					<use xlink:href="#SVGID_55_"  style="overflow:visible;"/>
				</clipPath>
				
					<linearGradient id="SVGID_57_" gradientUnits="userSpaceOnUse" x1="6279.2378" y1="-2124.1602" x2="6280.1353" y2="-2124.1602" gradientTransform="matrix(-2.3086 -0.9767 0.9767 -2.3086 16608.7949 1259.1892)">
					<stop  offset="0" style="stop-color:#A01E57"/>
					<stop  offset="0.43" style="stop-color:#BE4D76"/>
					<stop  offset="0.911" style="stop-color:#D47293"/>
					<stop  offset="1" style="stop-color:#D97A99"/>
				</linearGradient>
				<polygon class="st18" points="41.7,34.8 34.6,31.8 36.8,26.6 43.9,29.6 				"/>
			</g>
		</g>
		<g>
			<g>
				<defs>
					<path id="SVGID_58_" d="M33.3,30.7L33.3,30.7L32.8,31c-0.5,0.3-0.8,0.5-1.2,1c-7.3,11.2-12,11.8-12.8,11.8
						c-1.3,0-2.1-0.2-2.1-1.3h-0.3c0,1.6,1.6,1.6,2.4,1.6c0.5,0,2-0.2,4.2-1.7c2.8-2,5.8-5.4,8.9-10.2c0.3-0.4,0.6-0.6,1.1-0.9
						l0.4-0.3l0.1-0.1c1.7-1.3,2.3-1.5,2.4-1.5c0.1,0,0.2,0,0.2,0l0.2-0.2c-0.1-0.1-0.2-0.1-0.4-0.1C35.6,29,34.9,29.5,33.3,30.7"/>
				</defs>
				<clipPath id="SVGID_59_">
					<use xlink:href="#SVGID_58_"  style="overflow:visible;"/>
				</clipPath>
				
					<linearGradient id="SVGID_60_" gradientUnits="userSpaceOnUse" x1="3096.5378" y1="-1968.2487" x2="3097.4353" y2="-1968.2487" gradientTransform="matrix(4.7705 2.6075 -2.6075 4.7705 -19888.6797 1346.0465)">
					<stop  offset="0" style="stop-color:#DC678F"/>
					<stop  offset="0.43" style="stop-color:#BF4570"/>
					<stop  offset="1" style="stop-color:#A01E57"/>
				</linearGradient>
				<polygon class="st19" points="21,20.8 42.6,32.5 31.6,52.5 10,40.7 				"/>
			</g>
		</g>
		<g>
			<g>
				<defs>
					<path id="SVGID_61_" d="M45.3,29.6L45.3,29.6c0,1.7,0.9,2.6,2.6,2.6c1.3,0,2.5-0.7,3.5-1.7c-0.1,0-0.3,0-0.4,0
						c-0.8,0.8-1.9,1.5-3.1,1.5c-1.6,0-2.4-0.7-2.4-2.2v-0.1C45.5,29.7,45.4,29.6,45.3,29.6z"/>
				</defs>
				<clipPath id="SVGID_62_">
					<use xlink:href="#SVGID_61_"  style="overflow:visible;"/>
				</clipPath>
				
					<linearGradient id="SVGID_63_" gradientUnits="userSpaceOnUse" x1="2558.6113" y1="-2572.4575" x2="2559.5088" y2="-2572.4575" gradientTransform="matrix(3.3851 0.2587 -0.2587 3.3851 -9281.3926 8076.7471)">
					<stop  offset="0" style="stop-color:#D97A99"/>
					<stop  offset="8.900043e-02" style="stop-color:#D47293"/>
					<stop  offset="0.57" style="stop-color:#BE4D76"/>
					<stop  offset="1" style="stop-color:#A01E57"/>
				</linearGradient>
				<polygon class="st20" points="45.3,29.1 51.6,29.6 51.3,32.6 45,32.1 				"/>
			</g>
		</g>
		<g>
			<g>
				<defs>
					<path id="SVGID_64_" d="M53.2,30.8l-0.5,0.7c0,0-0.1,0.1-0.1,0.3v0.1c0,0.1,0.1,0.2,0.3,0.2h2.9c0.2,0,0.3-0.1,0.5-0.3
						c0-0.1,0.4-0.5,0.7-1.2c-0.1,0-0.3,0-0.4,0c-0.4,0.5-0.6,0.9-0.6,1c-0.1,0.1-0.2,0.2-0.2,0.2h-2.9l0,0l0,0l0.5-0.7
						c0.1-0.1,0.2-0.3,0.3-0.5c-0.1,0-0.2,0-0.4,0C53.4,30.6,53.3,30.7,53.2,30.8"/>
				</defs>
				<clipPath id="SVGID_65_">
					<use xlink:href="#SVGID_64_"  style="overflow:visible;"/>
				</clipPath>
				
					<linearGradient id="SVGID_66_" gradientUnits="userSpaceOnUse" x1="5786.1572" y1="-3005.1787" x2="5787.0547" y2="-3005.1787" gradientTransform="matrix(-1.8116 -2.195 2.195 -1.8116 17134.1934 7288.5879)">
					<stop  offset="0" style="stop-color:#A01E57"/>
					<stop  offset="0.43" style="stop-color:#BD426F"/>
					<stop  offset="0.9302" style="stop-color:#D8628B"/>
					<stop  offset="1" style="stop-color:#DC678F"/>
				</linearGradient>
				<polygon class="st21" points="54.5,34.1 51.9,31.1 55.3,28.3 57.9,31.4 				"/>
			</g>
		</g>
		<g>
			<g>
				<defs>
					<path id="SVGID_67_" d="M61.5,30.1L61.5,30.1c0,0.6,0.1,1.3,0.5,1.7c0.3,0.3,0.6,0.5,1.2,0.5v-0.3c-0.4,0-0.7-0.1-0.9-0.4
						c-0.4-0.5-0.5-1.1-0.5-1.5C61.7,30.1,61.6,30.1,61.5,30.1"/>
				</defs>
				<clipPath id="SVGID_68_">
					<use xlink:href="#SVGID_67_"  style="overflow:visible;"/>
				</clipPath>
				
					<linearGradient id="SVGID_69_" gradientUnits="userSpaceOnUse" x1="15299.6602" y1="-7331.7505" x2="15300.5576" y2="-7331.7505" gradientTransform="matrix(-0.3018 -0.3238 0.3238 -0.3018 7054.1958 2773.031)">
					<stop  offset="0" style="stop-color:#BF4174"/>
					<stop  offset="0.7" style="stop-color:#C7497A"/>
					<stop  offset="1" style="stop-color:#D45584"/>
				</linearGradient>
				<polygon class="st22" points="62.2,33.2 60.3,31.1 62.4,29.3 64.2,31.3 				"/>
			</g>
		</g>
		<g>
			<g>
				<defs>
					<path id="SVGID_70_" d="M36.2,29.3L36.2,29.3c-0.1,0.1-0.1,0.1-0.1,0.2v0.1c0,0,0,0.2-0.1,0.3c-0.1,0.3-0.2,0.5-0.2,1h0.3
						c0-0.4,0.1-0.6,0.2-0.9c0.1-0.2,0.1-0.3,0.1-0.4v-0.1C36.4,29.4,36.4,29.2,36.2,29.3L36.2,29.3z"/>
				</defs>
				<clipPath id="SVGID_71_">
					<use xlink:href="#SVGID_70_"  style="overflow:visible;"/>
				</clipPath>
				
					<linearGradient id="SVGID_72_" gradientUnits="userSpaceOnUse" x1="5281.0068" y1="-5945.0254" x2="5281.9043" y2="-5945.0254" gradientTransform="matrix(0.115 -1.351 1.351 0.115 7460.3857 7849.1353)">
					<stop  offset="0" style="stop-color:#D97A99"/>
					<stop  offset="0.1062" style="stop-color:#D26E8F"/>
					<stop  offset="0.43" style="stop-color:#C04E75"/>
					<stop  offset="0.4326" style="stop-color:#C04E75"/>
					<stop  offset="1" style="stop-color:#A01E57"/>
				</linearGradient>
				<polygon class="st23" points="35.6,30.8 35.8,29.1 36.5,29.2 36.3,30.9 				"/>
			</g>
		</g>
		<g>
			<g>
				<defs>
					<path id="SVGID_73_" d="M65.1,35.1c-1,1.3-1.9,2.3-2.6,3.2c-2.2,2.6-3.2,3.7-3.2,4.5c0,0.4,0.1,0.7,0.3,0.9l0.2-0.2
						c-0.1-0.2-0.2-0.5-0.2-0.7c0-0.7,1-1.9,3.1-4.4c0.7-0.9,1.6-1.9,2.6-3.2c1.4-1.7,2.4-2.9,3-3.9L68,31.3
						C67.3,32.1,66.4,33.4,65.1,35.1"/>
				</defs>
				<clipPath id="SVGID_74_">
					<use xlink:href="#SVGID_73_"  style="overflow:visible;"/>
				</clipPath>
				
					<linearGradient id="SVGID_75_" gradientUnits="userSpaceOnUse" x1="3899.2742" y1="-2721.624" x2="3900.1716" y2="-2721.624" gradientTransform="matrix(5.1943 -6.3852 6.3852 5.1943 -2812.4934 39072.4766)">
					<stop  offset="0" style="stop-color:#D97A99"/>
					<stop  offset="0.1062" style="stop-color:#D26E8F"/>
					<stop  offset="0.43" style="stop-color:#C04E75"/>
					<stop  offset="0.4326" style="stop-color:#C04E75"/>
					<stop  offset="1" style="stop-color:#A01E57"/>
				</linearGradient>
				<polygon class="st24" points="53.1,38.8 62.8,26.9 74.3,36.2 64.6,48.2 				"/>
			</g>
		</g>
		<g>
			<g>
				<defs>
					<path id="SVGID_76_" d="M72.3,27.6c-0.7,1.1-1.2,2-2.1,3.6c-1,1.8-2.2,3.8-3.6,6.2c-3.6,5.7-5.3,6.6-6,6.6
						c-0.2,0-0.6-0.1-0.9-0.5l-0.2,0.2c0.4,0.4,0.8,0.5,1.1,0.5c1.4,0,3.6-2.4,6.3-6.7c1.5-2.4,2.6-4.5,3.6-6.2
						c1-1.7,1.5-2.7,2.3-3.9C72.7,27.5,72.5,27.5,72.3,27.6"/>
				</defs>
				<clipPath id="SVGID_77_">
					<use xlink:href="#SVGID_76_"  style="overflow:visible;"/>
				</clipPath>
				
					<linearGradient id="SVGID_78_" gradientUnits="userSpaceOnUse" x1="3156.5896" y1="-2132.7617" x2="3157.4873" y2="-2132.7617" gradientTransform="matrix(5.5023 1.9027 -1.9027 5.5023 -21367.4121 5762.4736)">
					<stop  offset="0" style="stop-color:#D97A99"/>
					<stop  offset="6.346724e-02" style="stop-color:#D26E8F"/>
					<stop  offset="0.257" style="stop-color:#C04E75"/>
					<stop  offset="0.2604" style="stop-color:#C04E75"/>
					<stop  offset="1" style="stop-color:#A01E57"/>
				</linearGradient>
				<polygon class="st25" points="61,23.3 78.1,29.2 71.4,48.4 54.3,42.5 				"/>
			</g>
		</g>
		<g>
			<g>
				<defs>
					<path id="SVGID_79_" d="M69.2,28.7c-0.1,0-0.1,0-0.5,0.4c-1,0.8-3.6,3.1-5.6,3.1v0.3c2.3,0,4.9-2.3,5.8-3.1
						c0.1-0.1,0.2-0.2,0.3-0.2c-0.1,0.2-0.3,0.8-1.4,2.3l0.3,0.1c1.3-1.9,1.4-2.4,1.4-2.4c0-0.1,0-0.2-0.1-0.3
						C69.4,28.7,69.4,28.7,69.2,28.7C69.3,28.7,69.3,28.7,69.2,28.7"/>
				</defs>
				<clipPath id="SVGID_80_">
					<use xlink:href="#SVGID_79_"  style="overflow:visible;"/>
				</clipPath>
				
					<linearGradient id="SVGID_81_" gradientUnits="userSpaceOnUse" x1="3385.845" y1="-2371.7896" x2="3386.7424" y2="-2371.7896" gradientTransform="matrix(7.1538 0 0 7.1538 -24158.502 16997.8555)">
					<stop  offset="0" style="stop-color:#BF4174"/>
					<stop  offset="0.43" style="stop-color:#B03264"/>
					<stop  offset="1" style="stop-color:#A01E57"/>
				</linearGradient>
				<rect x="63.1" y="28.7" class="st26" width="6.4" height="3.7"/>
			</g>
		</g>
		<g>
			<g>
				<defs>
					<path id="SVGID_82_" d="M54.4,23.8c0,0.6-0.3,1.7-0.9,3c0.1,0,0.2,0,0.4-0.1c0.5-1.2,0.8-2.3,0.8-2.9c0-0.1,0-0.2,0.1-0.2
						c0.2,0,0.7,0.1,1.1,0.1H56c0.3,0,0.6,0.2,0.6,0.8c0,0.4-0.3,1.1-0.6,1.8c0.1,0,0.3-0.1,0.4-0.1c0.4-0.7,0.6-1.4,0.6-1.7
						c0-0.6-0.5-1-0.9-1.1h-0.2c-0.4,0-0.9-0.1-1.1-0.1C54.5,23.3,54.4,23.5,54.4,23.8"/>
				</defs>
				<clipPath id="SVGID_83_">
					<use xlink:href="#SVGID_82_"  style="overflow:visible;"/>
				</clipPath>
				
					<linearGradient id="SVGID_84_" gradientUnits="userSpaceOnUse" x1="1742.1614" y1="-1226.2156" x2="1743.0588" y2="-1226.2156" gradientTransform="matrix(1.624 1.4616 -1.4616 1.624 -4566.5117 -530.1308)">
					<stop  offset="0" style="stop-color:#66AF45"/>
					<stop  offset="0.3861" style="stop-color:#7CB548"/>
					<stop  offset="1" style="stop-color:#9CBE4C"/>
				</linearGradient>
				<polygon class="st27" points="55,21.6 58.7,24.9 55.4,28.5 51.8,25.2 				"/>
			</g>
		</g>
		<g>
			<g>
				<defs>
					<path id="SVGID_85_" d="M47.2,18.3c0-0.5,0.4-0.9,0.9-0.9c2.8,0,4.4,4.1,4.4,4.4c0,0,0,0.1-0.2,0.1
						C51.3,21.8,47.2,20.2,47.2,18.3 M46.9,18.3c0,2.2,4.3,3.8,5.4,3.8c0.4,0,0.5-0.2,0.5-0.4c0-0.3-1.5-4.6-4.6-4.6
						C47.4,17.1,46.9,17.6,46.9,18.3"/>
				</defs>
				<clipPath id="SVGID_86_">
					<use xlink:href="#SVGID_85_"  style="overflow:visible;"/>
				</clipPath>
				
					<linearGradient id="SVGID_87_" gradientUnits="userSpaceOnUse" x1="2981.697" y1="-3061.604" x2="2982.5945" y2="-3061.604" gradientTransform="matrix(3.489 -1.2207 1.2207 3.489 -6616.791 14341.5889)">
					<stop  offset="0" style="stop-color:#66AF45"/>
					<stop  offset="0.3861" style="stop-color:#7CB548"/>
					<stop  offset="1" style="stop-color:#9CBE4C"/>
				</linearGradient>
				<polygon class="st28" points="45.4,17.7 52.1,15.3 54.3,21.6 47.6,23.9 				"/>
			</g>
		</g>
		<g>
			<g>
				<defs>
					<path id="SVGID_88_" d="M44.5,27.1c0.2,0,0.4,0,0.5,0c0.2-0.1,0.4-0.2,0.5-0.2c0.2,0,0.2,0.1,0.2,0.1s0,0,0,0.1
						c0.1,0,0.2,0,0.3,0V27c0-0.1,0-0.4-0.5-0.4C45.2,26.8,44.8,26.9,44.5,27.1"/>
				</defs>
				<clipPath id="SVGID_89_">
					<use xlink:href="#SVGID_88_"  style="overflow:visible;"/>
				</clipPath>
				
					<linearGradient id="SVGID_90_" gradientUnits="userSpaceOnUse" x1="595.717" y1="-1570.8583" x2="596.6145" y2="-1570.8583" gradientTransform="matrix(1.3359 0.7806 -0.7806 1.3359 -1977.3781 1660.1434)">
					<stop  offset="0" style="stop-color:#66AF45"/>
					<stop  offset="0.4844" style="stop-color:#81B942"/>
					<stop  offset="0.55" style="stop-color:#85BA41"/>
					<stop  offset="1" style="stop-color:#9CBE4C"/>
				</linearGradient>
				<polygon class="st29" points="44.8,26.1 46.2,26.9 45.6,27.9 44.3,27.1 				"/>
			</g>
		</g>
		<g>
			<g>
				<defs>
					<path id="SVGID_91_" d="M51.3,23.1c-0.1,0.1-0.1,0.2-0.1,0.4s0.2,0.3,0.3,0.4c0.1,0.1,0.2,0.2,0.2,0.3s-0.3,0.5-0.9,0.8
						c-0.5,0.3-1.3,1.2-1.8,2.2c0.1,0,0.2,0,0.4,0c0.5-0.8,1.3-1.6,1.6-1.9c0.6-0.4,1.1-0.8,1.1-1.1c0-0.2-0.2-0.4-0.3-0.5
						s-0.2-0.2-0.2-0.3s0-0.1,0-0.1s0.2-0.1,0.4,0l0.3,0.1c0.5,0.1,0.7,0.2,0.7,0.5c0,0.4-0.4,1.8-1.1,3.1c0.1,0,0.2,0,0.4,0
						c0.7-1.3,1.1-2.7,1.1-3.1c0-0.5-0.5-0.6-0.9-0.7L51.9,23c-0.1,0-0.2,0-0.3,0C51.5,23,51.4,23,51.3,23.1"/>
				</defs>
				<clipPath id="SVGID_92_">
					<use xlink:href="#SVGID_91_"  style="overflow:visible;"/>
				</clipPath>
				
					<linearGradient id="SVGID_93_" gradientUnits="userSpaceOnUse" x1="1831.5078" y1="-1696.7755" x2="1832.4054" y2="-1696.7755" gradientTransform="matrix(2.0278 1.2512 -1.2512 2.0278 -5786.167 1174.0354)">
					<stop  offset="0" style="stop-color:#66AF45"/>
					<stop  offset="0.3861" style="stop-color:#7CB548"/>
					<stop  offset="1" style="stop-color:#9CBE4C"/>
				</linearGradient>
				<polygon class="st30" points="50.1,21.1 55,24.1 52,29 47.1,26 				"/>
			</g>
		</g>
		<g>
			<g>
				<defs>
					<path id="SVGID_94_" d="M35.7,22.9l-0.5,0.5c-0.5,0.5-1.2,1.2-1.9,1.9c0.1,0,0.2,0.1,0.4,0.1c0.6-0.5,1.2-1.2,1.8-1.8l0.5-0.5
						c0.9-0.8,2.1-1.1,2.4-1.1c0.3,0,0.5,0.1,0.5,0.2h0.3c0-0.3-0.4-0.5-0.7-0.5C38,21.8,36.7,21.9,35.7,22.9"/>
				</defs>
				<clipPath id="SVGID_95_">
					<use xlink:href="#SVGID_94_"  style="overflow:visible;"/>
				</clipPath>
				
					<linearGradient id="SVGID_96_" gradientUnits="userSpaceOnUse" x1="1924.4065" y1="-2378.3872" x2="1925.304" y2="-2378.3872" gradientTransform="matrix(2.4209 0.6152 -0.6152 2.4209 -6085.7305 4597.5645)">
					<stop  offset="0" style="stop-color:#9CBE4C"/>
					<stop  offset="0.39" style="stop-color:#85BA41"/>
					<stop  offset="0.4627" style="stop-color:#81B942"/>
					<stop  offset="1" style="stop-color:#66AF45"/>
				</linearGradient>
				<polygon class="st31" points="33.6,20.4 39.9,22 38.6,26.8 32.4,25.2 				"/>
			</g>
		</g>
		<g>
			<g>
				<defs>
					<path id="SVGID_97_" d="M38.7,22.3c0,0.1-0.2,0.4-0.5,0.7l-0.1,0.1c-0.3,0.4-1.4,1.7-2.2,2.9c0.1,0,0.2,0,0.3,0.1
						c0.8-1.1,1.8-2.5,2.1-2.7l0.1-0.1c0.5-0.5,0.6-0.7,0.6-0.9l0,0L38.7,22.3L38.7,22.3z"/>
				</defs>
				<clipPath id="SVGID_98_">
					<use xlink:href="#SVGID_97_"  style="overflow:visible;"/>
				</clipPath>
				
					<linearGradient id="SVGID_99_" gradientUnits="userSpaceOnUse" x1="2925.1782" y1="-2714.0344" x2="2926.0757" y2="-2714.0344" gradientTransform="matrix(4.0946 -0.4508 0.4508 4.0946 -10718.5225 12455.9561)">
					<stop  offset="0" style="stop-color:#5C9842"/>
					<stop  offset="9.000000e-02" style="stop-color:#5C9842"/>
					<stop  offset="0.82" style="stop-color:#66AF45"/>
					<stop  offset="0.89" style="stop-color:#66AF45"/>
					<stop  offset="1" style="stop-color:#66AF45"/>
				</linearGradient>
				<polygon class="st32" points="35.5,22.3 39,21.9 39.5,26 36,26.4 				"/>
			</g>
		</g>
		<g>
			<g>
				<defs>
					<path id="SVGID_100_" d="M30.8,21.8c-0.7,0.7-1.5,1.5-2,2.2c0.1,0,0.2,0.1,0.3,0.1c0.5-0.7,1.2-1.4,1.9-2.1
						c1.1-1,2.2-1.8,3.4-2.5l-0.1-0.3C33.1,19.9,31.9,20.8,30.8,21.8"/>
				</defs>
				<clipPath id="SVGID_101_">
					<use xlink:href="#SVGID_100_"  style="overflow:visible;"/>
				</clipPath>
				
					<linearGradient id="SVGID_102_" gradientUnits="userSpaceOnUse" x1="3272.9404" y1="-2417.3254" x2="3273.8376" y2="-2417.3254" gradientTransform="matrix(6.1677 0 0 6.1677 -20157.707 14931.0039)">
					<stop  offset="0" style="stop-color:#5C9842"/>
					<stop  offset="3.000000e-02" style="stop-color:#5C9842"/>
					<stop  offset="0.35" style="stop-color:#619E43"/>
					<stop  offset="0.83" style="stop-color:#68A243"/>
					<stop  offset="1" style="stop-color:#68A243"/>
				</linearGradient>
				<rect x="28.8" y="19.3" class="st33" width="5.6" height="4.7"/>
			</g>
		</g>
		<g>
			<g>
				<defs>
					<path id="SVGID_103_" d="M37.1,26.2c0.1,0,0.2,0,0.4,0.1c3.8-3.7,5.5-4.5,6.8-4.5c0.6,0,1,0.2,1.3,0.6c0.2,0.3,0.3,0.6,0.3,1.1
						s-0.1,0.9-0.2,1.1c0,0.1-0.1,0.3-0.1,0.3c0,0.1,0.1,0.3,0.2,0.4l0.2-0.3l-0.1-0.1c0,0,0-0.1,0.1-0.2c0.1-0.3,0.2-0.6,0.2-1.2
						c0-0.5-0.1-0.7-0.2-1.1c-0.3-0.6-0.8-0.9-1.6-0.9C42.8,21.6,41.2,22.4,37.1,26.2"/>
				</defs>
				<clipPath id="SVGID_104_">
					<use xlink:href="#SVGID_103_"  style="overflow:visible;"/>
				</clipPath>
				
					<linearGradient id="SVGID_105_" gradientUnits="userSpaceOnUse" x1="3589.4568" y1="-2289.8982" x2="3590.3542" y2="-2289.8982" gradientTransform="matrix(10.0235 0 0 10.0235 -35941.7891 22976.7383)">
					<stop  offset="0" style="stop-color:#9CBE4C"/>
					<stop  offset="0.8" style="stop-color:#80AE45"/>
					<stop  offset="1" style="stop-color:#619E43"/>
				</linearGradient>
				<rect x="37.1" y="21.6" class="st34" width="9" height="4.7"/>
			</g>
		</g>
		<g>
			<g>
				<defs>
					<path id="SVGID_106_" d="M49.2,22.5c-0.3,0.5-1.8,2.4-3.2,2.6c-0.1,0-0.1,0-0.1,0l-0.2,0.3c0.1,0.1,0.2,0.1,0.3,0.1
						c1.6-0.3,3.5-2.7,3.5-3H49.2z"/>
				</defs>
				<clipPath id="SVGID_107_">
					<use xlink:href="#SVGID_106_"  style="overflow:visible;"/>
				</clipPath>
				
					<linearGradient id="SVGID_108_" gradientUnits="userSpaceOnUse" x1="3314.8069" y1="-3783.4597" x2="3315.7043" y2="-3783.4597" gradientTransform="matrix(2.1299 -2.0116 2.0116 2.1299 597.0718 14751.5186)">
					<stop  offset="0" style="stop-color:#619E43"/>
					<stop  offset="1.000000e-02" style="stop-color:#619E43"/>
					<stop  offset="0.16" style="stop-color:#78A440"/>
					<stop  offset="0.2423" style="stop-color:#7DA743"/>
					<stop  offset="0.5" style="stop-color:#8AAD4B"/>
					<stop  offset="0.8205" style="stop-color:#7DAA44"/>
					<stop  offset="0.85" style="stop-color:#7BAA43"/>
					<stop  offset="1" style="stop-color:#68A243"/>
				</linearGradient>
				<polygon class="st35" points="44.3,23.9 47.7,20.6 51,24 47.6,27.3 				"/>
			</g>
		</g>
		<g>
			<g>
				<defs>
					<path id="SVGID_109_" d="M60.7,23c-0.3,0.2-0.5,0.5-0.6,0.5c-0.1-0.1-0.2-0.4-0.4-0.5c-0.1-0.2-0.2-0.5-0.3-0.5
						c-0.4-0.5-0.9-0.6-2.5-0.6c-0.4,0-0.6,0-1,0v0.3c0.3,0,0.5,0,0.9,0c1.5,0,1.9,0.1,2.2,0.5c0.1,0.1,0.2,0.4,0.3,0.5
						c0.2,0.4,0.4,0.7,0.5,0.7c0.2,0,0.3-0.2,0.8-0.6c0.5-0.5,1.4-1.3,1.8-1.3c0.3,0,0.4,0.1,0.4,0.3c0,0.1-0.1,0.3-0.2,0.5
						c-0.2,0.4-0.5,0.9-0.5,1.8c0.1,0,0.2-0.1,0.3-0.1c0.1-0.7,0.3-1.2,0.5-1.5c0.1-0.3,0.2-0.5,0.2-0.6s0-0.3-0.1-0.4
						c-0.1-0.1-0.3-0.2-0.5-0.2C62.1,21.8,61.3,22.5,60.7,23"/>
				</defs>
				<clipPath id="SVGID_110_">
					<use xlink:href="#SVGID_109_"  style="overflow:visible;"/>
				</clipPath>
				
					<linearGradient id="SVGID_111_" gradientUnits="userSpaceOnUse" x1="4870.5332" y1="-2007.8197" x2="4871.4307" y2="-2007.8197" gradientTransform="matrix(-6.7569 -1.9559 1.9559 -6.7569 36900.0156 -4016.1541)">
					<stop  offset="0" style="stop-color:#619E43"/>
					<stop  offset="7.552662e-02" style="stop-color:#6EA444"/>
					<stop  offset="0.15" style="stop-color:#7FAD46"/>
					<stop  offset="0.29" style="stop-color:#9CBE4C"/>
					<stop  offset="0.3048" style="stop-color:#9ABD4C"/>
					<stop  offset="0.66" style="stop-color:#66A243"/>
					<stop  offset="0.7652" style="stop-color:#73A844"/>
					<stop  offset="0.84" style="stop-color:#80AE45"/>
					<stop  offset="1" style="stop-color:#9CBE4C"/>
				</linearGradient>
				<polygon class="st36" points="62.7,26.6 55.2,24.4 56.6,19.8 64.1,21.9 				"/>
			</g>
		</g>
		<g>
			<g>
				<defs>
					<path id="SVGID_112_" d="M53.9,21.7c0.2,0.5,0.5,0.5,1.2,0.5h0.8v-0.3h-0.8c-0.7,0-0.8,0-0.9-0.3L53.9,21.7z"/>
				</defs>
				<clipPath id="SVGID_113_">
					<use xlink:href="#SVGID_112_"  style="overflow:visible;"/>
				</clipPath>
				
					<linearGradient id="SVGID_114_" gradientUnits="userSpaceOnUse" x1="1856.474" y1="-2987.031" x2="1857.3711" y2="-2987.031" gradientTransform="matrix(2.268 0 0 2.268 -4156.6323 6796.4346)">
					<stop  offset="0" style="stop-color:#66AF45"/>
					<stop  offset="0.5196" style="stop-color:#81B942"/>
					<stop  offset="0.59" style="stop-color:#85BA41"/>
					<stop  offset="1" style="stop-color:#9CBE4C"/>
				</linearGradient>
				<rect x="53.9" y="21.6" class="st37" width="2" height="0.5"/>
			</g>
		</g>
		<g>
			<g>
				<defs>
					<path id="SVGID_115_" d="M40.6,26.1c-0.1,0.1-0.1,0.1-0.2,0.2c-0.1,0.2-0.3,0.3-0.4,0.5c0.1,0,0.3,0,0.4,0
						c0.1-0.1,0.2-0.2,0.3-0.3c0.1-0.1,0.2-0.2,0.3-0.4c1.2-1.3,2.6-2.3,2.9-2.3c0.2,0,0.3,0,0.3,0.1l0,0c0,0.4-0.5,0.6-0.8,0.9
						L43.1,25l0,0c-0.5,0.4-0.7,0.5-0.7,0.8c0,0.1,0,0.1,0,0.2c0,0.1,0.1,0.2,0.2,0.3c0.1,0.1,0.1,0.1,0.2,0.2H43
						c0-0.2-0.2-0.4-0.3-0.5c-0.1,0-0.1-0.1-0.1-0.1c0-0.3,0-0.3,0.6-0.7l0,0l0.3-0.2c0.5-0.4,1-0.6,1-1.2c0-0.2-0.2-0.4-0.5-0.4
						C43.5,23.6,41.8,24.9,40.6,26.1"/>
				</defs>
				<clipPath id="SVGID_116_">
					<use xlink:href="#SVGID_115_"  style="overflow:visible;"/>
				</clipPath>
				
					<linearGradient id="SVGID_117_" gradientUnits="userSpaceOnUse" x1="2371.2397" y1="-906.1499" x2="2372.1372" y2="-906.1499" gradientTransform="matrix(1.4534 2.1792 -2.1792 1.4534 -5379.6748 -3826.6497)">
					<stop  offset="0" style="stop-color:#619E43"/>
					<stop  offset="0.1057" style="stop-color:#6EA444"/>
					<stop  offset="0.21" style="stop-color:#7FAD46"/>
					<stop  offset="0.49" style="stop-color:#9CBE4C"/>
					<stop  offset="1" style="stop-color:#9CBE4C"/>
				</linearGradient>
				<polygon class="st38" points="43.2,21.6 46,25.8 41.5,28.9 38.6,24.6 				"/>
			</g>
		</g>
		<g>
			<g>
				<defs>
					<path id="SVGID_118_" d="M42.6,26.6C42.6,26.7,42.6,26.7,42.6,26.6C42.6,26.7,42.7,26.7,42.6,26.6c0,0.2,0,0.3-0.1,0.5
						c0.1,0,0.2,0,0.3,0c0.1-0.2,0.1-0.3,0.1-0.4c0,0,0,0,0-0.1H42.6z"/>
				</defs>
				<clipPath id="SVGID_119_">
					<use xlink:href="#SVGID_118_"  style="overflow:visible;"/>
				</clipPath>
				
					<linearGradient id="SVGID_120_" gradientUnits="userSpaceOnUse" x1="-5995.1353" y1="4571.7227" x2="-5994.2378" y2="4571.7227" gradientTransform="matrix(0.2575 0.3724 -0.3724 0.2575 3289.0376 1082.2158)">
					<stop  offset="0" style="stop-color:#66AF45"/>
					<stop  offset="0.3861" style="stop-color:#7CB548"/>
					<stop  offset="1" style="stop-color:#9CBE4C"/>
				</linearGradient>
				<polygon class="st39" points="42.8,26.4 43.2,26.9 42.7,27.2 42.4,26.8 				"/>
			</g>
		</g>
		<g>
			<g>
				<defs>
					<path id="SVGID_121_" d="M44.6,16.7c-0.1,0.3-0.2,0.5-0.2,0.9c0,1.3,0.6,3.6,4.7,4.9l0,0l0,0h0.3c0-0.2-0.2-0.2-0.3-0.3h-0.1
						c-3.9-1.3-4.6-3.5-4.6-4.6C44.6,17.3,44.6,17,44.6,16.7c0.5-0.8,1.5-0.9,2.1-0.9c4.4,0,6.6,4.6,7.1,5.9v0.1l0.3-0.1v-0.1
						c-0.5-1.5-2.8-6.1-7.4-6.1C45.7,15.5,44.9,15.9,44.6,16.7"/>
				</defs>
				<clipPath id="SVGID_122_">
					<use xlink:href="#SVGID_121_"  style="overflow:visible;"/>
				</clipPath>
				
					<linearGradient id="SVGID_123_" gradientUnits="userSpaceOnUse" x1="5614.8809" y1="-2781.6426" x2="5615.7783" y2="-2781.6426" gradientTransform="matrix(-2.2543 -2.3778 2.3778 -2.2543 19319.8398 7097.9561)">
					<stop  offset="0" style="stop-color:#66AF45"/>
					<stop  offset="0.42" style="stop-color:#89B94F"/>
					<stop  offset="0.7565" style="stop-color:#A1C363"/>
					<stop  offset="0.81" style="stop-color:#A5C567"/>
					<stop  offset="1" style="stop-color:#A5C567"/>
				</linearGradient>
				<polygon class="st40" points="49.1,27.4 40.9,18.8 49.6,10.6 57.8,19.1 				"/>
			</g>
		</g>
		<g>
			<g>
				<defs>
					<path id="SVGID_124_" d="M42.8,15c0.1,0,0.2,0,0.3,0c-0.5,1-1.5,2.7-1.5,2.8l0,0l0,0h-0.1c-0.8-0.1-1.5-0.2-2.1-0.2
						c-1.3,0-3.2,0.5-5.1,1.5l0.1,0.3c1.9-1.1,3.7-1.5,5-1.5c0.5,0,1.2,0.1,2,0.2h0.1c0.1,0,0.1,0,0.2,0c0.1,0,0.1-0.1,0.1-0.1
						c0.1-0.1,1.5-2.8,1.6-2.9c0-0.1,0-0.1,0-0.2c0-0.1-0.1-0.1-0.1-0.1c-0.1,0-0.3-0.1-0.5-0.1V15z"/>
				</defs>
				<clipPath id="SVGID_125_">
					<use xlink:href="#SVGID_124_"  style="overflow:visible;"/>
				</clipPath>
				
					<linearGradient id="SVGID_126_" gradientUnits="userSpaceOnUse" x1="6263.8379" y1="-4306.0908" x2="6264.7354" y2="-4306.0908" gradientTransform="matrix(-0.6722 -1.6307 1.6307 -0.6722 11270.3584 7334.6787)">
					<stop  offset="0" style="stop-color:#68A243"/>
					<stop  offset="0.87" style="stop-color:#80AE46"/>
					<stop  offset="1" style="stop-color:#9CBE4C"/>
				</linearGradient>
				<polygon class="st41" points="35.5,22.8 32.5,15.4 42.1,11.5 45.1,18.8 				"/>
			</g>
		</g>
		<path class="st42" d="M29.7,19.9C35.1,16,40.2,15,42.4,15c0.2,0,0.4,0,0.5,0v-0.3c-0.2,0-0.3,0-0.5,0c-2.2,0-7.4,1.1-12.8,5
			c-1.5,1.1-2.7,2.2-3.7,3.2c0.1,0,0.2,0.1,0.3,0.1C27.1,21.9,28.3,20.9,29.7,19.9"/>
	</g>
	<line class="st43" x1="78.6" y1="23.2" x2="78.6" y2="35.8"/>
	<g>
		<path d="M85.5,32.2h4.4v1.4h-6.1v-7.8h5.7v1.4h-4V29h3.6v1.5h-3.6V32.2z"/>
		<path d="M94.8,33.6h-1.9l-2.5-7.8h1.8l1.7,5.5h0l1.8-5.5h1.8L94.8,33.6z"/>
		<path d="M99.5,32.2h4.4v1.4h-6.1v-7.8h5.7v1.4h-4V29h3.6v1.5h-3.6V32.2z"/>
		<path d="M109.6,30.7l2.2,2.9h-2.1l-2-2.8h-0.8v2.8h-1.7v-7.8h3.5c2,0,2.7,1.2,2.7,2.5C111.4,29.4,110.8,30.5,109.6,30.7
			L109.6,30.7z M106.9,27.2v2.3h1.3c0.8,0,1.5-0.2,1.5-1.2c0-1-0.7-1.2-1.5-1.2H106.9z"/>
		<path d="M120,31.7c-0.7,1.3-2,2.1-3.5,2.1c-2.2,0-4-1.8-4-4c0-2.2,1.8-4,4-4c1.5,0,2.8,0.8,3.5,2.1c-0.7,0.3-0.7,0.4-1.5,0.8
			c-0.4-0.7-1.1-1.1-2-1.1c-1.3,0-2.4,1-2.4,2.4c0,1.3,1,2.4,2.4,2.4c0.9,0,1.7-0.4,2.1-1.2h-0.2c-0.3,0-1.1,0-1.6,0
			c-0.2,0-0.3,0-0.3,0v-1.4c1.1,0,2.6,0,4,0C120.4,29.7,120.4,31.1,120,31.7z"/>
		<path d="M125.8,30.7l2.2,2.9h-2.1l-2-2.8h-0.8v2.8h-1.7v-7.8h3.5c2,0,2.7,1.2,2.7,2.5C127.6,29.4,127,30.5,125.8,30.7L125.8,30.7z
			 M123.1,27.2v2.3h1.3c0.8,0,1.5-0.2,1.5-1.2c0-1-0.7-1.2-1.5-1.2H123.1z"/>
		<path d="M130.7,32.2h4.4v1.4H129v-7.8h5.7v1.4h-4V29h3.6v1.5h-3.6V32.2z"/>
		<path d="M137.8,32.2h4.4v1.4h-6.1v-7.8h5.7v1.4h-4V29h3.6v1.5h-3.6V32.2z"/>
		<path d="M144.8,28.2v5.4h-1.5v-7.8h2l3.5,4.9v-4.9h1.5v7.8h-1.5L144.8,28.2z"/>
		<path d="M156,31.3c0.2,1,1.1,1.2,1.7,1.2c0.6,0,1.5-0.2,1.5-1c0-1.7-4.6-0.6-4.6-3.5c0-1.6,1.5-2.4,2.9-2.4c1.6,0,3.1,0.7,3.1,2.5
			l-1.7-0.2c-0.2-0.9-1-0.9-1.5-0.9c-0.5,0-1.2,0.2-1.2,0.9c0,0.6,0.4,0.7,2.3,1.2c0.6,0.1,2.3,0.5,2.3,2.3c0,1.4-1.1,2.5-3.2,2.5
			c-1.7,0-3.3-0.9-3.3-2.8L156,31.3z"/>
		<path d="M169.4,33.5h-2.9c-0.3,0.1-0.7,0.2-1.1,0.2c-2.2,0-4-1.8-4-4c0-2.2,1.8-4,4-4c2.2,0,4,1.8,4,4c0,1-0.3,1.6-0.9,2.2h0.8
			L169.4,33.5z M163,29.7c0,1.3,1.1,2.3,2.3,2.3c1.3,0,2.3-1,2.3-2.3c0-1.3-1-2.3-2.3-2.3C164.1,27.3,163,28.4,163,29.7z"/>
		<path d="M177.1,30.7c0,2.1-1.2,3.1-3.3,3.1c-2.1,0-3.3-1-3.3-3.1v-4.9h1.7v4.9c0,0.9,0.2,1.7,1.6,1.7c1.2,0,1.6-0.5,1.6-1.7v-4.9
			h1.7V30.7z"/>
		<path d="M177.8,33.6l3.5-7.8h1.7l3.5,7.8h-1.7l-0.8-1.7h-3.9l-0.8,1.7H177.8z M182.2,27.3l-1.3,3h2.6L182.2,27.3L182.2,27.3z"/>
		<path d="M191.8,30.7l2.2,2.9h-2.1l-2-2.8h-0.8v2.8h-1.7v-7.8h3.5c2,0,2.7,1.2,2.7,2.5C193.6,29.4,193,30.5,191.8,30.7L191.8,30.7z
			 M189.1,27.2v2.3h1.3c0.8,0,1.5-0.2,1.5-1.2c0-1-0.7-1.2-1.5-1.2H189.1z"/>
		<path d="M196.7,32.2h4.4v1.4H195v-7.8h5.7v1.4h-4V29h3.6v1.5h-3.6V32.2z"/>
	</g>
</g>
</svg>
