<?xml version="1.0" encoding="utf-8"?>
<!-- Generator: Adobe Illustrator 24.3.0, SVG Export Plug-In . SVG Version: 6.00 Build 0)  -->
<svg version="1.1" id="Layer_1" xmlns="http://www.w3.org/2000/svg" xmlns:xlink="http://www.w3.org/1999/xlink" x="0px" y="0px"
	 viewBox="0 0 218 59" style="enable-background:new 0 0 218 59;" xml:space="preserve">
<g>
	<g>
		<path d="M44.5,42.5C43.7,44,42.1,45,40.4,45c-2.6,0-4.7-2.1-4.7-4.7c0-2.6,2.1-4.7,4.7-4.7c1.8,0,3.3,1,4.1,2.4
			c-0.8,0.4-0.9,0.4-1.8,0.9c-0.5-0.8-1.3-1.3-2.4-1.3c-1.5,0-2.7,1.2-2.7,2.7c0,1.5,1.2,2.7,2.7,2.7c1,0,2-0.5,2.4-1.4h-0.2
			c-0.4,0-1.3,0-1.8,0c-0.2,0-0.4,0-0.4,0V40c1.3,0,3.1,0,4.6,0C45,40.3,45,41.9,44.5,42.5z"/>
		<path d="M50.1,44.9c-2.6,0-4.7-2.1-4.7-4.7c0-2.6,2.1-4.7,4.7-4.7c2.6,0,4.7,2.1,4.7,4.7C54.8,42.8,52.7,44.9,50.1,44.9z
			 M47.3,40.3c0,1.5,1.3,2.8,2.8,2.8c1.5,0,2.7-1.3,2.7-2.8c0-1.5-1.2-2.8-2.7-2.8C48.6,37.5,47.3,38.7,47.3,40.3z"/>
		<path d="M56,35.7h3.9c2.4,0,4.1,1.5,4.1,4.5c0,2.6-1.3,4.6-4.1,4.6H56V35.7z M58,43.2h1.8c1.2,0,2.3-0.7,2.3-2.7
			c0-1.8-0.6-3-2.6-3H58V43.2z"/>
		<path d="M70.7,41.5l2.5,3.4h-2.4l-2.3-3.3h-1v3.3h-2v-9.1h4.1c2.3,0,3.2,1.4,3.2,2.9C72.8,39.9,72.1,41.1,70.7,41.5L70.7,41.5z
			 M67.5,37.3V40h1.6c1,0,1.7-0.2,1.7-1.4c0-1.2-0.8-1.4-1.7-1.4H67.5z"/>
		<path d="M76.4,43.1h5.1v1.7h-7.1v-9.1h6.6v1.7h-4.7v2h4.1v1.8h-4.1V43.1z"/>
		<path d="M88.3,42c0,1.2-0.3,3.1-3,3.1c-1,0-2-0.4-2.5-1.2c-0.3-0.4-0.4-1.1-0.4-1.3l1.8-0.3c0,0.7,0.2,1.1,1.1,1.1
			c1.1,0,1.1-0.8,1.1-1.5v-6.1h2V42z"/>
		<path d="M93.9,35.7H98c2.3,0,3.1,1.4,3.1,2.9c0,1.5-0.9,2.9-3.1,2.9h-2.1v3.3h-2V35.7z M95.9,40h1.6c0.9,0,1.8-0.2,1.8-1.4
			s-0.8-1.4-1.8-1.4h-1.6V40z"/>
		<path d="M101.5,44.8l4.1-9.1h2l4.1,9.1h-1.9l-0.9-2h-4.6l-1,2H101.5z M106.7,37.5l-1.5,3.5h3L106.7,37.5L106.7,37.5z"/>
		<path d="M117.8,41.5l2.5,3.4h-2.4l-2.3-3.3h-1v3.3h-2v-9.1h4.1c2.3,0,3.2,1.4,3.2,2.9C119.9,39.9,119.3,41.1,117.8,41.5
			L117.8,41.5z M114.7,37.3V40h1.6c1,0,1.7-0.2,1.7-1.4c0-1.2-0.8-1.4-1.7-1.4H114.7z"/>
		<path d="M129.8,44.8h-2.7l-2.4-2.5l-1.2,1.6v0.9h-2v-9.1h2v5.2l3.6-5.2h2.5l-3.4,5.2L129.8,44.8z"/>
		<path d="M143.5,44.8h-2l-1.5-6.2h0l-1.5,6.2h-2l-2.4-9.1h2l1.3,6.2l0.2,0l1.6-6.2h1.9l1.6,6.3l0.2,0l1.3-6.3h2L143.5,44.8z"/>
		<path d="M150.9,44.9c-2.6,0-4.7-2.1-4.7-4.7c0-2.6,2.1-4.7,4.7-4.7c2.6,0,4.7,2.1,4.7,4.7C155.6,42.8,153.5,44.9,150.9,44.9z
			 M148.1,40.3c0,1.5,1.3,2.8,2.8,2.8s2.7-1.3,2.7-2.8c0-1.5-1.2-2.8-2.7-2.8S148.1,38.7,148.1,40.3z"/>
		<path d="M161.9,41.5l2.5,3.4h-2.4l-2.3-3.3h-1v3.3h-2v-9.1h4.1c2.3,0,3.2,1.4,3.2,2.9C164,39.9,163.4,41.1,161.9,41.5L161.9,41.5z
			 M158.8,37.3V40h1.6c1,0,1.7-0.2,1.7-1.4c0-1.2-0.8-1.4-1.7-1.4H158.8z"/>
		<path d="M165.8,44.8v-9.1h2v7.4h4.7v1.7H165.8z"/>
		<path d="M173.8,35.7h3.9c2.4,0,4.1,1.5,4.1,4.5c0,2.6-1.3,4.6-4.1,4.6h-3.9V35.7z M175.8,43.2h1.8c1.2,0,2.3-0.7,2.3-2.7
			c0-1.8-0.6-3-2.6-3h-1.4V43.2z"/>
	</g>
	<g>
		<path d="M70.9,50.5h-2.6v2.4h-1.2v-5.6h1.2v2h2.6v-2h1.2v5.6h-1.2V50.5z"/>
		<path d="M73.1,47.3h1.2v5.6h-1.2V47.3z"/>
		<path d="M76.3,49v3.9h-1.1v-5.6h1.4l2.5,3.5v-3.5h1v5.6h-1L76.3,49z"/>
		<path d="M84.4,51.1c0,0.7-0.2,1.9-1.9,1.9c-0.6,0-1.2-0.2-1.6-0.7c-0.2-0.2-0.3-0.6-0.3-0.8l1.1-0.2c0,0.4,0.1,0.7,0.7,0.7
			c0.6,0,0.6-0.5,0.6-0.9v-3.8h1.2V51.1z"/>
		<path d="M84.9,52.9l2.5-5.6h1.2l2.5,5.6H90l-0.5-1.2h-2.8L86,52.9H84.9z M88.1,48.4l-0.9,2.2H89L88.1,48.4L88.1,48.4z"/>
		<path d="M97,52.9h-1.2l-0.9-3.8h0l-0.9,3.8h-1.2l-1.5-5.6h1.2l0.8,3.8l0.1,0l1-3.8h1.1l1,3.8l0.1,0l0.8-3.9h1.2L97,52.9z"/>
		<path d="M98.6,52.9l2.5-5.6h1.2l2.5,5.6h-1.2l-0.5-1.2h-2.8l-0.6,1.2H98.6z M101.7,48.4l-0.9,2.2h1.9L101.7,48.4L101.7,48.4z"/>
		<path d="M105.4,47.3h2.4c1.4,0,2.5,0.9,2.5,2.8c0,1.6-0.8,2.8-2.5,2.8h-2.4V47.3z M106.6,51.8h1.1c0.7,0,1.4-0.4,1.4-1.7
			c0-1.1-0.4-1.8-1.6-1.8h-0.9V51.8z"/>
		<path d="M111.2,47.3h1.2v5.6h-1.2V47.3z"/>
		<path d="M115.8,47.3h2.5c1.4,0,1.9,0.9,1.9,1.8s-0.5,1.8-1.9,1.8h-1.3v2h-1.2V47.3z M117.1,49.9h1c0.6,0,1.1-0.1,1.1-0.8
			s-0.5-0.8-1.1-0.8h-1V49.9z"/>
		<path d="M124.7,50.5h-2.6v2.4h-1.2v-5.6h1.2v2h2.6v-2h1.2v5.6h-1.2V50.5z"/>
		<path d="M126.4,52.9l2.5-5.6h1.2l2.5,5.6h-1.2l-0.5-1.2h-2.8l-0.6,1.2H126.4z M129.5,48.4l-0.9,2.2h1.9L129.5,48.4L129.5,48.4z"/>
		<path d="M134,51.2c0.1,0.7,0.8,0.8,1.2,0.8c0.4,0,1.1-0.1,1.1-0.7c0-1.2-3.3-0.4-3.3-2.5c0-1.1,1.1-1.7,2.1-1.7
			c1.2,0,2.2,0.5,2.2,1.8l-1.2-0.2c-0.1-0.6-0.7-0.7-1.1-0.7c-0.4,0-0.8,0.2-0.8,0.6c0,0.4,0.3,0.5,1.7,0.8c0.4,0.1,1.7,0.4,1.7,1.6
			c0,1-0.8,1.8-2.3,1.8c-1.2,0-2.4-0.6-2.4-2L134,51.2z"/>
		<path d="M139.3,51.8h3.1v1h-4.3v-5.6h4.1v1h-2.9v1.3h2.5v1.1h-2.5V51.8z"/>
		<path d="M149.7,47.4v5.5h-1.1v-4.4h-0.8v-0.7L149.7,47.4z"/>
	</g>
	<g>
		<path d="M101.5,17.7c0-0.1,0-0.1,0-0.2c-0.2-0.6-0.3-1.2-0.4-1.8c-0.1-0.5-0.1-1.1-0.1-1.7c0-0.3,0.1-0.7,0.1-1
			c0.1-0.5,0.1-0.9,0.3-1.3c0.4-1.1,0.9-2.1,1.6-2.9c0.7-0.9,1.6-1.7,2.7-2.3c0.6-0.4,1.3-0.6,2-0.8c0.5-0.1,1-0.2,1.4-0.3
			c0.4-0.1,0.8-0.1,1.2-0.1c0.7,0,1.3,0.1,2,0.2c1.1,0.2,2,0.7,3,1.2c0.3,0.2,0.6,0.4,0.9,0.6c0.1,0.1,0.3,0.2,0.4,0.4
			c1,1,1.8,2.1,2.3,3.4c0.5,1.3,0.7,2.7,0.6,4.2c-0.1,1.3-0.5,2.5-1.1,3.7c-1.1,1.9-2.7,3.3-4.7,4.2c-0.2,0.1-0.4,0.1-0.6,0.1
			c0,0-0.1,0-0.1,0c-0.3-0.1-0.4-0.3-0.4-0.6c0-0.3,0.1-0.5,0.4-0.6c0.8-0.3,1.5-0.7,2.2-1.2c0.6-0.5,1.1-1,1.5-1.6
			c0.7-1,1.2-2.1,1.4-3.4c0.1-0.3,0.1-0.6,0.1-0.9c0-0.2,0-0.4,0-0.6c0-0.9-0.2-1.7-0.5-2.5c0-0.1-0.1-0.2-0.1-0.3
			c-0.3-0.9-0.8-1.7-1.5-2.4c-0.3-0.3-0.6-0.6-0.9-0.8c-0.2-0.2-0.4-0.3-0.6-0.5c-0.2-0.2-0.5-0.3-0.7-0.4c-0.2-0.1-0.4-0.2-0.7-0.4
			c-0.5-0.2-0.9-0.3-1.4-0.4c-1.1-0.2-2.2-0.2-3.3,0c-1.6,0.4-2.9,1.1-4.1,2.3c-1.3,1.4-2.1,3.1-2.2,5c-0.1,1.4,0.2,2.8,0.9,4
			c0.5,1.1,1.3,2,2.3,2.7c0.5,0.4,1,0.7,1.5,0.9c0,0,0,0,0,0c0,0,0,0,0,0c0,0,0,0,0.1,0c0,0,0,0,0,0c0.2,0.1,0.4,0.2,0.6,0.3
			c0,0,0.1,0.1,0.1,0.1c0,0,0,0,0,0c0,0.1,0.1,0.2,0.1,0.4c0,0.5-0.4,0.8-0.9,0.6c-0.7-0.3-1.4-0.6-2-1c-0.6-0.5-1.3-1-1.8-1.6
			c-0.3-0.3-0.5-0.7-0.8-1c-0.3-0.5-0.6-1-0.8-1.5C101.6,17.9,101.5,17.8,101.5,17.7z"/>
		<path d="M108.5,33.4c-0.2,0-0.3,0-0.4-0.1c-0.1-0.1-0.1-0.2-0.1-0.3c0-1.4,0-2.7,0-4.1c0-0.3,0.1-0.5,0.3-0.6
			c0.3-0.3,0.6-0.7,0.8-1.1c0.2-0.5,0.4-1,0.5-1.5c0.1-0.5,0.1-0.9,0.1-1.4c0-1.5,0-3.1,0-4.6c0-0.1,0-0.1,0-0.2c0-0.1,0-0.1,0-0.2
			c0-0.1,0-0.2-0.1-0.3c-0.7-0.7-1.4-1.4-2.1-2.1c-0.1-0.1-0.1-0.1-0.2-0.1c-0.1-0.1-0.2-0.2-0.3-0.3c-0.2-0.3-0.2-0.7,0.1-0.9
			c0.3-0.2,0.5-0.2,0.8,0.1c0.1,0.1,0.3,0.3,0.4,0.4c0.4,0.4,0.8,0.8,1.3,1.3c0,0,0,0,0.1,0c0-0.2,0-0.4,0-0.5c0-0.2,0-0.3,0-0.5
			c0-0.1,0-0.1,0-0.2c0-0.1,0-0.2-0.1-0.3c-0.7-0.7-1.4-1.4-2.1-2.1c0-0.1-0.1-0.1-0.1-0.2c-0.1-0.1-0.2-0.2-0.3-0.3
			c-0.3-0.3-0.2-0.7,0.1-0.9c0.2-0.1,0.6-0.2,0.8,0.1c0.1,0.1,0.1,0.2,0.3,0.2c0,0,0,0.1,0.1,0.1c0.4,0.4,0.9,0.9,1.3,1.3
			c0,0,0,0,0.1,0c0-0.2,0-0.4,0-0.6c0.1-0.1,0-0.1,0-0.2c0-0.5,0-1,0-1.5c0-0.2,0-0.4,0-0.6c0-0.4,0.4-0.6,0.8-0.5
			c0.2,0.1,0.3,0.2,0.4,0.4c0,0.1,0,0.2,0,0.3c0,0.9,0,1.8,0,2.6c0,0,0,0.1,0,0.1c0.3-0.3,0.7-0.7,1-1c0.1,0,0.1-0.1,0.2-0.1
			c0.2-0.2,0.3-0.4,0.5-0.5c0.3-0.3,0.7-0.3,1,0c0,0,0,0.1,0.1,0.1c0.1,0.3,0.1,0.6-0.2,0.8c-0.1,0.1-0.1,0.1-0.2,0.2
			c-0.7,0.7-1.5,1.5-2.2,2.2c-0.1,0.1-0.1,0.2-0.1,0.3c0,0.3,0,0.7,0,1.1c0,0.1,0,0.1,0,0.2c0.1-0.1,0.2-0.1,0.2-0.2
			c0.5-0.5,1-1,1.5-1.5c0.2-0.2,0.4-0.3,0.6-0.2c0.2,0.1,0.3,0.2,0.4,0.3c0.1,0.3,0,0.6-0.2,0.8c-0.8,0.8-1.6,1.6-2.4,2.4
			c-0.1,0.1-0.1,0.2-0.1,0.4c0,1.9,0,3.8,0,5.7c0,0.5,0.1,1,0.3,1.5c0.3,0.7,0.6,1.3,1.2,1.9c0.1,0.1,0.2,0.3,0.2,0.4
			c0,0.1,0,0.1,0,0.2c0,1.3,0,2.6,0,3.8c0,0.3-0.1,0.5-0.4,0.6c0,0-0.1,0-0.1,0c-0.2,0-0.4-0.2-0.4-0.4c0-0.1,0-0.1,0-0.2
			c0-1.1,0-2.2,0-3.3c0-0.1,0-0.1,0-0.2c0-0.1,0-0.1,0-0.2c0-0.1,0-0.2-0.1-0.2c-0.5-0.5-0.8-1.1-1.1-1.7c0-0.1,0-0.1-0.1-0.2
			c0,0-0.1,0.1-0.1,0.2c-0.3,0.6-0.6,1.2-1.1,1.7c-0.1,0.1-0.1,0.2-0.1,0.4c0,1.2,0,2.5,0,3.7C108.9,33.2,108.8,33.3,108.5,33.4z"/>
		<path d="M113.8,9.7c0.3,0.1,0.6,0.2,0.9,0.3c0.1,0.1,0.2,0.2,0.3,0.2c0.2,0.2,0.4,0.4,0.6,0.6c0.6,0.8,0.8,1.7,0.7,2.6
			c-0.1,0.4-0.2,0.8-0.5,1.2c-0.1,0.1-0.1,0.2,0,0.3c0,0,0.1,0.1,0.1,0.2c0.4,1,0.3,1.9-0.3,2.8c-0.6,0.9-1.5,1.3-2.6,1.3
			c-0.1-0.1-0.3-0.2-0.3-0.3c-0.2-0.5,0.1-0.9,0.6-0.9c0.2,0,0.4-0.1,0.6-0.2c0.1,0,0.1,0,0.2-0.1c0.2-0.1,0.4-0.3,0.5-0.4
			c0.3-0.4,0.4-0.9,0.3-1.4c-0.1-0.2-0.2-0.4-0.3-0.6c-0.2-0.3-0.2-0.6,0-0.9c0.5-0.5,0.6-1,0.6-1.7c0-0.1,0-0.2-0.1-0.3
			c0-0.2-0.2-0.4-0.3-0.6c-0.3-0.4-0.6-0.6-1-0.7c-0.2-0.1-0.5-0.1-0.7,0c-0.3,0-0.5-0.1-0.7-0.3c-0.1-0.2-0.2-0.3-0.4-0.5
			c-1.2-1.2-3.1-1-4.1,0.4c-0.2,0.3-0.4,0.4-0.7,0.4c-0.2,0-0.5,0-0.7,0.1c-1.4,0.4-1.8,2.1-1,3.1c0.1,0.1,0.1,0.1,0.2,0.2
			c0.2,0.3,0.2,0.5,0.1,0.8c0,0.1-0.1,0.1-0.1,0.2c-0.6,0.9-0.2,2.2,0.9,2.5c0,0,0.1,0,0.1,0c0.3,0,0.5,0,0.7,0.2
			c0,0.1,0.1,0.1,0.1,0.2c0.1,0.3,0,0.7-0.3,0.8c-0.1,0-0.2,0.1-0.3,0.1c-0.5,0-1-0.2-1.4-0.4c-0.3-0.2-0.5-0.4-0.8-0.6
			c0-0.2-0.2-0.2-0.2-0.4c-0.1-0.2-0.2-0.4-0.3-0.6c-0.1-0.3-0.1-0.5-0.1-0.8c0-0.3,0-0.5,0.1-0.8c0.1-0.2,0.1-0.4,0.3-0.6
			c0.1-0.1,0-0.1,0-0.2c-0.2-0.3-0.4-0.7-0.5-1.1c-0.1-0.7-0.1-1.3,0.2-2c0-0.1,0.1-0.1,0.1-0.2c0.1-0.2,0.3-0.4,0.4-0.6
			c0.2-0.1,0.3-0.3,0.4-0.4c0.4-0.3,0.9-0.5,1.5-0.6c0.1,0,0.2-0.1,0.3,0c0.1,0,0.2-0.1,0.3-0.2c0.6-0.8,1.4-1.2,2.4-1.3
			c1-0.1,1.9,0.1,2.7,0.6c0,0,0.1,0,0.1,0c0.3,0.2,0.5,0.4,0.7,0.7c0.1,0.2,0.3,0.2,0.5,0.2C113.7,9.8,113.7,9.7,113.8,9.7
			C113.8,9.7,113.8,9.7,113.8,9.7z"/>
		<path d="M120,17.3c0.1,0,0.1-0.1,0.2-0.1c0.6-0.6,1.7-0.7,2.3-0.1c0,0,0.1,0.1,0.1,0c0.4,0.4,0.6,0.9,0.6,1.4c0,0.3,0,0.5,0,0.8
			c0,1.2,0,2.4,0,3.6c0,0.4,0,0.7-0.1,1.1c-0.1,0.7-0.4,1.4-0.7,2c-0.6,1.1-1.4,2.1-2.4,2.9c-0.1,0.1-0.1,0.2-0.1,0.3
			c0,1.2,0,2.4,0,3.7c0,0.3-0.1,0.5-0.4,0.6c0,0-0.1,0-0.1,0c-0.1,0-0.2,0-0.3-0.1c-0.1-0.1-0.1-0.2-0.2-0.3c0-0.1,0-0.2,0-0.3
			c0-1.3,0-2.6,0-3.9c0-0.2,0.1-0.4,0.2-0.5c0.5-0.4,1-0.9,1.4-1.4c0.5-0.6,1-1.3,1.3-2c0.2-0.3,0.2-0.7,0.3-1
			c0.1-0.5,0.1-0.9,0.1-1.4c0-1.2,0-2.5,0-3.7c0-0.1,0-0.1,0-0.2c0-0.2,0-0.4-0.1-0.5c-0.1-0.3-0.4-0.5-0.7-0.5
			c-0.3,0-0.6,0.3-0.7,0.6c0,0.1,0,0.2,0,0.3c0,1.2,0,2.3,0,3.5c0,0.3-0.1,0.4-0.4,0.5c-0.1,0-0.2,0-0.3,0c0,0,0,0,0,0
			c-0.2-0.1-0.3-0.3-0.3-0.6c0-0.9,0-1.7,0-2.6c0-0.1,0-0.2,0-0.2c0-0.2,0-0.4,0-0.6C119.5,18.1,119.7,17.7,120,17.3z"/>
		<path d="M100.2,22.6c0,0-0.1,0-0.1,0c-0.2-0.1-0.3-0.2-0.4-0.5c0-0.2,0-0.5,0-0.7c0-0.8,0-1.6,0-2.4c0-0.1,0-0.1,0-0.2
			c0-0.1,0-0.2,0-0.4c0-0.1,0-0.3-0.1-0.4c-0.2-0.3-0.5-0.4-0.8-0.3c-0.3,0.1-0.6,0.4-0.6,0.7c0,0.3,0,0.5,0,0.8c0,1.3,0,2.6,0,4
			c0,0.8,0.3,1.6,0.7,2.3c0.6,1.1,1.5,2,2.4,2.9c0.2,0.2,0.3,0.3,0.3,0.6c0,1.3,0,2.6,0,3.8c0,0.1,0,0.1,0,0.2
			c0,0.2-0.2,0.4-0.4,0.5c-0.1,0-0.1,0-0.2,0c0,0,0,0,0,0c0,0,0,0-0.1-0.1c-0.2-0.1-0.3-0.2-0.3-0.4c0-0.5,0-1,0-1.5
			c0-0.6,0-1.3,0-1.9c0-0.1,0-0.1,0-0.2c0.1-0.2,0-0.4-0.2-0.6c0,0,0,0-0.1-0.1c-0.4-0.4-0.9-0.9-1.3-1.4c-0.1-0.2-0.2-0.3-0.4-0.5
			c-0.1-0.2-0.3-0.5-0.4-0.7c-0.1-0.2-0.3-0.4-0.3-0.6c-0.1-0.2-0.2-0.4-0.2-0.6c-0.1-0.3-0.2-0.5-0.3-0.8c0-0.1,0-0.3-0.1-0.5
			c0-0.4,0-0.8,0-1.2c0-1.4,0-2.7,0-4.1c0-0.9,0.6-1.6,1.5-1.7c0.5-0.1,0.9,0,1.3,0.3c0,0,0.1,0,0.1,0.1c0.4,0.4,0.6,0.8,0.6,1.4
			c0,1.2,0,2.4,0,3.6c0,0.3-0.1,0.5-0.4,0.5C100.3,22.6,100.2,22.6,100.2,22.6C100.2,22.6,100.2,22.6,100.2,22.6z"/>
		<path d="M101,23.3c-0.2-0.3-0.2-0.7,0.2-0.8c0.1,0,0.2,0,0.2,0c0,0,0.1,0,0.1,0c0,0,0,0,0.1,0c0.1,0.1,0.3,0.1,0.4,0.1
			c0.5,0.1,0.9,0.3,1.3,0.6c0,0,0,0,0.1,0c0.3,0.2,0.5,0.4,0.8,0.6c0.6,0.7,1,1.4,1.1,2.3c0,0.3-0.1,0.5-0.4,0.6c-0.1,0-0.2,0-0.3,0
			c-0.1-0.1-0.1,0-0.2-0.1c-0.1-0.1-0.1-0.3-0.2-0.4c0-0.3-0.1-0.6-0.2-0.9c-0.1-0.4-0.4-0.7-0.7-1c-0.6-0.5-1.2-0.8-2-0.9
			C101.2,23.4,101.1,23.3,101,23.3z"/>
		<path d="M119.3,22.8c0,0.4-0.1,0.5-0.5,0.6c-0.7,0.2-1.3,0.4-1.9,0.9c-0.6,0.5-0.9,1.1-1,1.9c0,0.3-0.1,0.5-0.4,0.5
			c0,0-0.1,0-0.1,0c-0.3,0-0.5-0.2-0.5-0.5c0-0.3,0.1-0.6,0.1-0.8c0.3-1.1,1-1.9,2-2.4c0.5-0.3,1-0.4,1.5-0.5
			C119,22.4,119.2,22.5,119.3,22.8C119.3,22.8,119.3,22.8,119.3,22.8z"/>
		<path d="M107.7,22.2c-0.1,0-0.1,0-0.1-0.1C107.7,22.1,107.7,22.1,107.7,22.2z"/>
		<path d="M107,21.8C107,21.8,107,21.8,107,21.8C107,21.8,107,21.8,107,21.8z"/>
		<path d="M106.9,21.8C106.9,21.8,106.9,21.8,106.9,21.8C106.9,21.8,106.9,21.8,106.9,21.8z"/>
		<path d="M109.5,17.2C109.5,17.2,109.5,17.2,109.5,17.2C109.5,17.3,109.5,17.3,109.5,17.2z"/>
		<path d="M113.6,9.7c0.1,0,0.1,0,0.2,0C113.7,9.7,113.7,9.8,113.6,9.7z"/>
		<path d="M120.2,22.6c-0.1,0.1-0.2,0.1-0.3,0C120,22.6,120.1,22.6,120.2,22.6z"/>
		<path d="M100.3,22.6c0,0-0.1,0.1-0.1,0C100.2,22.6,100.3,22.6,100.3,22.6z"/>
		<path d="M101.6,22.5C101.5,22.5,101.5,22.5,101.6,22.5C101.5,22.4,101.5,22.4,101.6,22.5z"/>
	</g>
</g>
</svg>
