<?xml version="1.0" encoding="utf-8"?>
<!-- Generator: Adobe Illustrator 24.3.0, SVG Export Plug-In . SVG Version: 6.00 Build 0)  -->
<svg version="1.1" id="Layer_1" xmlns="http://www.w3.org/2000/svg" xmlns:xlink="http://www.w3.org/1999/xlink" x="0px" y="0px"
	 viewBox="0 0 218 59" style="enable-background:new 0 0 218 59;" xml:space="preserve">
<style type="text/css">
	.st0{fill:none;stroke:#B5832E;stroke-miterlimit:10;}
	.st1{fill:#D09E36;}
</style>
<path class="st0" d="M97.4,13c0.5,0.3,2.8,1.3,5.4,0.6c3.7-1.1,4.9-4.7,5-5c1.1,2.8,3.5,4.8,6.3,5.1c2.4,0.3,4.3-0.8,4.9-1.2"/>
<path class="st0" d="M97.1,17.3c1.2,0.4,3.8,1.2,6.9,0.5c1.9-0.4,3.3-1.2,4.2-1.7c1,0.6,2.9,1.6,5.4,1.9c2.1,0.2,3.8-0.1,4.9-0.3"/>
<line class="st0" x1="97.8" y1="21.9" x2="118.1" y2="21.9"/>
<g>
	<path class="st1" d="M23.6,38.9c-1.3,0-2.4-0.2-3.3-0.7c-0.9-0.5-1.6-1.1-2.1-1.9c-0.5-0.8-0.7-1.7-0.7-2.7c0-0.8,0.2-1.6,0.5-2.3
		c0.3-0.7,0.8-1.3,1.4-1.8c0.6-0.5,1.3-0.9,2-1.1c0.8-0.3,1.6-0.4,2.6-0.4c0.5,0,1,0,1.6,0.1c0.5,0.1,1,0.2,1.3,0.4
		c0.1,0,0.2,0.1,0.2,0.1c0,0.1,0,0.1,0.1,0.2l0.2,2.2c0,0,0,0-0.1,0.1c-0.1,0-0.1,0-0.1,0c-0.3-0.8-0.8-1.5-1.5-2s-1.5-0.7-2.4-0.7
		c-1.3,0-2.2,0.4-2.9,1.2c-0.7,0.8-1,1.9-1,3.3c0,1.1,0.2,2.1,0.6,3c0.4,0.9,1,1.5,1.7,2c0.7,0.5,1.5,0.7,2.4,0.7
		c0.5,0,0.9-0.1,1.1-0.2c0.3-0.1,0.5-0.3,0.6-0.6c0.1-0.3,0.2-0.7,0.2-1.3c0-0.5,0-0.9-0.1-1.2c-0.1-0.3-0.2-0.4-0.5-0.5
		c-0.2-0.1-0.6-0.1-1.2-0.1c-0.1,0-0.1,0-0.1-0.1c0-0.1,0-0.1,0.1-0.1c0.8,0,1.4,0.1,2.1,0.1c0.6,0,1.3,0,1.9,0c0.1,0,0.1,0,0.1,0.1
		s0,0.1-0.1,0.1c-0.2,0-0.4,0-0.5,0.1c-0.1,0.1-0.2,0.3-0.2,0.6s0,0.7,0,1.3c0,0.4,0,0.7,0,0.8c0,0.2,0,0.3,0.1,0.4
		c0,0.1,0,0.2,0,0.3c0,0.1,0,0.1,0,0.1c0,0-0.1,0-0.2,0.1c-0.6,0.1-1.2,0.2-1.9,0.3C24.9,38.8,24.2,38.9,23.6,38.9z"/>
	<path class="st1" d="M35.1,38.9c-0.8,0-1.6-0.1-2.2-0.4c-0.7-0.3-1.2-0.7-1.7-1.2c-0.5-0.5-0.8-1.1-1.1-1.8
		c-0.3-0.7-0.4-1.4-0.4-2.1c0-0.9,0.2-1.7,0.5-2.4c0.4-0.7,0.8-1.3,1.4-1.7s1.2-0.8,1.9-1c0.7-0.2,1.4-0.3,2.1-0.3
		c0.8,0,1.6,0.1,2.2,0.4c0.7,0.3,1.2,0.7,1.7,1.2c0.5,0.5,0.8,1.1,1.1,1.7c0.2,0.6,0.4,1.3,0.4,2c0,0.8-0.2,1.5-0.5,2.2
		c-0.3,0.7-0.7,1.3-1.3,1.8c-0.5,0.5-1.2,0.9-1.9,1.2C36.6,38.7,35.9,38.9,35.1,38.9z M35.6,38.5c0.7,0,1.3-0.2,1.8-0.5
		c0.5-0.4,1-0.9,1.3-1.6c0.3-0.7,0.5-1.6,0.5-2.6c0-1.1-0.2-2-0.5-2.8s-0.8-1.5-1.5-1.9s-1.4-0.7-2.3-0.7c-1.1,0-1.9,0.4-2.6,1.2
		c-0.6,0.8-0.9,1.9-0.9,3.3c0,0.8,0.1,1.6,0.3,2.3c0.2,0.7,0.5,1.3,0.9,1.8c0.4,0.5,0.8,0.9,1.3,1.2C34.5,38.3,35,38.5,35.6,38.5z"
		/>
	<path class="st1" d="M47.2,38.7c-0.4,0-0.8,0-1.3-0.1c-0.5,0-1-0.1-1.4-0.1c-0.4,0-0.8,0-1.1,0c-0.4,0-0.7,0-1,0c0,0,0,0,0-0.1
		c0-0.1,0-0.1,0-0.1c0.4,0,0.7,0,0.8-0.1c0.2-0.1,0.3-0.2,0.4-0.3c0.1-0.2,0.1-0.4,0.1-0.7v-7.8c0-0.3,0-0.6-0.1-0.7
		c-0.1-0.2-0.2-0.3-0.4-0.3c-0.2-0.1-0.5-0.1-0.8-0.1c0,0,0,0,0-0.1s0-0.1,0-0.1c0.3,0,0.6,0,1,0c0.4,0,0.7,0,1.1,0
		c0.4,0,0.8,0,1.3,0s0.9,0,1.2,0c1.2,0,2.2,0.2,3.1,0.7c0.9,0.5,1.6,1.1,2.1,1.8c0.5,0.8,0.7,1.7,0.7,2.6c0,0.8-0.1,1.6-0.4,2.3
		s-0.7,1.3-1.2,1.7s-1.1,0.8-1.8,1.1C48.7,38.6,48,38.7,47.2,38.7z M47.1,38.4c0.8,0,1.5-0.2,2.1-0.6s1.1-0.9,1.4-1.6
		s0.5-1.6,0.5-2.6c0-1-0.2-1.8-0.5-2.6c-0.3-0.8-0.8-1.4-1.3-1.9c-0.6-0.5-1.3-0.7-2.1-0.7c-0.7,0-1.1,0.1-1.4,0.2
		c-0.3,0.1-0.4,0.4-0.4,0.9v7.6c0,0.4,0.1,0.8,0.3,1C45.9,38.3,46.3,38.4,47.1,38.4z"/>
	<path class="st1" d="M58.7,28c1,0,1.8,0.2,2.3,0.6c0.5,0.4,0.8,0.9,0.8,1.6c0,0.4-0.1,0.8-0.3,1.2c-0.2,0.4-0.5,0.7-0.8,1
		s-0.7,0.5-1.2,0.7c-0.4,0.2-0.9,0.3-1.3,0.3c-0.1,0-0.3,0-0.4,0c-0.2,0-0.3,0-0.4,0v4c0,0.3,0,0.6,0.1,0.7c0.1,0.2,0.2,0.3,0.4,0.3
		s0.5,0.1,0.8,0.1c0,0,0.1,0,0.1,0.1c0,0.1,0,0.1-0.1,0.1c-0.3,0-0.6,0-0.9,0c-0.4,0-0.7,0-1.2,0c-0.4,0-0.8,0-1.1,0
		c-0.4,0-0.7,0-1,0c0,0-0.1,0-0.1-0.1c0-0.1,0-0.1,0.1-0.1c0.4,0,0.6,0,0.8-0.1s0.3-0.2,0.4-0.3c0.1-0.2,0.1-0.4,0.1-0.7v-7.8
		c0-0.3,0-0.6-0.1-0.7c-0.1-0.2-0.2-0.3-0.4-0.3c-0.2-0.1-0.5-0.1-0.8-0.1c0,0,0,0,0-0.1s0-0.1,0-0.1c0.3,0,0.6,0,1,0
		c0.4,0,0.7,0,1.1,0c0.3,0,0.7,0,1.1-0.1C58,28,58.4,28,58.7,28z M60.2,30.8c0-0.6-0.1-1.1-0.2-1.5c-0.2-0.4-0.4-0.6-0.6-0.7
		c-0.3-0.1-0.6-0.2-0.9-0.2c-0.3,0-0.5,0-0.6,0.1s-0.3,0.2-0.3,0.3c-0.1,0.2-0.1,0.4-0.1,0.7v3.4c0.2,0,0.3,0,0.5,0.1
		c0.2,0,0.3,0,0.5,0c0.7,0,1.1-0.2,1.4-0.5C60,32.2,60.2,31.6,60.2,30.8z M62.8,38.7c-0.2,0-0.5-0.2-0.8-0.7s-0.9-1.1-1.4-1.9
		s-1.2-1.8-1.9-3l1.4-0.4c0.9,1.4,1.7,2.6,2.3,3.4c0.6,0.8,1.2,1.5,1.7,1.8c0.5,0.4,1,0.6,1.4,0.6c0,0,0,0,0,0.1c0,0.1,0,0.1,0,0.1
		c-0.7,0-1.3,0-1.7,0S63,38.7,62.8,38.7z"/>
	<path class="st1" d="M73.5,38.7h-7.4c0,0-0.1,0-0.1-0.1c0-0.1,0-0.1,0.1-0.1c0.4,0,0.6,0,0.8-0.1s0.3-0.2,0.4-0.3s0.1-0.4,0.1-0.7
		v-7.8c0-0.3,0-0.6-0.1-0.7c-0.1-0.2-0.2-0.3-0.4-0.3s-0.5-0.1-0.8-0.1c0,0-0.1,0-0.1-0.1s0-0.1,0.1-0.1h7c0.1,0,0.2,0.1,0.2,0.2
		l0,2.2c0,0,0,0-0.1,0c-0.1,0-0.1,0-0.1,0c-0.1-0.6-0.4-1.1-0.8-1.4c-0.4-0.3-0.9-0.5-1.6-0.5h-0.7c-0.3,0-0.5,0-0.7,0.1
		c-0.2,0.1-0.3,0.2-0.3,0.3C69,29.1,69,29.3,69,29.5v7.7c0,0.2,0,0.4,0.1,0.6c0.1,0.2,0.2,0.3,0.3,0.3c0.1,0.1,0.3,0.1,0.6,0.1h0.8
		c0.8,0,1.4-0.2,1.9-0.6c0.5-0.4,0.8-0.9,1-1.6c0,0,0,0,0.1,0c0.1,0,0.1,0,0.1,0.1c0,0.3-0.1,0.7-0.1,1.1c0,0.4-0.1,0.8-0.1,1.2
		C73.7,38.6,73.6,38.7,73.5,38.7z M72.5,34.8c0-0.5-0.2-0.8-0.5-1.1c-0.3-0.2-0.8-0.4-1.4-0.4h-2.4v-0.4h2.4c0.6,0,1.1-0.1,1.4-0.3
		c0.3-0.2,0.5-0.5,0.5-0.9c0,0,0-0.1,0.1-0.1s0.1,0,0.1,0.1c0,0.4,0,0.6,0,0.8c0,0.2,0,0.4,0,0.6c0,0.3,0,0.5,0,0.8
		c0,0.3,0,0.6,0,0.9c0,0,0,0-0.1,0C72.5,34.9,72.5,34.9,72.5,34.8z"/>
	<path class="st1" d="M78.4,37.5c0,0.8-0.1,1.5-0.2,2.1c-0.1,0.6-0.3,1.1-0.5,1.5c-0.2,0.4-0.6,0.7-1,1s-0.9,0.6-1.5,0.8
		c0,0-0.1,0-0.1-0.1c0-0.1,0-0.1,0-0.1c0.6-0.4,1.1-1,1.3-1.8c0.2-0.8,0.3-1.8,0.3-2.9v-8.5c0-0.3,0-0.6-0.1-0.7
		c-0.1-0.2-0.2-0.3-0.4-0.3c-0.2-0.1-0.5-0.1-0.8-0.1c0,0,0,0,0-0.1s0-0.1,0-0.1c0.3,0,0.6,0,1,0c0.3,0,0.7,0,1.1,0
		c0.4,0,0.7,0,1.1,0c0.3,0,0.6,0,0.9,0c0,0,0,0,0,0.1s0,0.1,0,0.1c-0.5,0-0.8,0.1-0.9,0.2s-0.2,0.5-0.2,1V37.5z"/>
	<path class="st1" d="M89.2,28c1,0,1.8,0.2,2.3,0.6c0.5,0.4,0.8,0.9,0.8,1.6c0,0.4-0.1,0.8-0.3,1.2c-0.2,0.4-0.5,0.7-0.8,1
		s-0.7,0.5-1.2,0.7c-0.4,0.2-0.9,0.3-1.3,0.3c-0.1,0-0.3,0-0.4,0c-0.2,0-0.3,0-0.4,0v4c0,0.3,0,0.6,0.1,0.7c0.1,0.2,0.2,0.3,0.4,0.3
		s0.5,0.1,0.8,0.1c0,0,0.1,0,0.1,0.1c0,0.1,0,0.1-0.1,0.1c-0.3,0-0.6,0-0.9,0c-0.4,0-0.7,0-1.2,0c-0.4,0-0.8,0-1.1,0
		c-0.4,0-0.7,0-1,0c0,0-0.1,0-0.1-0.1c0-0.1,0-0.1,0.1-0.1c0.4,0,0.6,0,0.8-0.1s0.3-0.2,0.4-0.3c0.1-0.2,0.1-0.4,0.1-0.7v-7.8
		c0-0.3,0-0.6-0.1-0.7c-0.1-0.2-0.2-0.3-0.4-0.3c-0.2-0.1-0.5-0.1-0.8-0.1c0,0,0,0,0-0.1s0-0.1,0-0.1c0.3,0,0.6,0,1,0
		c0.4,0,0.7,0,1.1,0c0.3,0,0.7,0,1.1-0.1C88.5,28,88.9,28,89.2,28z M90.7,30.8c0-0.6-0.1-1.1-0.2-1.5c-0.2-0.4-0.4-0.6-0.6-0.7
		c-0.3-0.1-0.6-0.2-0.9-0.2c-0.3,0-0.5,0-0.6,0.1S88,28.6,88,28.8c-0.1,0.2-0.1,0.4-0.1,0.7v3.4c0.2,0,0.3,0,0.5,0.1
		c0.2,0,0.3,0,0.5,0c0.7,0,1.1-0.2,1.4-0.5C90.5,32.2,90.7,31.6,90.7,30.8z M93.3,38.7c-0.2,0-0.5-0.2-0.8-0.7s-0.9-1.1-1.4-1.9
		s-1.2-1.8-1.9-3l1.4-0.4c0.9,1.4,1.7,2.6,2.3,3.4c0.6,0.8,1.2,1.5,1.7,1.8c0.5,0.4,1,0.6,1.4,0.6c0,0,0,0,0,0.1c0,0.1,0,0.1,0,0.1
		c-0.7,0-1.3,0-1.7,0S93.5,38.7,93.3,38.7z"/>
	<path class="st1" d="M99.6,37.3c0,0.3,0,0.6,0.1,0.7s0.2,0.3,0.4,0.3c0.2,0.1,0.5,0.1,0.8,0.1c0,0,0.1,0,0.1,0.1
		c0,0.1,0,0.1-0.1,0.1c-0.3,0-0.6,0-1,0c-0.4,0-0.7,0-1.2,0c-0.4,0-0.8,0-1.1,0c-0.4,0-0.7,0-1,0c0,0-0.1,0-0.1-0.1
		c0-0.1,0-0.1,0.1-0.1c0.4,0,0.6,0,0.8-0.1c0.2-0.1,0.3-0.2,0.4-0.3s0.1-0.4,0.1-0.7v-7.8c0-0.3,0-0.6-0.1-0.7
		c-0.1-0.2-0.2-0.3-0.4-0.3c-0.2-0.1-0.5-0.1-0.8-0.1c0,0-0.1,0-0.1-0.1s0-0.1,0.1-0.1c0.3,0,0.6,0,1,0c0.4,0,0.7,0,1.1,0
		c0.4,0,0.8,0,1.2,0c0.4,0,0.7,0,1,0c0,0,0.1,0,0.1,0.1s0,0.1-0.1,0.1c-0.4,0-0.6,0-0.8,0.1s-0.3,0.2-0.4,0.4
		c-0.1,0.2-0.1,0.4-0.1,0.7V37.3z"/>
	<path class="st1" d="M112.9,28.1c0,0,0.1,0,0.1,0.1s0,0.1-0.1,0.1c-0.4,0-0.8,0.2-1.1,0.5c-0.3,0.3-0.6,0.7-0.8,1.3l-3.3,8.6
		c0,0-0.1,0.1-0.2,0.1s-0.2,0-0.2-0.1l-4.3-9.2c-0.2-0.4-0.4-0.7-0.6-0.9c-0.2-0.2-0.5-0.3-0.7-0.3c0,0-0.1,0-0.1-0.1s0-0.1,0.1-0.1
		c0.1,0,0.3,0,0.4,0c0.1,0,0.2,0,0.4,0c0.1,0,0.3,0,0.6,0c0.5,0,1,0,1.3,0c0.3,0,0.6,0,0.9,0c0.2,0,0.4,0,0.6,0c0,0,0.1,0,0.1,0.1
		s0,0.1-0.1,0.1c-0.5,0-0.8,0.1-1,0.4s-0.1,0.6,0.1,1l3.3,7.1l-0.7,1.2l3.1-7.9c0.2-0.5,0.2-0.9,0-1.2c-0.2-0.3-0.5-0.5-1.1-0.5
		c0,0-0.1,0-0.1-0.1s0-0.1,0.1-0.1c0.3,0,0.6,0,0.9,0c0.3,0,0.7,0,1.1,0c0.3,0,0.6,0,0.8,0C112.4,28.1,112.6,28.1,112.9,28.1z"/>
	<path class="st1" d="M120.9,38.7h-7.4c0,0-0.1,0-0.1-0.1c0-0.1,0-0.1,0.1-0.1c0.4,0,0.6,0,0.8-0.1s0.3-0.2,0.4-0.3
		c0.1-0.2,0.1-0.4,0.1-0.7v-7.8c0-0.3,0-0.6-0.1-0.7c-0.1-0.2-0.2-0.3-0.4-0.3s-0.5-0.1-0.8-0.1c0,0-0.1,0-0.1-0.1s0-0.1,0.1-0.1h7
		c0.1,0,0.2,0.1,0.2,0.2l0,2.2c0,0,0,0-0.1,0c-0.1,0-0.1,0-0.1,0c-0.1-0.6-0.4-1.1-0.8-1.4c-0.4-0.3-0.9-0.5-1.6-0.5h-0.7
		c-0.3,0-0.5,0-0.7,0.1c-0.2,0.1-0.3,0.2-0.3,0.3c-0.1,0.1-0.1,0.3-0.1,0.6v7.7c0,0.2,0,0.4,0.1,0.6c0.1,0.2,0.2,0.3,0.3,0.3
		c0.1,0.1,0.3,0.1,0.6,0.1h0.8c0.8,0,1.4-0.2,1.9-0.6s0.8-0.9,1-1.6c0,0,0,0,0.1,0c0.1,0,0.1,0,0.1,0.1c0,0.3-0.1,0.7-0.1,1.1
		c0,0.4-0.1,0.8-0.1,1.2C121.2,38.6,121.1,38.7,120.9,38.7z M120,34.8c0-0.5-0.2-0.8-0.5-1.1c-0.3-0.2-0.8-0.4-1.4-0.4h-2.4v-0.4
		h2.4c0.6,0,1.1-0.1,1.4-0.3c0.3-0.2,0.5-0.5,0.5-0.9c0,0,0-0.1,0.1-0.1c0.1,0,0.1,0,0.1,0.1c0,0.4,0,0.6,0,0.8c0,0.2,0,0.4,0,0.6
		c0,0.3,0,0.5,0,0.8c0,0.3,0,0.6,0,0.9c0,0,0,0-0.1,0C120,34.9,120,34.9,120,34.8z"/>
	<path class="st1" d="M127.1,28c1,0,1.8,0.2,2.3,0.6s0.8,0.9,0.8,1.6c0,0.4-0.1,0.8-0.3,1.2c-0.2,0.4-0.5,0.7-0.8,1
		s-0.7,0.5-1.2,0.7c-0.4,0.2-0.9,0.3-1.3,0.3c-0.1,0-0.3,0-0.4,0s-0.3,0-0.4,0v4c0,0.3,0,0.6,0.1,0.7s0.2,0.3,0.4,0.3
		c0.2,0.1,0.5,0.1,0.8,0.1c0,0,0.1,0,0.1,0.1c0,0.1,0,0.1-0.1,0.1c-0.3,0-0.6,0-0.9,0c-0.3,0-0.7,0-1.2,0c-0.4,0-0.8,0-1.1,0
		c-0.4,0-0.7,0-1,0c0,0-0.1,0-0.1-0.1c0-0.1,0-0.1,0.1-0.1c0.4,0,0.6,0,0.8-0.1s0.3-0.2,0.4-0.3c0.1-0.2,0.1-0.4,0.1-0.7v-7.8
		c0-0.3,0-0.6-0.1-0.7c-0.1-0.2-0.2-0.3-0.4-0.3s-0.5-0.1-0.8-0.1c0,0,0,0,0-0.1s0-0.1,0-0.1c0.3,0,0.6,0,1,0c0.4,0,0.7,0,1.1,0
		c0.3,0,0.7,0,1.1-0.1C126.4,28,126.8,28,127.1,28z M128.6,30.8c0-0.6-0.1-1.1-0.2-1.5s-0.4-0.6-0.6-0.7c-0.3-0.1-0.6-0.2-0.9-0.2
		c-0.3,0-0.5,0-0.6,0.1s-0.3,0.2-0.3,0.3c-0.1,0.2-0.1,0.4-0.1,0.7v3.4c0.2,0,0.3,0,0.5,0.1c0.2,0,0.3,0,0.5,0
		c0.7,0,1.1-0.2,1.4-0.5C128.4,32.2,128.6,31.6,128.6,30.8z M131.2,38.7c-0.2,0-0.5-0.2-0.8-0.7c-0.4-0.4-0.9-1.1-1.4-1.9
		c-0.6-0.8-1.2-1.8-1.9-3l1.4-0.4c0.9,1.4,1.7,2.6,2.3,3.4c0.6,0.8,1.2,1.5,1.7,1.8s1,0.6,1.4,0.6c0,0,0,0,0,0.1c0,0.1,0,0.1,0,0.1
		c-0.7,0-1.3,0-1.7,0S131.4,38.7,131.2,38.7z"/>
	<path class="st1" d="M142.8,28c1,0,1.8,0.2,2.3,0.6s0.8,0.9,0.8,1.6c0,0.4-0.1,0.8-0.3,1.2c-0.2,0.4-0.5,0.7-0.8,1
		s-0.7,0.5-1.2,0.7c-0.4,0.2-0.9,0.3-1.3,0.3c-0.1,0-0.3,0-0.4,0s-0.3,0-0.4,0v4c0,0.3,0,0.6,0.1,0.7s0.2,0.3,0.4,0.3
		c0.2,0.1,0.5,0.1,0.8,0.1c0,0,0.1,0,0.1,0.1c0,0.1,0,0.1-0.1,0.1c-0.3,0-0.6,0-0.9,0c-0.3,0-0.7,0-1.2,0c-0.4,0-0.8,0-1.1,0
		c-0.4,0-0.7,0-1,0c0,0-0.1,0-0.1-0.1c0-0.1,0-0.1,0.1-0.1c0.4,0,0.6,0,0.8-0.1s0.3-0.2,0.4-0.3c0.1-0.2,0.1-0.4,0.1-0.7v-7.8
		c0-0.3,0-0.6-0.1-0.7c-0.1-0.2-0.2-0.3-0.4-0.3s-0.5-0.1-0.8-0.1c0,0,0,0,0-0.1s0-0.1,0-0.1c0.3,0,0.6,0,1,0c0.4,0,0.7,0,1.1,0
		c0.3,0,0.7,0,1.1-0.1C142,28,142.4,28,142.8,28z M144.2,30.8c0-0.6-0.1-1.1-0.2-1.5s-0.4-0.6-0.6-0.7c-0.3-0.1-0.6-0.2-0.9-0.2
		c-0.3,0-0.5,0-0.6,0.1s-0.3,0.2-0.3,0.3c-0.1,0.2-0.1,0.4-0.1,0.7v3.4c0.2,0,0.3,0,0.5,0.1c0.2,0,0.3,0,0.5,0
		c0.7,0,1.1-0.2,1.4-0.5C144.1,32.2,144.2,31.6,144.2,30.8z M146.9,38.7c-0.2,0-0.5-0.2-0.8-0.7c-0.4-0.4-0.9-1.1-1.4-1.9
		c-0.6-0.8-1.2-1.8-1.9-3l1.4-0.4c0.9,1.4,1.7,2.6,2.3,3.4c0.6,0.8,1.2,1.5,1.7,1.8s1,0.6,1.4,0.6c0,0,0,0,0,0.1c0,0.1,0,0.1,0,0.1
		c-0.7,0-1.3,0-1.7,0S147.1,38.7,146.9,38.7z"/>
	<path class="st1" d="M154.8,38.9c-0.8,0-1.6-0.1-2.2-0.4c-0.7-0.3-1.2-0.7-1.7-1.2c-0.5-0.5-0.8-1.1-1.1-1.8
		c-0.3-0.7-0.4-1.4-0.4-2.1c0-0.9,0.2-1.7,0.5-2.4c0.4-0.7,0.8-1.3,1.4-1.7c0.6-0.5,1.2-0.8,1.9-1c0.7-0.2,1.4-0.3,2.1-0.3
		c0.8,0,1.6,0.1,2.2,0.4c0.7,0.3,1.2,0.7,1.7,1.2c0.5,0.5,0.8,1.1,1.1,1.7c0.2,0.6,0.4,1.3,0.4,2c0,0.8-0.2,1.5-0.5,2.2
		c-0.3,0.7-0.7,1.3-1.3,1.8c-0.5,0.5-1.2,0.9-1.9,1.2C156.4,38.7,155.6,38.9,154.8,38.9z M155.4,38.5c0.7,0,1.3-0.2,1.8-0.5
		c0.5-0.4,1-0.9,1.3-1.6s0.5-1.6,0.5-2.6c0-1.1-0.2-2-0.5-2.8s-0.8-1.5-1.5-1.9c-0.6-0.5-1.4-0.7-2.3-0.7c-1.1,0-1.9,0.4-2.6,1.2
		c-0.6,0.8-0.9,1.9-0.9,3.3c0,0.8,0.1,1.6,0.3,2.3c0.2,0.7,0.5,1.3,0.9,1.8c0.4,0.5,0.8,0.9,1.3,1.2
		C154.2,38.3,154.8,38.5,155.4,38.5z"/>
	<path class="st1" d="M165.8,34l-2.7-4.2c-0.4-0.6-0.7-1-1-1.3c-0.3-0.2-0.5-0.3-0.8-0.3c0,0-0.1,0-0.1-0.1s0-0.1,0.1-0.1
		c0.2,0,0.4,0,0.6,0c0.2,0,0.4,0,0.5,0c0.3,0,0.6,0,1,0c0.3,0,0.6,0,0.9,0c0.3,0,0.6,0,0.8,0c0,0,0,0,0,0.1s0,0.1,0,0.1
		c-0.4,0-0.6,0.1-0.7,0.3c-0.1,0.2,0,0.4,0.2,0.7l2.6,4L165.8,34z M165.7,33.4l1.6-0.2v4c0,0.3,0,0.6,0.1,0.7s0.2,0.3,0.4,0.3
		c0.2,0.1,0.5,0.1,0.8,0.1c0,0,0.1,0,0.1,0.1c0,0.1,0,0.1-0.1,0.1c-0.3,0-0.6,0-0.9,0c-0.3,0-0.7,0-1.1,0c-0.4,0-0.8,0-1.1,0
		c-0.4,0-0.7,0-1,0c0,0,0,0,0-0.1c0-0.1,0-0.1,0-0.1c0.4,0,0.7,0,0.8-0.1c0.2-0.1,0.3-0.2,0.4-0.3s0.1-0.4,0.1-0.7V33.4z
		 M166.5,33.9l2.2-3.7c0.4-0.6,0.5-1.1,0.4-1.4c-0.1-0.4-0.4-0.5-0.9-0.5c0,0,0,0,0-0.1s0-0.1,0-0.1c0.3,0,0.7,0,1,0
		c0.3,0,0.7,0,1.2,0c0.3,0,0.5,0,0.7,0c0.2,0,0.4,0,0.6,0c0,0,0,0,0,0.1s0,0.1,0,0.1c-0.2,0-0.5,0.1-0.8,0.3
		c-0.3,0.2-0.6,0.4-0.9,0.7c-0.3,0.3-0.6,0.7-0.8,1.1l-2.4,3.8L166.5,33.9z"/>
	<path class="st1" d="M182.8,38.5c0,0,0.1,0,0.1,0.1c0,0.1,0,0.1-0.1,0.1c-0.3,0-0.7,0-1,0c-0.4,0-0.7,0-1,0c-0.4,0-0.7,0-1,0
		c-0.3,0-0.6,0-0.9,0c0,0-0.1,0-0.1-0.1c0-0.1,0-0.1,0.1-0.1c0.5,0,0.8-0.1,0.9-0.3s0-0.5-0.3-1.1l-3.5-7.2l0.7-1.1l-3.4,7.6
		c-0.3,0.7-0.3,1.2,0,1.6c0.3,0.4,0.7,0.5,1.4,0.5c0.1,0,0.1,0,0.1,0.1c0,0.1,0,0.1-0.1,0.1c-0.3,0-0.7,0-0.9,0c-0.3,0-0.6,0-1.1,0
		s-0.8,0-1,0c-0.3,0-0.6,0-0.9,0c0,0-0.1,0-0.1-0.1c0-0.1,0-0.1,0.1-0.1c0.3,0,0.6-0.1,0.8-0.2c0.2-0.1,0.4-0.4,0.7-0.7
		c0.2-0.3,0.5-0.8,0.7-1.4l3.6-8.2c0,0,0.1-0.1,0.2-0.1c0.1,0,0.1,0,0.1,0.1l4.2,8.4c0.3,0.5,0.5,1,0.7,1.3s0.4,0.5,0.6,0.7
		S182.6,38.5,182.8,38.5z M174.4,33.4l0.3-0.4h3.5l0.1,0.4H174.4z"/>
	<path class="st1" d="M186.2,29.5v7.8c0,0.3,0,0.5,0.1,0.6c0.1,0.1,0.2,0.2,0.3,0.3c0.2,0,0.4,0.1,0.7,0.1h1c0.8,0,1.5-0.2,2-0.7
		c0.6-0.5,0.9-1.1,1.1-1.8c0,0,0,0,0.1,0c0.1,0,0.1,0,0.1,0.1c0,0.4-0.1,0.8-0.1,1.3s-0.1,0.9-0.1,1.4c0,0.2-0.1,0.3-0.3,0.3h-7.9
		c0,0,0,0,0-0.1c0-0.1,0-0.1,0-0.1c0.4,0,0.6,0,0.8-0.1s0.3-0.2,0.4-0.3c0.1-0.2,0.1-0.4,0.1-0.7v-7.8c0-0.3,0-0.6-0.1-0.7
		c-0.1-0.2-0.2-0.3-0.4-0.3s-0.5-0.1-0.8-0.1c0,0,0,0,0-0.1s0-0.1,0-0.1c0.3,0,0.6,0,0.9,0c0.4,0,0.7,0,1.1,0c0.4,0,0.8,0,1.2,0
		c0.4,0,0.7,0,0.9,0c0,0,0.1,0,0.1,0.1s0,0.1-0.1,0.1c-0.4,0-0.6,0-0.8,0.1c-0.2,0.1-0.3,0.2-0.4,0.3
		C186.3,28.9,186.2,29.1,186.2,29.5z"/>
	<path class="st1" d="M200,38.7h-7.4c0,0-0.1,0-0.1-0.1c0-0.1,0-0.1,0.1-0.1c0.4,0,0.6,0,0.8-0.1s0.3-0.2,0.4-0.3
		c0.1-0.2,0.1-0.4,0.1-0.7v-7.8c0-0.3,0-0.6-0.1-0.7c-0.1-0.2-0.2-0.3-0.4-0.3s-0.5-0.1-0.8-0.1c0,0-0.1,0-0.1-0.1s0-0.1,0.1-0.1h7
		c0.1,0,0.2,0.1,0.2,0.2l0,2.2c0,0,0,0-0.1,0c-0.1,0-0.1,0-0.1,0c-0.1-0.6-0.4-1.1-0.8-1.4c-0.4-0.3-0.9-0.5-1.6-0.5h-0.7
		c-0.3,0-0.5,0-0.7,0.1c-0.2,0.1-0.3,0.2-0.3,0.3c-0.1,0.1-0.1,0.3-0.1,0.6v7.7c0,0.2,0,0.4,0.1,0.6c0.1,0.2,0.2,0.3,0.3,0.3
		c0.1,0.1,0.3,0.1,0.6,0.1h0.8c0.8,0,1.4-0.2,1.9-0.6s0.8-0.9,1-1.6c0,0,0,0,0.1,0c0.1,0,0.1,0,0.1,0.1c0,0.3-0.1,0.7-0.1,1.1
		c0,0.4-0.1,0.8-0.1,1.2C200.3,38.6,200.2,38.7,200,38.7z M199.1,34.8c0-0.5-0.2-0.8-0.5-1.1c-0.3-0.2-0.8-0.4-1.4-0.4h-2.4v-0.4
		h2.4c0.6,0,1.1-0.1,1.4-0.3c0.3-0.2,0.5-0.5,0.5-0.9c0,0,0-0.1,0.1-0.1c0.1,0,0.1,0,0.1,0.1c0,0.4,0,0.6,0,0.8c0,0.2,0,0.4,0,0.6
		c0,0.3,0,0.5,0,0.8c0,0.3,0,0.6,0,0.9c0,0,0,0-0.1,0C199.1,34.9,199.1,34.9,199.1,34.8z"/>
</g>
<g>
	<path d="M56.9,46.3c-0.1,0.4-0.4,0.6-0.9,0.7c0.2,0,0.3,0.1,0.5,0.1c0.5,0.2,0.8,0.5,0.8,1.1c0,0.3-0.1,0.5-0.2,0.7
		c-0.3,0.4-0.8,0.6-1.5,0.6H53v-0.2h0.6v-4.2H53v-0.2h2.4c0.3,0,0.6,0,0.8,0.1c0.5,0.2,0.7,0.5,0.7,0.9C57,46.1,57,46.2,56.9,46.3z
		 M54.6,45.1V47h0.5c0.1,0,0.3,0,0.4-0.1c0.3-0.1,0.5-0.4,0.5-0.8c0-0.6-0.3-0.9-0.9-0.9H54.6z M54.6,47.2v2.2h0.6
		c0.2,0,0.3,0,0.5-0.1c0.4-0.2,0.5-0.5,0.5-1.1c0-0.2,0-0.3-0.1-0.5c-0.1-0.4-0.4-0.6-0.9-0.6H54.6z"/>
	<path d="M60.6,49.6v-0.2h0.5l-0.6-1.5h-1.6l-0.6,1.5h0.4c0,0,0.1,0,0.1,0c0.1,0,0.1,0.1,0.1,0.2h-1.4v-0.2h0.5l1.7-4.5h0.5l1.8,4.5
		h0.2c0,0,0.1,0,0.1,0c0.1,0,0.1,0.1,0.1,0.2H60.6z M59.7,45.8L59,47.7h1.4L59.7,45.8z"/>
	<path d="M66,44.9h1.6v0.2H67v4.4l-0.4,0.1l-3-3.6v3.3H64c0.1,0,0.2,0.1,0.2,0.2h-1.6v-0.2h0.6v-4.2h-0.6v-0.2h1.2l2.8,3.4v-3.2H66
		V44.9z"/>
	<path d="M71.5,46.4l-0.1-0.5c0-0.1,0-0.1-0.1-0.1c-0.2-0.4-0.4-0.6-0.8-0.6h-1v1.9H71v0.2h-1.5v2.1h1c0.1,0,0.2,0,0.3,0
		c0.3-0.1,0.5-0.3,0.6-0.7l0.2-0.5h0.2l0,1.5h-3.8v-0.2h0.6v-4.2h-0.6v-0.2h3.8l0,1.5H71.5z"/>
	<path d="M72.3,49.6v-0.2h0.6v-4.2h-0.6v-0.2h2.5c0.4,0,0.8,0.1,1,0.3c0.3,0.2,0.5,0.5,0.5,0.9c0,0.1,0,0.3-0.1,0.4
		c-0.1,0.4-0.5,0.7-1,0.8l1.2,2h0.2c0,0,0.1,0,0.1,0c0.1,0,0.1,0.1,0.1,0.2l-1.3,0l-1.2-2.1h-0.5v1.9h0.6v0.2H72.3z M73.8,45.1v2.1
		h0.6c0.2,0,0.3,0,0.5-0.1c0.3-0.2,0.4-0.5,0.4-0.9c0-0.2,0-0.3-0.1-0.5c-0.1-0.4-0.4-0.6-0.8-0.6H73.8z"/>
	<path d="M77.2,47.8h1.6v0.3h-1.6V47.8z"/>
	<path d="M79.5,49.6v-0.2h0.6v-4.2h-0.6v-0.2h2.2v0.2H81v1.9h2.1v-1.9h-0.6v-0.2h2.2v0.2h-0.6v4.2h0.4c0.1,0,0.2,0.1,0.2,0.2h-2.2
		v-0.2h0.6v-2.1H81v2.1h0.4c0.1,0,0.2,0.1,0.2,0.2H79.5z"/>
	<path d="M85.1,49.6v-0.2h0.6v-4.2h-0.6v-0.2h2.2v0.2h-0.6v4.2h0.4c0.1,0,0.2,0.1,0.2,0.2H85.1z"/>
	<path d="M91.1,44.9h1.6v0.2H92v4.4l-0.4,0.1l-3-3.6v3.3H89c0.1,0,0.2,0.1,0.2,0.2h-1.6v-0.2h0.6v-4.2h-0.6v-0.2h1.2l2.8,3.4v-3.2
		h-0.6V44.9z"/>
	<path d="M95,45.1v3c0,0.4-0.1,0.7-0.2,1c-0.2,0.4-0.7,0.7-1.3,0.7c-0.3,0-0.5,0-0.7-0.1c-0.3-0.1-0.4-0.3-0.4-0.5c0,0,0-0.1,0-0.1
		c0.1-0.2,0.2-0.3,0.4-0.3c0.1,0,0.2,0,0.3,0.1c0.1,0.1,0.2,0.2,0.2,0.4c0,0.1,0,0.1,0,0.1c0,0.2,0.1,0.3,0.3,0.3
		c0.1,0,0.2,0,0.2-0.1c0.1-0.1,0.2-0.6,0.2-1.3v-3h-0.7v-0.2h2.2v0.2H95z"/>
	<path d="M99.6,46.4l-0.1-0.5c0-0.1,0-0.1-0.1-0.1c-0.2-0.4-0.4-0.6-0.8-0.6h-1v1.9h1.5v0.2h-1.5v2.1h1c0.1,0,0.2,0,0.3,0
		c0.3-0.1,0.5-0.3,0.6-0.7l0.2-0.5h0.2l0,1.5H96v-0.2h0.6v-4.2H96v-0.2h3.8l0,1.5H99.6z"/>
	<path d="M105,49.6c-0.1,0-0.1,0-0.2,0c-0.1,0-0.2-0.2-0.3-0.5l-0.8-2.2l-1,2.8h-0.1c-0.1,0-0.1,0-0.2,0c-0.1,0-0.2-0.2-0.3-0.5
		l-1.5-3.9h-0.4v-0.2h2v0.2h-0.6l1.3,3.5l0.8-2.2l-0.6-1.5h1.6v0.2l-0.6,0l1.2,3.4l1.1-3.4h-0.6v-0.2h1.3v0.2h-0.4l-1.5,4.5H105z"/>
	<path d="M110,49.6v-0.2h0.5l-0.6-1.5h-1.6l-0.6,1.5h0.4c0,0,0.1,0,0.1,0c0.1,0,0.1,0.1,0.1,0.2H107v-0.2h0.5l1.7-4.5h0.5l1.8,4.5
		h0.2c0,0,0.1,0,0.1,0c0.1,0,0.1,0.1,0.1,0.2H110z M109.1,45.8l-0.7,1.8h1.4L109.1,45.8z"/>
	<path d="M114.4,44.9c0.6,0,1.1,0.1,1.5,0.4c0.6,0.4,1,1.1,1,1.9c0,0.7-0.2,1.2-0.7,1.7c-0.5,0.4-1,0.7-1.8,0.7h-2.3v-0.2h0.6v-4.2
		h-0.6v-0.2H114.4z M113.7,45.1v4.2h0.7c0.2,0,0.3,0,0.5-0.1c0.6-0.2,0.9-0.9,0.9-2.1c0-0.5,0-0.9-0.1-1.2c-0.2-0.6-0.6-0.9-1.2-0.9
		H113.7z"/>
	<path d="M117.4,49.6v-0.2h0.6v-4.2h-0.6v-0.2h2.2v0.2h-0.6v4.2h0.4c0.1,0,0.2,0.1,0.2,0.2H117.4z"/>
	<path d="M121.5,49.6v-0.2h0.6v-4.2h-0.6v-0.2h2.5c0.4,0,0.8,0.1,1,0.3c0.3,0.2,0.5,0.5,0.5,0.9c0,0.1,0,0.3-0.1,0.4
		c-0.1,0.4-0.5,0.7-1,0.8l1.2,2h0.2c0,0,0.1,0,0.1,0c0.1,0,0.1,0.1,0.1,0.2l-1.3,0l-1.2-2.1h-0.5v1.9h0.6v0.2H121.5z M123.1,45.1
		v2.1h0.6c0.2,0,0.3,0,0.5-0.1c0.3-0.2,0.4-0.5,0.4-0.9c0-0.2,0-0.3-0.1-0.5c-0.1-0.4-0.4-0.6-0.8-0.6H123.1z"/>
	<path d="M130.3,45.3c0.6,0.4,0.9,1.1,0.9,1.9c0,0.7-0.2,1.3-0.7,1.8c-0.5,0.4-1,0.6-1.7,0.6c-0.6,0-1.1-0.2-1.5-0.5
		c-0.6-0.5-0.9-1.1-0.9-1.9c0-0.7,0.2-1.3,0.7-1.7c0.5-0.4,1-0.6,1.7-0.6C129.4,44.9,129.9,45,130.3,45.3z M129.1,49.4
		c0.6-0.2,1-0.9,1-2.2c0-0.3,0-0.6-0.1-0.9c-0.2-0.8-0.6-1.3-1.3-1.3c0,0-0.1,0-0.1,0c-0.8,0.1-1.2,0.8-1.2,2.2c0,0.5,0,0.8,0.1,1.2
		c0.2,0.7,0.6,1,1.2,1C128.9,49.5,129,49.4,129.1,49.4z"/>
	<path d="M134.5,49.6v-0.2h0.5l-0.6-1.5h-1.6l-0.6,1.5h0.4c0,0,0.1,0,0.1,0c0.1,0,0.1,0.1,0.1,0.2h-1.4v-0.2h0.5l1.7-4.5h0.5
		l1.8,4.5h0.2c0,0,0.1,0,0.1,0c0.1,0,0.1,0.1,0.1,0.2H134.5z M133.7,45.8l-0.7,1.8h1.4L133.7,45.8z"/>
	<path d="M138.9,44.9c0.6,0,1.1,0.1,1.5,0.4c0.6,0.4,1,1.1,1,1.9c0,0.7-0.2,1.2-0.7,1.7c-0.5,0.4-1,0.7-1.8,0.7h-2.3v-0.2h0.6v-4.2
		h-0.6v-0.2H138.9z M138.2,45.1v4.2h0.7c0.2,0,0.3,0,0.5-0.1c0.6-0.2,0.9-0.9,0.9-2.1c0-0.5,0-0.9-0.1-1.2c-0.2-0.6-0.6-0.9-1.2-0.9
		H138.2z"/>
	<path d="M144.5,49.4c0,0.4-0.2,0.8-0.6,1.1l-0.2-0.1c0.2-0.2,0.3-0.4,0.3-0.6c0-0.1-0.1-0.1-0.2-0.2c0,0-0.1,0-0.1,0
		c-0.2-0.1-0.3-0.2-0.3-0.4c0-0.1,0-0.1,0-0.2c0.1-0.2,0.2-0.3,0.4-0.3c0.1,0,0.1,0,0.2,0c0.2,0.1,0.3,0.3,0.3,0.6
		C144.5,49.3,144.5,49.3,144.5,49.4z"/>
	<path d="M146.4,49.6v-0.2h0.6v-4.2h-0.6v-0.2h2.5c0.3,0,0.6,0.1,0.9,0.2c0.4,0.2,0.7,0.6,0.7,1.1c0,0.2,0,0.4-0.1,0.6
		c-0.2,0.5-0.8,0.8-1.7,0.8H148v1.8h0.6c0.1,0,0.2,0.1,0.2,0.2H146.4z M148,45.1v2.2h0.5c0,0,0.1,0,0.1,0c0.6,0,0.8-0.4,0.8-1.1
		c0-0.1,0-0.1,0-0.2c-0.1-0.6-0.3-0.9-0.9-0.9H148z"/>
	<path d="M150.6,44.9h2.2v0.2h-0.6v2.7c0,0.3,0,0.5,0.1,0.7c0.1,0.6,0.5,0.9,1.1,0.9c0.8,0,1.3-0.5,1.3-1.6v-2.7H154v-0.2h1.5v0.2
		h-0.6v2.6c0,0.4,0,0.7-0.1,0.9c-0.2,0.7-0.7,1-1.6,1c-1.3,0-1.9-0.6-1.9-1.8v-2.7h-0.6V44.9z"/>
	<path d="M159.1,44.9h1.6v0.2H160v4.4l-0.4,0.1l-3-3.6v3.3h0.5c0.1,0,0.2,0.1,0.2,0.2h-1.6v-0.2h0.6v-4.2h-0.6v-0.2h1.2l2.8,3.4
		v-3.2h-0.6V44.9z"/>
	<path d="M164.5,46.4l-0.1-0.5c0-0.1,0-0.1-0.1-0.1c-0.2-0.4-0.4-0.6-0.8-0.6h-1v1.9h1.5v0.2h-1.5v2.1h1c0.1,0,0.2,0,0.3,0
		c0.3-0.1,0.5-0.3,0.6-0.7l0.2-0.5h0.2l0,1.5h-3.8v-0.2h0.6v-4.2h-0.6v-0.2h3.8l0,1.5H164.5z"/>
</g>
</svg>
