<?xml version="1.0" encoding="utf-8"?>
<!-- Generator: Adobe Illustrator 25.4.1, SVG Export Plug-In . SVG Version: 6.00 Build 0)  -->
<!DOCTYPE svg PUBLIC "-//W3C//DTD SVG 1.1//EN" "http://www.w3.org/Graphics/SVG/1.1/DTD/svg11.dtd" [
	<!ENTITY ns_extend "http://ns.adobe.com/Extensibility/1.0/">
	<!ENTITY ns_ai "http://ns.adobe.com/AdobeIllustrator/10.0/">
	<!ENTITY ns_graphs "http://ns.adobe.com/Graphs/1.0/">
	<!ENTITY ns_vars "http://ns.adobe.com/Variables/1.0/">
	<!ENTITY ns_imrep "http://ns.adobe.com/ImageReplacement/1.0/">
	<!ENTITY ns_sfw "http://ns.adobe.com/SaveForWeb/1.0/">
	<!ENTITY ns_custom "http://ns.adobe.com/GenericCustomNamespace/1.0/">
	<!ENTITY ns_adobe_xpath "http://ns.adobe.com/XPath/1.0/">
]>
<svg version="1.1" id="Layer_1" xmlns:x="&ns_extend;" xmlns:i="&ns_ai;" xmlns:graph="&ns_graphs;"
	 xmlns="http://www.w3.org/2000/svg" xmlns:xlink="http://www.w3.org/1999/xlink" x="0px" y="0px" viewBox="0 0 348 104"
	 style="enable-background:new 0 0 348 104;" xml:space="preserve">
<style type="text/css">
	.st0{fill:#ED7423;}
	.st1{fill:#A48242;}
	.st2{fill:#221F20;}
	.st3{fill:#F88334;}
	.st4{fill:#606060;stroke:#606060;stroke-width:1.0911;stroke-miterlimit:10;}
</style>
<metadata>
	<sfw  xmlns="&ns_sfw;">
		<slices></slices>
		<sliceSourceBounds  bottomLeftOrigin="true" height="158.7" width="308.8" x="16.1" y="5.6"></sliceSourceBounds>
	</sfw>
</metadata>
<g>
	<g>
		<g>
			<g>
				<path class="st1" d="M236.1,28.1c-0.1,0-0.1,0-0.2,0.1c0,0-0.2,0-0.3,0c-0.9,0-1.6-0.7-1.6-1.6h-1.6c0,1.8,1.5,3.2,3.3,3.2
					c0.2,0,0.4,0,0.6-0.1c0,0,0,0,0.1,0c0.2,0,0.4-0.1,0.6-0.2c0.5-0.2,1-0.6,1.2-0.9l6.7-7.9v9.1h1.6V16.2l-9.5,11.3
					C236.7,27.8,236.4,28,236.1,28.1"/>
			</g>
			<g>
				<rect x="232.4" y="31.5" class="st1" width="14.1" height="1.6"/>
			</g>
		</g>
		<g>
			<path class="st1" d="M239.4,43.6c-10,0-18.1-8.1-18.1-18.1s8.1-18.1,18.1-18.1s18.1,8.1,18.1,18.1
				C257.5,35.4,249.4,43.6,239.4,43.6z M239.4,9.6c-8.7,0-15.9,7.1-15.9,15.9s7.1,15.9,15.9,15.9s15.9-7.1,15.9-15.9
				C255.3,16.7,248.1,9.6,239.4,9.6z"/>
		</g>
	</g>
	<g>
		<polygon class="st1" points="261,73.9 259.3,77.7 241.9,77.7 241.9,48.5 245.7,48.5 245.7,73.9 		"/>
		<polygon class="st1" points="324.9,48.5 321.1,48.5 321.1,71.1 305.3,48.5 301.5,48.5 301.5,77.7 305.3,77.7 305.3,55.2 
			321.1,77.7 324.9,77.7 		"/>
		<path class="st1" d="M279.2,48.5c-7.8,0-14.2,6.5-14.2,14.6c0,8.1,6.4,14.6,14.2,14.6c7.9,0,14.2-6.5,14.2-14.6
			C293.4,55,287.1,48.5,279.2,48.5z M279.2,73.9c-5.8,0-10.5-4.8-10.5-10.8c0-5.9,4.7-10.8,10.5-10.8c5.8,0,10.5,4.8,10.5,10.8
			S285,73.9,279.2,73.9z"/>
		<polygon class="st1" points="220.2,48.5 205.3,77.7 209.6,77.7 220.2,56.9 230.8,77.7 235.1,77.7 		"/>
		<polygon class="st1" points="168.8,48.5 153.9,77.7 158.2,77.7 168.8,56.9 179.4,77.7 183.6,77.7 		"/>
		<polygon class="st1" points="194.5,77.7 209.3,48.5 205.1,48.5 194.5,69.3 183.9,48.5 179.6,48.5 		"/>
	</g>
	<g>
		<path d="M207.2,96.7V85.3h-4.2v-1.5h10.2v1.5h-4.3v11.4H207.2z"/>
		<path d="M218.3,96.7V83.8h1.7v5.3h6.7v-5.3h1.7v12.9h-1.7v-6.1H220v6.1C220,96.7,218.3,96.7,218.3,96.7z"/>
		<path d="M233.1,96.7l5-12.9h1.8l5.3,12.9h-1.9l-1.5-3.9h-5.4l-1.4,3.9H233.1z M236.9,91.4h4.4l-1.3-3.6c-0.4-1.1-0.7-2-0.9-2.7
			c-0.2,0.8-0.4,1.7-0.7,2.5L236.9,91.4z"/>
		<path d="M249.9,96.7V83.8h1.8l6.8,10.1V83.8h1.6v12.9h-1.8l-6.8-10.1v10.1C251.5,96.7,249.9,96.7,249.9,96.7z"/>
		<path d="M266.3,96.7V83.8h9.3v1.5H268v4h7.1v1.5H268v4.4h7.9v1.5L266.3,96.7L266.3,96.7z"/>
	</g>
</g>
<g>
	<rect x="71.6" y="68.5" class="st2" width="8.6" height="0.4"/>
	<g>
		<path class="st3" d="M63,43.6c-2.2-2.2-5-3.3-8-3.3c-2.2,0-4.3,0.6-6,1.8V23.2l-5.4,5.4v34.6h5.6V51.6c0-1.6,0.6-3.1,1.7-4.1
			c1.2-1.2,2.6-1.8,4.1-1.8s3.1,0.6,4.1,1.8c1.2,1.2,1.7,2.6,1.7,4.1v11.7h5.4V51.6C66.3,48.4,65.1,45.7,63,43.6"/>
		<path class="st3" d="M125.2,43.6c-2.2-2.2-4.8-3.3-7.9-3.3c-2.2,0-4.3,0.6-6,1.8V23.3l-5.4,5.4v34.6h5.6V51.6
			c0-1.6,0.6-3.1,1.7-4.1c1.2-1.2,2.6-1.8,4.3-1.8c1.6,0,3.1,0.6,4.1,1.8c1.2,1.2,1.7,2.6,1.7,4.1v11.7h5.4V51.6
			C128.5,48.4,127.4,45.7,125.2,43.6"/>
		<path class="st3" d="M84.6,55.7l-0.2,0.2c-0.6,0.6-1.2,0.9-1.9,1.2l-0.2,0.1c-0.7,0.2-1.4,0.4-2.2,0.4c-0.7,0-1.2-0.1-1.9-0.2
			l11.9-11.8c-2.1-2.2-4-3.8-5.7-4.5c-1.4-0.6-2.8-0.8-4.4-0.8c-1.4,0-2.8,0.2-4.1,0.7l-0.2,0.1c-1.4,0.6-2.6,1.4-3.7,2.5
			c-1.2,1.1-2,2.4-2.6,3.8c-0.6,1.3-0.8,2.7-0.8,4.3c0,1.4,0.2,2.8,0.7,4.1l0.1,0.4c0.6,1.3,1.4,2.6,2.5,3.6c1.1,1.2,2.4,2,3.8,2.6
			c1.3,0.6,2.8,0.8,4.4,0.8c1.4,0,2.8-0.2,4.1-0.7l0.2-0.1c1.3-0.6,2.6-1.4,3.6-2.5l0.1-0.1L84.6,55.7z M74.4,53.6
			c-0.2-0.6-0.2-1.2-0.2-1.9c0-0.7,0.2-1.5,0.5-2.2c0.2-0.7,0.7-1.4,1.3-2s1.2-0.9,1.9-1.2h0.1c0.7-0.2,1.5-0.4,2.2-0.5
			c0.6,0,1.2,0.1,1.8,0.2L74.4,53.6z"/>
		<path class="st3" d="M39.1,51.1c-1.5-1.4-3.8-1.9-6.5-2.2c-0.7-0.1-1.7-0.2-2.4-0.7c-0.4-0.2-0.6-0.7-0.7-1.2
			c0-1.2,1.2-1.8,2.6-1.8c1.4,0,2.6,0.9,2.6,1.7V47v0.2h6c0-2.1-0.8-3.8-2.6-5.1c-1.6-1.2-3.7-1.9-6-1.9s-4.5,0.7-6.3,1.9
			c-1.7,1.2-2.6,2.8-2.6,4.7c0,1.6,0.5,2.9,1.4,4.1c1.4,1.6,3.9,3.1,7,3.3c0.9,0.1,1.9,0.1,2.7,0.7c0.7,0.6,0.6,1.4,0.1,2.1
			c-0.6,0.7-1.4,0.8-2.2,0.8c-1.9,0-3.1-0.8-3.1-2.5h-6c0,2.2,0.8,4.1,2.5,5.6c1.6,1.5,4,2.2,6.5,2.2s5-0.8,6.5-2.5
			c1.4-1.5,2.2-3.2,2.2-5.2C41.1,53.8,40.4,52.4,39.1,51.1"/>
		<polygon class="st3" points="98.8,32.6 98.8,23.2 98.7,23.2 93.7,28.3 93.7,32.6 89.2,32.6 89.2,37.9 93.7,37.9 93.7,63.2 
			98.8,63.2 98.8,37.9 103.2,37.9 103.2,32.6 		"/>
	</g>
	<path class="st2" d="M30,80.2c-0.1-0.1-0.2-0.2-0.2-0.7l-2.2-4.8c-0.1-0.2-0.1-0.2-0.1-0.2c0-0.1,0.1-0.1,0.2-0.2l0,0v-0.2h-1.6
		v0.2l0,0c0.1,0,0.2,0.1,0.2,0.2c0,0,0,0.1-0.1,0.2L23.9,80c-0.1,0.2-0.2,0.4-0.2,0.5c0-0.1-0.1,0-0.2,0l0,0v0.2H25v-0.2l0,0
		c-0.2,0-0.2-0.1-0.2-0.2c0,0,0-0.1,0.1-0.2l0.6-1.2h3.3l0.5,1.2c0.1,0.2,0.1,0.2,0.1,0.2s0,0.1-0.2,0.2l0,0v0.2h1.6v-0.2l0,0
		C30.1,80.4,30.1,80.3,30,80.2 M28.2,78.1h-2.7l1.3-3.1L28.2,78.1z"/>
	<path class="st2" d="M35.3,77.9c-0.2-0.1-0.4-0.2-0.7-0.2s-0.6-0.1-1.1-0.1c-0.6,0-0.9,0-1.2-0.1c-0.2,0-0.2,0-0.5-0.1
		c-0.1,0-0.2-0.1-0.2-0.2c-0.1-0.1-0.1-0.2-0.1-0.4c0-0.2,0.2-0.6,0.5-0.7c0.4-0.2,0.7-0.2,1.2-0.2c0.6,0,1.2,0.1,1.5,0.4
		c0.2,0.1,0.2,0.2,0.2,0.2c0,0,0,0.1,0,0.2l0,0l0.2,0.1l0.6-1.1l-0.2-0.1l0,0c0,0.1-0.2,0.1-0.2,0.1s0,0-0.2-0.1
		c-0.7-0.2-1.3-0.5-2-0.5c-0.7,0-1.3,0.2-1.8,0.5c-0.5,0.3-0.7,0.7-0.7,1.2c0,0.2,0.1,0.6,0.2,0.7c0.2,0.2,0.4,0.4,0.6,0.5
		c0.2,0.1,0.4,0.1,0.7,0.2c0.2,0,0.6,0.1,1.2,0.1c0.5,0,0.7,0,0.8,0.1c0.2,0,0.2,0.1,0.4,0.1c0.1,0,0.2,0.1,0.2,0.2
		c0.1,0.1,0.1,0.2,0.1,0.4c0,0.2-0.1,0.2-0.2,0.5c-0.1,0.1-0.2,0.2-0.4,0.4c-0.4,0.2-0.7,0.2-1.3,0.2c-0.6,0-1.2-0.2-1.6-0.5
		c-0.4-0.2-0.5-0.2-0.5-0.4v-0.1v-0.1l-0.2-0.1l-0.7,1.1l0.2,0.1l0,0c0.1-0.1,0.2-0.2,0.2-0.2s0,0,0.1,0c0.4,0.2,0.7,0.4,1.2,0.5
		c0.4,0.1,0.8,0.2,1.2,0.2c0.7,0,1.4-0.2,1.9-0.5c0.4-0.2,0.6-0.7,0.6-1.2c0-0.2-0.1-0.5-0.2-0.7C35.7,78.1,35.4,78,35.3,77.9"/>
	<path class="st2" d="M40.8,75.5L40.8,75.5c0.1,0,0.2,0.1,0.2,0.1c0,0.1,0.1,0.1,0.1,0.2v1.7h-3.3v-1.7c0-0.1,0-0.2,0.1-0.2
		c0,0,0.1-0.1,0.2-0.1l0,0v-0.2h-1.4v0.2l0,0c0.1,0,0.2,0.1,0.2,0.1c0,0.1,0.1,0.1,0.1,0.2v4.3c0,0.1,0,0.2-0.1,0.2
		c0,0.1-0.1,0.1-0.2,0.1l0,0v0.2H38v-0.2l0,0c-0.1,0-0.2-0.1-0.2-0.1c0-0.1-0.1-0.1-0.1-0.2v-1.9h3.3V80c0,0.1,0,0.2-0.1,0.2
		c0,0.1-0.1,0.1-0.2,0.1l0,0v0.2h1.3v-0.2l0,0c-0.1,0-0.2-0.1-0.2-0.1c0-0.1-0.1-0.1-0.1-0.2v-4.3c0-0.1,0-0.2,0.1-0.2
		c0-0.1,0.1-0.1,0.2-0.1l0,0v-0.2h-1.3C40.8,75.2,40.8,75.5,40.8,75.5z"/>
	<path class="st2" d="M49.7,75.5L49.7,75.5c0.2,0.1,0.2,0.1,0.2,0.2c0,0.1,0,0.1,0,0.2l-1.2,3.6l-1.3-3.6c0-0.1-0.1-0.2-0.1-0.2
		c0-0.1,0.1-0.2,0.2-0.2l0,0v-0.2h-1.4v0.2l0,0c0.2,0,0.2,0.1,0.2,0.2c0,0,0,0.1-0.1,0.2l-1.2,3.6l-1.3-3.6
		c-0.1-0.2-0.1-0.2-0.1-0.2c0-0.1,0.1-0.2,0.2-0.2l0,0v-0.2h-1.4v0.2l0,0c0.1,0,0.2,0.1,0.2,0.2c0.1,0.1,0.1,0.2,0.2,0.4l1.4,3.9
		c0.1,0.2,0.1,0.2,0.1,0.4c0,0.1-0.1,0.2-0.2,0.2l0,0v0.2h1.5v-0.2l0,0c-0.2,0-0.2-0.1-0.2-0.2c0,0,0-0.1,0.1-0.2l1.2-3.5l1.2,3.5
		c0.1,0.2,0.1,0.2,0.1,0.4c0,0.2-0.1,0.2-0.2,0.2l0,0v0.2h1.5v-0.2l0,0c-0.2,0-0.2-0.1-0.2-0.2s0-0.2,0.1-0.2l1.4-4
		c0.1-0.2,0.1-0.2,0.2-0.4c0.1-0.1,0.2-0.1,0.2-0.2l0,0v-0.2L49.7,75.5l0,0.2h0V75.5z"/>
	<path class="st2" d="M51.6,75.5L51.6,75.5c0.1,0,0.2,0.1,0.2,0.1c0,0.1,0,0.1,0,0.2v4.3c0,0.1,0,0.2-0.1,0.2c0,0.1-0.1,0.1-0.2,0.1
		l0,0v0.2h1.3v-0.2l0,0c-0.1,0-0.2-0.1-0.2-0.1c0-0.1-0.1-0.1-0.1-0.2v-4.3c0-0.1,0-0.2,0.1-0.2c0,0,0.1-0.1,0.2-0.1l0,0v-0.2h-1.3
		V75.5z"/>
	<path class="st2" d="M58.3,75.5L58.3,75.5c0.1,0,0.2,0.1,0.2,0.1c0,0.1,0.1,0.1,0.1,0.2v3.6L55.5,76c-0.1-0.1-0.2-0.2-0.2-0.2
		s0.1-0.2,0.2-0.2l0,0v-0.2h-1.7v0.2l0,0c0.1,0,0.2,0.1,0.2,0.1c0,0.1,0.1,0.1,0.1,0.2v4.3c0,0.1,0,0.2-0.1,0.2
		c0,0.1-0.1,0.1-0.2,0.1l0,0v0.2H55v-0.2l0,0c-0.1,0-0.2-0.1-0.2-0.1c0-0.1-0.1-0.1-0.1-0.2v-3.8l3.3,3.7c0.2,0.2,0.2,0.2,0.2,0.4
		c0,0.1-0.1,0.1-0.2,0.2l0,0v0.2h1.4v-0.2l0,0c-0.1,0-0.2-0.1-0.2-0.1c0-0.1-0.1-0.1-0.1-0.2v-4.3c0-0.1,0-0.2,0.1-0.2
		c0,0,0.1-0.1,0.2-0.1l0,0v-0.2h-1.1v0.2h-0.2V75.5z"/>
	<path class="st2" d="M68.3,77.2c-0.2-0.1-0.5-0.2-0.7-0.2c-0.2,0-0.8-0.1-1.5-0.1c-0.5,0-0.8,0-1.2-0.1c-0.2,0-0.4-0.1-0.6-0.2
		c-0.2-0.1-0.2-0.2-0.4-0.2c-0.1-0.1-0.1-0.2-0.1-0.4c0-0.2,0.1-0.4,0.2-0.5c0.1-0.2,0.2-0.2,0.5-0.4c0.4-0.2,0.9-0.2,1.5-0.2
		c0.7,0,1.3,0.2,2,0.5c0.2,0.1,0.2,0.2,0.2,0.2c0,0,0,0.1-0.1,0.2l0,0l0.2,0.1l0.7-1.3l-0.2-0.2l0,0c-0.1,0.2-0.2,0.2-0.2,0.2
		s0,0-0.2-0.1c-0.5-0.2-0.8-0.4-1.2-0.5c-0.4-0.1-0.7-0.1-1.2-0.1s-1,0.1-1.4,0.2c-0.5,0.1-0.7,0.2-1.1,0.6
		c-0.4,0.4-0.5,0.7-0.5,1.2c0,0.2,0.1,0.6,0.2,0.7c0.1,0.2,0.2,0.4,0.6,0.6c0.2,0.1,0.5,0.2,0.8,0.2c0.2,0.1,0.7,0.1,1.2,0.1
		c0.7,0,1.2,0.1,1.3,0.1c0.2,0,0.2,0,0.5,0.1c0.5,0.2,0.7,0.5,0.7,0.8c0,0.2-0.1,0.6-0.4,0.8C67.5,79.9,67,80,66.1,80
		c-0.4,0-0.7,0-1.1-0.1c-0.2-0.1-0.7-0.2-1.1-0.4c-0.5-0.2-0.6-0.4-0.6-0.5c0,0,0-0.1,0.1-0.2l0,0l-0.2-0.1l-0.7,1.2l0.2,0.1l0,0
		c0.1-0.2,0.2-0.2,0.2-0.2s0.1,0,0.2,0.1c0.6,0.2,1.1,0.5,1.4,0.6c0.4,0.1,0.8,0.2,1.4,0.2c0.9,0,1.7-0.2,2.2-0.7
		c0.5-0.4,0.7-0.8,0.7-1.4C69.1,78,68.8,77.6,68.3,77.2"/>
	<path class="st2" d="M74,75.5L74,75.5c0.1,0,0.2,0.1,0.2,0.1c0,0.1,0.1,0.1,0.1,0.2v1.7H71v-1.7c0-0.1,0-0.2,0.1-0.2
		c0,0,0.1-0.1,0.2-0.1l0,0v-0.2H70v0.2l0,0c0.1,0,0.2,0.1,0.2,0.1c0,0.1,0.1,0.1,0.1,0.2v4.3c0,0.1,0,0.2-0.1,0.2
		c0,0.1-0.1,0.1-0.2,0.1l0,0v0.2h1.3v-0.2l0,0c-0.1,0-0.2-0.1-0.2-0.1c0-0.1-0.1-0.1-0.1-0.2v-1.9h3.3V80c0,0.1,0,0.2-0.1,0.2
		c0,0.1-0.1,0.1-0.2,0.1l0,0v0.2h1.3v-0.2l0,0c-0.1,0-0.2-0.1-0.2-0.1c0-0.1-0.1-0.1-0.1-0.2v-4.3c0-0.1,0-0.2,0.1-0.2
		c0-0.1,0.1-0.1,0.2-0.1l0,0v-0.2h-1.3v0.2C74.1,75.5,74,75.5,74,75.5z"/>
	<path class="st2" d="M80.9,79.7c0,0.1-0.1,0.2-0.1,0.2c-0.1,0-0.1,0.1-0.2,0.1h-3.1v-1.8h2c0.1,0,0.2,0,0.2,0.1
		c0,0,0.1,0.1,0.1,0.2l0,0h0.2v-1.2h-0.2l0,0c0,0.1-0.1,0.2-0.1,0.2s-0.1,0.1-0.2,0.1h-2v-1.7h3.1c0.1,0,0.2,0,0.2,0.1
		c0,0,0.1,0.1,0.1,0.2l0,0h0.2v-1.2h-0.2l0,0c0,0.1-0.1,0.2-0.1,0.2S80.8,75,80.6,75h-4.1v0.2l0,0c0.1,0,0.2,0.1,0.2,0.1
		c0,0.1,0.1,0.1,0.1,0.2v4.3c0,0.1,0,0.2-0.1,0.2c0,0.1-0.1,0.1-0.2,0.1l0,0v0.2h4.1c0.1,0,0.2,0,0.2,0.1c0.1,0,0.1,0.1,0.1,0.2l0,0
		h0.2v-1.2L80.9,79.7L80.9,79.7z"/>
	<path class="st2" d="M86.7,75c0,0.1-0.1,0.2-0.1,0.2s-0.1,0.1-0.2,0.1h-4.1c-0.1,0-0.2,0-0.2-0.1c0,0-0.1-0.1-0.1-0.2l0,0h-0.2v1.2
		H82l0,0c0-0.1,0.1-0.2,0.1-0.2s0.1-0.1,0.2-0.1h1.6v4.1c0,0.1,0,0.2-0.1,0.2c0,0-0.1,0.1-0.2,0.1l0,0v0.2h1.4v-0.2l0,0
		c-0.1,0-0.2-0.1-0.2-0.1c0-0.1-0.1-0.1-0.1-0.2v-4.1h1.6c0.1,0,0.2,0,0.2,0.1c0.1,0,0.1,0.1,0.1,0.2l0,0h0.2v-1.2L86.7,75L86.7,75z
		"/>
	<path class="st2" d="M91.6,75.5L91.6,75.5c0.1,0,0.2,0.1,0.2,0.1c0,0.1,0.1,0.1,0.1,0.2v1.7h-3.3v-1.7c0-0.1,0-0.2,0.1-0.2
		c0,0,0.1-0.1,0.2-0.1l0,0v-0.2h-1.3v0.2l0,0c0.1,0,0.2,0.1,0.2,0.1c0,0.1,0,0.1,0,0.2v4.3c0,0.1,0,0.2-0.1,0.2
		c0,0.1-0.1,0.1-0.2,0.1l0,0v0.2h1.3v-0.2l0,0c-0.1,0-0.2-0.1-0.2-0.1c0-0.1-0.1-0.1-0.1-0.2v-1.9h3.3V80c0,0.1,0,0.2-0.1,0.2
		c0,0.1-0.1,0.1-0.2,0.1l0,0v0.2h1.3v-0.2l0,0c-0.1,0-0.2-0.1-0.2-0.1c0-0.1-0.1-0.1-0.1-0.2v-4.3c0-0.1,0-0.2,0.1-0.2
		c0-0.1,0.1-0.1,0.2-0.1l0,0v-0.2h-1.3C91.6,75.2,91.6,75.5,91.6,75.5z"/>
	<path class="st2" d="M100.5,77.3c-0.1,0-0.1-0.1-0.1-0.2l0,0h-0.2v1.3h0.2l0,0c0-0.1,0.1-0.2,0.1-0.2s0.1-0.1,0.2-0.1h1.4v1.2
		c-0.2,0.2-0.6,0.5-0.9,0.6c-0.4,0.1-0.8,0.2-1.2,0.2c-0.8,0-1.5-0.2-2-0.7c-0.6-0.5-0.8-1.2-0.8-2s0.2-1.5,0.8-2s1.2-0.7,1.9-0.7
		c0.7,0,1.3,0.2,1.9,0.6c0.4,0.2,0.5,0.4,0.5,0.4s0,0.1-0.1,0.2l0,0l0.2,0.1l0.7-1.2l-0.2-0.1l0,0c-0.1,0.2-0.2,0.2-0.2,0.2
		s-0.1,0-0.2-0.1c-0.5-0.2-0.8-0.5-1.3-0.6c-0.4-0.1-0.8-0.2-1.3-0.2c-0.6,0-1.1,0.1-1.5,0.2c-0.7,0.2-1.2,0.7-1.6,1.2
		c-0.2,0.5-0.5,1.2-0.5,1.9c0,0.5,0.1,1.1,0.2,1.4c0.2,0.4,0.5,0.7,0.7,1.1c0.7,0.6,1.5,0.8,2.6,0.8c0.8,0,1.6-0.2,2.2-0.6
		c0.2-0.2,0.7-0.4,0.9-0.7l0,0v-0.2l0,0c-0.1,0-0.2-0.1-0.2-0.1s-0.1-0.1-0.1-0.2V78c0-0.1,0-0.2,0.1-0.2c0-0.1,0.1-0.1,0.2-0.1l0,0
		v-0.4H100.5C100.6,77.3,100.6,77.3,100.5,77.3"/>
	<path class="st2" d="M109.4,80.4L109.4,80.4l-1.3-2.2c0.5-0.1,0.8-0.2,1.1-0.5c0.2-0.2,0.4-0.6,0.4-0.9c0-0.5-0.2-0.8-0.6-1.2
		c-0.2-0.1-0.4-0.2-0.6-0.2c-0.2-0.1-0.5-0.1-0.8-0.1h-3.1v0.2l0,0c0.1,0,0.2,0.1,0.2,0.1c0,0.1,0.1,0.1,0.1,0.2v4.3
		c0,0.1,0,0.2-0.1,0.2c0,0-0.1,0.1-0.2,0.1l0,0v0.2h1.3v-0.2l0,0c-0.1,0-0.2-0.1-0.2-0.1c0-0.1-0.1-0.1-0.1-0.2v-1.8h1.8l1.2,1.9
		c0.1,0.2,0.1,0.2,0.1,0.2s-0.1,0.1-0.2,0.1l0,0v0.2h1.3v-0.2l0,0C109.4,80.4,109.4,80.4,109.4,80.4 M105.3,75.8h2
		c0.5,0,0.8,0.1,1.1,0.2c0.2,0.2,0.4,0.4,0.4,0.7c0,0.3-0.1,0.6-0.4,0.7c-0.1,0.1-0.2,0.1-0.4,0.1c-0.2,0-0.4,0-0.7,0h-1.9
		L105.3,75.8L105.3,75.8L105.3,75.8z"/>
	<path class="st2" d="M115.6,75.8c-0.6-0.5-1.3-0.7-2.2-0.7c-0.6,0-0.9,0.1-1.4,0.2c-0.6,0.2-1.1,0.6-1.3,1.1
		c-0.2,0.5-0.5,0.9-0.5,1.5c0,0.8,0.2,1.5,0.9,2.1c0.6,0.5,1.3,0.7,2.2,0.7c1.2,0,2.2-0.5,2.7-1.2c0.2-0.5,0.5-0.9,0.5-1.5
		C116.4,77.1,116.1,76.4,115.6,75.8 M113.3,80.1c-0.7,0-1.3-0.2-1.8-0.7c-0.4-0.4-0.6-0.8-0.6-1.5c0-0.6,0.2-1.1,0.6-1.5
		c0.5-0.5,1.1-0.7,1.8-0.7c0.7,0,1.3,0.2,1.8,0.7c0.4,0.4,0.6,0.8,0.6,1.5c0,0.6-0.2,1.1-0.6,1.4C114.7,79.9,114.1,80.1,113.3,80.1"
		/>
	<path class="st2" d="M121.4,75.5L121.4,75.5c0.1,0,0.2,0.1,0.2,0.1c0,0.1,0.1,0.1,0.1,0.2v2.6c0,0.4,0,0.7-0.1,0.7
		c0,0.2-0.1,0.2-0.2,0.4c-0.2,0.2-0.7,0.4-1.5,0.4c-0.7,0-1.2-0.1-1.4-0.4c-0.1-0.1-0.2-0.2-0.2-0.4c0-0.2-0.1-0.5-0.1-0.8v-2.7
		c0-0.1,0-0.2,0.1-0.2c0-0.1,0.1-0.1,0.2-0.1l0,0v-0.2h-1.3v0.2l0,0c0.1,0,0.2,0.1,0.2,0.1c0,0.1,0.1,0.1,0.1,0.2v2.8
		c0,0.5,0,0.7,0.1,0.9c0.1,0.2,0.2,0.4,0.4,0.6c0.4,0.4,1.1,0.6,1.9,0.6c0.7,0,1.2-0.1,1.5-0.2c0.4-0.2,0.7-0.4,0.7-0.7
		c0.1-0.2,0.1-0.6,0.1-1.1v-2.8c0-0.1,0-0.2,0.1-0.2c0,0,0.1-0.1,0.2-0.1l0,0v-0.2h-1.2v0.4L121.4,75.5L121.4,75.5z"/>
	<path class="st2" d="M127.9,75.5c-0.2-0.1-0.4-0.2-0.6-0.2c-0.2,0-0.5-0.1-0.8-0.1h-2.9v0.2l0,0c0.1,0,0.2,0.1,0.2,0.1
		s0.1,0.1,0.1,0.2V80c0,0.1,0,0.2-0.1,0.2c0,0-0.1,0.1-0.2,0.1l0,0v0.2h1.3v-0.1l0,0c-0.1,0-0.2-0.1-0.2-0.1s-0.1-0.1-0.1-0.2v-1.9
		h1.9c0.4,0,0.7,0,0.8-0.1c0.2,0,0.4-0.1,0.6-0.2s0.4-0.2,0.5-0.5s0.2-0.5,0.2-0.7s-0.1-0.5-0.2-0.7
		C128.3,75.8,128.1,75.7,127.9,75.5 M124.6,75.8h1.8c0.2,0,0.6,0,0.7,0c0.2,0,0.2,0.1,0.4,0.2c0.2,0.1,0.2,0.4,0.2,0.7
		c0,0.3-0.1,0.6-0.2,0.7c-0.1,0.1-0.2,0.1-0.4,0.2c-0.2,0-0.4,0-0.7,0h-1.8V75.8z"/>
	<path class="st2" d="M127.1,80.3c0,0.2-0.2,0.4-0.4,0.4s-0.4-0.2-0.4-0.4s0.2-0.4,0.4-0.4C127,79.9,127.1,80.1,127.1,80.3"/>
</g>
<line class="st4" x1="142.1" y1="98.4" x2="142.1" y2="5.6"/>
</svg>
