<?xml version="1.0" encoding="utf-8"?>
<!-- Generator: Adobe Illustrator 25.4.1, SVG Export Plug-In . SVG Version: 6.00 Build 0)  -->
<svg version="1.1" id="Layer_1" xmlns="http://www.w3.org/2000/svg" xmlns:xlink="http://www.w3.org/1999/xlink" x="0px" y="0px"
	 viewBox="0 0 348 104" style="enable-background:new 0 0 348 104;" xml:space="preserve">
<style type="text/css">
	.st0{fill:#444444;}
	
		.st1{clip-path:url(#SVGID_00000041268859044124924770000011551931359246838444_);fill:url(#SVGID_00000128487172623163922590000009731978089994056104_);}
	.st2{fill:none;stroke:#4A4A4A;stroke-width:0.2547;stroke-miterlimit:10;}
	.st3{fill:#414042;}
	.st4{fill:#BA892C;}
	.st5{fill:#FFFFFF;}
	
		.st6{clip-path:url(#SVGID_00000085208830614222753150000011404499768328897184_);fill:url(#SVGID_00000031194413428830639960000017887058895469446840_);}
	
		.st7{clip-path:url(#SVGID_00000025414574264267111690000000424880842662403983_);fill:url(#SVGID_00000157280659675060749850000000838383444851230898_);}
	
		.st8{clip-path:url(#SVGID_00000046322773101004558900000004186866715809486492_);fill:url(#SVGID_00000015331109315869951640000004354670610501782145_);}
	
		.st9{clip-path:url(#SVGID_00000071547485466371710750000015100132924641387429_);fill:url(#SVGID_00000178197882098573567410000005502459157672999347_);}
	
		.st10{clip-path:url(#SVGID_00000008126467989719061970000011713050735121220268_);fill:url(#SVGID_00000050649527433680474920000001402572246969539771_);}
	
		.st11{clip-path:url(#SVGID_00000047024703416516425070000008603438698914034853_);fill:url(#SVGID_00000132065294890359162660000002179073952044400291_);}
	
		.st12{clip-path:url(#SVGID_00000086659143478445305840000014861055437640884148_);fill:url(#SVGID_00000119833019534426569540000014711246627552436640_);}
</style>
<g>
	<g>
		<path class="st0" d="M168.1,44.8l-4.8-8.2h-3.2v8.2h-2.6v-20h6.5c1.5,0,2.8,0.3,3.8,0.8c1,0.5,1.8,1.2,2.3,2.1
			c0.5,0.9,0.8,1.9,0.8,3c0,1.4-0.4,2.6-1.2,3.7c-0.8,1.1-2,1.8-3.6,2.1l5,8.4H168.1z M160.1,34.5h3.9c1.4,0,2.5-0.3,3.2-1
			s1.1-1.6,1.1-2.8c0-1.2-0.3-2.1-1-2.8c-0.7-0.7-1.8-1-3.2-1h-3.9V34.5z"/>
		<path class="st0" d="M177.5,24.8v12.7c0,1.8,0.4,3.1,1.3,4c0.9,0.9,2.1,1.3,3.6,1.3c1.5,0,2.7-0.4,3.6-1.3s1.3-2.2,1.3-4V24.8h2.6
			v12.6c0,1.7-0.3,3.1-1,4.2c-0.7,1.1-1.6,2-2.7,2.5c-1.1,0.6-2.4,0.8-3.8,0.8s-2.7-0.3-3.8-0.8c-1.1-0.6-2-1.4-2.7-2.5
			s-1-2.5-1-4.2V24.8H177.5z"/>
		<path class="st0" d="M210.1,44.8h-2.6l-10.5-16v16h-2.6V24.7h2.6l10.5,15.9V24.7h2.6V44.8z"/>
		<path class="st0" d="M239.8,24.8l-5.8,20H231l-4.7-16.1l-4.8,16.1l-2.9,0L213,24.8h2.8l4.4,17l4.8-17h2.9l4.6,16.9l4.4-16.9H239.8
			z"/>
		<path class="st0" d="M254.5,40.3h-8.7l-1.6,4.5h-2.8l7.2-19.9h3l7.2,19.9h-2.8L254.5,40.3z M253.7,38.2l-3.6-10.1l-3.6,10.1H253.7
			z"/>
		<path class="st0" d="M264.6,42.7h7v2.1H262v-20h2.6V42.7z"/>
		<path class="st0" d="M169.9,60.5l-8,18.7h-2.6l8.1-18.5h-11.1v-2.2h13.6V60.5z"/>
		<path class="st0" d="M201.2,59.4v19.9h-2.6V64.4L192,79.3h-1.8l-6.6-14.9v14.9h-2.6V59.4h2.8l7.4,16.4l7.4-16.4H201.2z"/>
		<path class="st0" d="M217.5,74.8h-8.7l-1.6,4.5h-2.8l7.2-19.9h3l7.2,19.9h-2.8L217.5,74.8z M216.7,72.7l-3.6-10.1l-3.6,10.1H216.7
			z"/>
		<path class="st0" d="M240.4,59.2v20h-2.6v-9.1h-10.2v9.1H225v-20h2.6V68h10.2v-8.8H240.4z"/>
		<path class="st0" d="M256.7,74.8H248l-1.6,4.5h-2.8l7.2-19.9h3l7.2,19.9h-2.8L256.7,74.8z M256,72.7l-3.6-10.1l-3.6,10.1H256z"/>
		<path class="st0" d="M266.9,77.1h7v2.1h-9.6v-20h2.6V77.1z"/>
		<path class="st0" d="M288.5,74.8h-8.7l-1.6,4.5h-2.8l7.2-19.9h3l7.2,19.9h-2.8L288.5,74.8z M287.8,72.7l-3.6-10.1l-3.6,10.1H287.8
			z"/>
		<path class="st0" d="M304.2,69.3l6.2,10h-3l-4.8-7.8l-4.6,7.8h-2.9l6.1-10l-6.2-10h2.9l4.8,7.8l4.6-7.8h2.9L304.2,69.3z"/>
		<path class="st0" d="M334.2,59.4v19.9h-2.6V64.4L325,79.3h-1.8l-6.6-14.9v14.9h-2.6V59.4h2.8l7.4,16.4l7.4-16.4H334.2z"/>
		<path class="st0" d="M341.3,59.2v20h-2.6v-20H341.3z"/>
	</g>
	<line class="st2" x1="69.2" y1="14.3" x2="69.2" y2="89.7"/>
	<g>
		<polygon class="st3" points="13.1,88 12.5,88 12.4,85.4 11,88 10.4,88 10.2,84.4 10.8,84.4 10.9,87 12.1,84.4 12.8,84.4 12.9,87 
			14.1,84.4 14.7,84.4 		"/>
		<path class="st3" d="M14.8,85.4h0.6l-0.4,2.5h-0.6L14.8,85.4z M15.1,84.4h0.6L15.6,85H15L15.1,84.4z"/>
		<path class="st3" d="M15.8,86l0.1-0.4h0.4l0.1-0.4l0.7-0.4L17,85.6h0.4l-0.2,0.5h-0.4l-0.2,1.1c0,0.2-0.1,0.3-0.1,0.4
			s0,0.1,0.1,0.1c0,0,0.1,0.1,0.2,0.1c0,0,0.1,0,0.3,0l-0.2,0.2c-0.1,0-0.3,0-0.4,0c-0.3,0-0.4-0.1-0.4-0.2
			c-0.1-0.1-0.2-0.3-0.2-0.4c0-0.1,0-0.3,0.1-0.4l0.2-1.1h-0.3V86z"/>
		<path class="st3" d="M17.9,88h-0.6l0.6-3.4h0.6l-0.3,1.3c0.2-0.1,0.3-0.2,0.4-0.3c0.2-0.1,0.3-0.1,0.4-0.1s0.4,0.1,0.4,0.2
			c0.1,0.1,0.2,0.3,0.2,0.4s0,0.3-0.1,0.4l-0.4,1.4h-0.6l0.4-1.4c0-0.2,0.1-0.3,0.1-0.4s0-0.2-0.1-0.2c-0.1-0.1-0.1-0.1-0.2-0.1
			s-0.3,0-0.4,0.1c-0.2,0.1-0.3,0.3-0.4,0.4c0,0.1-0.1,0.3-0.2,0.5L17.9,88z"/>
		<path class="st3" d="M21.7,85.4h0.6l0.2,1.3c0,0.4,0.1,0.4,0.1,0.6c0.1-0.3,0.2-0.4,0.4-0.7l0.5-1.2h0.6l-1.5,2.8
			c-0.1,0.3-0.3,0.4-0.3,0.4c-0.1,0.1-0.2,0.2-0.2,0.2c-0.1,0.1-0.3,0.1-0.4,0.1c-0.2,0-0.4,0-0.4-0.1l0.1-0.4c0.1,0,0.2,0,0.3,0
			c0.2,0,0.4-0.2,0.4-0.4L21.7,85.4z"/>
		<path class="st3" d="M24.2,87c0-0.4,0.1-0.9,0.4-1.2c0.3-0.3,0.5-0.4,1.1-0.4c0.4,0,0.6,0.1,0.9,0.4c0.2,0.2,0.4,0.4,0.4,0.7
			c0,0.4-0.1,0.7-0.4,1.1s-0.5,0.4-1.1,0.4c-0.3,0-0.4-0.1-0.5-0.2c-0.2-0.1-0.4-0.3-0.4-0.4C24.3,87.3,24.2,87.1,24.2,87
			 M26.2,86.5c0-0.2-0.1-0.3-0.2-0.4c-0.1-0.1-0.2-0.2-0.4-0.2c-0.2,0-0.3,0.1-0.4,0.2c-0.1,0.1-0.2,0.3-0.3,0.4
			c-0.1,0.1-0.1,0.4-0.1,0.4c0,0.2,0.1,0.4,0.2,0.4c0.1,0.1,0.3,0.2,0.4,0.2c0.2,0,0.4-0.1,0.4-0.3C26.1,87,26.2,86.8,26.2,86.5"/>
		<path class="st3" d="M27.5,85.4h0.6l-0.3,1.5c0,0.2-0.1,0.3-0.1,0.4s0,0.2,0.1,0.2c0.1,0.1,0.2,0.1,0.3,0.1s0.1,0,0.2,0
			s0.1-0.1,0.2-0.1c0.1-0.1,0.1-0.1,0.2-0.2c0.1-0.1,0.1-0.2,0.2-0.3c0-0.1,0.1-0.2,0.1-0.4l0.3-1.3H30l-0.4,2.5H29l0.1-0.4
			c-0.3,0.3-0.5,0.4-0.9,0.4c-0.2,0-0.4-0.1-0.4-0.2c-0.2-0.2-0.2-0.3-0.2-0.4c0-0.1,0-0.3,0.1-0.4L27.5,85.4z"/>
		<path class="st3" d="M30.1,87.3h0.6v0.5c-0.1,0.4-0.2,0.4-0.4,0.6c-0.2,0.1-0.4,0.2-0.4,0.2l0.1-0.4c0.1,0,0.2-0.1,0.3-0.2
			c0.1-0.1,0.1-0.2,0.2-0.3h-0.4L30.1,87.3z"/>
		<path class="st3" d="M33.6,86.3l-0.7-0.1c0.1-0.3,0.2-0.4,0.4-0.4c0.2-0.1,0.4-0.2,0.7-0.2s0.4,0.1,0.6,0.2
			c0.2,0.1,0.3,0.3,0.3,0.4c0,0.1,0,0.2,0,0.3c0,0.1-0.1,0.4-0.2,0.6c-0.1,0.3-0.1,0.4-0.1,0.5s0,0.3,0.1,0.4h-0.6
			c0-0.1,0-0.2-0.1-0.3c-0.1,0.1-0.2,0.2-0.4,0.3c-0.1,0.1-0.3,0.1-0.4,0.1c-0.2,0-0.4-0.1-0.4-0.2c-0.3-0.3-0.3-0.4-0.3-0.6
			c0-0.3,0.1-0.4,0.3-0.5c0.2-0.2,0.4-0.3,0.7-0.3s0.4-0.1,0.5-0.1c0-0.1,0-0.2,0-0.3c0-0.1,0-0.2-0.1-0.2c-0.1-0.1-0.2-0.1-0.3-0.1
			c-0.1,0-0.2,0-0.3,0.1C33.2,85.9,33.6,86,33.6,86.3 M34.3,86.9c0,0-0.1,0-0.2,0c-0.4,0-0.4,0.1-0.6,0.2c-0.1,0.1-0.1,0.2-0.1,0.3
			c0,0.1,0,0.2,0.1,0.2c0.1,0.1,0.2,0.1,0.3,0.1c0.1,0,0.2,0,0.3-0.1c0.1-0.1,0.2-0.1,0.2-0.2S34.2,87.1,34.3,86.9L34.3,86.9z"/>
		<polygon class="st3" points="35.3,88 36.1,84.4 36.6,84.4 36,88 		"/>
		<polygon class="st3" points="39.2,88 38.5,88 38.4,86.4 37.7,88 37.2,88 36.8,85.4 37.3,85.4 37.5,87.2 38.2,85.4 38.9,85.4 
			39,87.2 39.7,85.4 40.5,85.4 		"/>
		<path class="st3" d="M41.3,86.3l-0.6-0.1c0.1-0.3,0.2-0.4,0.4-0.4c0.2-0.1,0.4-0.2,0.7-0.2c0.3,0,0.4,0.1,0.6,0.2
			c0.2,0.1,0.3,0.3,0.3,0.4c0,0.1,0,0.2,0,0.3c0,0.1-0.1,0.4-0.2,0.6c-0.1,0.3-0.1,0.5-0.1,0.6s0,0.3,0.1,0.4H42
			c0-0.1,0-0.2-0.1-0.3c-0.1,0.1-0.2,0.2-0.4,0.3c-0.1,0.1-0.3,0.1-0.4,0.1c-0.2,0-0.4-0.1-0.4-0.2c-0.2-0.2-0.2-0.4-0.2-0.4
			c0-0.3,0.1-0.4,0.3-0.5c0.2-0.2,0.4-0.3,0.7-0.3s0.4-0.1,0.5-0.1c0-0.1,0-0.2,0-0.3c0-0.1,0-0.2-0.1-0.2C41.7,86,41.6,86,41.5,86
			c-0.1,0-0.2,0-0.3,0.1C41.1,86.3,41.3,86,41.3,86.3 M41.8,86.9c0,0-0.1,0-0.2,0c-0.4,0-0.4,0.1-0.6,0.2c-0.1,0.1-0.1,0.2-0.1,0.3
			c0,0.1,0,0.2,0.1,0.2c0.1,0.1,0.2,0.1,0.3,0.1c0.1,0,0.2,0,0.3-0.1c0.1-0.1,0.2-0.1,0.2-0.2C41.8,87.2,41.8,87.1,41.8,86.9
			L41.8,86.9z"/>
		<path class="st3" d="M43.2,85.4h0.6l0.2,1.3c0,0.4,0.1,0.4,0.1,0.6c0.1-0.3,0.2-0.4,0.4-0.7l0.5-1.2h0.6l-1.5,2.8
			c-0.1,0.3-0.3,0.4-0.3,0.4c-0.1,0.1-0.2,0.2-0.3,0.2c-0.1,0.1-0.3,0.1-0.4,0.1c-0.2,0-0.4,0-0.4-0.1l0.1-0.4c0.1,0,0.2,0,0.3,0
			c0.2,0,0.4-0.2,0.4-0.4L43.2,85.4z"/>
		<path class="st3" d="M45.6,87.2l0.6-0.1c0.1,0.2,0.2,0.3,0.3,0.3c0.1,0.1,0.2,0.1,0.4,0.1s0.3,0,0.4-0.1c0.1-0.1,0.1-0.1,0.1-0.2
			c0-0.1,0-0.1-0.1-0.1c0,0-0.1-0.1-0.3-0.1c-0.4-0.2-0.6-0.3-0.7-0.4c-0.2-0.1-0.3-0.3-0.3-0.4c0-0.2,0.1-0.4,0.3-0.4
			c0.2-0.2,0.4-0.3,1-0.3c0.4,0,0.4,0.1,0.6,0.2c0.2,0.1,0.3,0.3,0.4,0.4l-0.5,0.1c0-0.1-0.1-0.2-0.2-0.2s-0.3,0-0.4,0
			c-0.2,0-0.3,0-0.4,0.1c-0.1,0.1-0.1,0.1-0.1,0.2s0,0.1,0.1,0.2c0,0,0.2,0.1,0.4,0.2c0.4,0.1,0.4,0.2,0.6,0.3
			c0.2,0.1,0.3,0.3,0.3,0.4c0,0.3-0.1,0.4-0.3,0.5c-0.2,0.2-0.4,0.3-0.9,0.3c-0.4,0-0.5-0.1-0.9-0.2C45.8,87.7,45.6,87.5,45.6,87.2"
			/>
		<polygon class="st3" points="48.5,87.3 49.2,87.3 49,88 48.4,88 		"/>
		<polygon class="st3" points="49.9,87.3 50.4,87.3 50.3,88 49.6,88 		"/>
		<polygon class="st3" points="51.1,87.3 51.9,87.3 51.7,88 51,88 		"/>
		<path class="st4" d="M54.8,15.4c0.4,0,0.5,0.1,1,0.3c0.3,0.2,0.4,0.4,0.6,0.6c0.2,0.3,0.3,0.5,0.3,1s-0.1,0.5-0.3,1
			c-0.2,0.3-0.4,0.4-0.6,0.6c-0.3,0.2-0.5,0.3-1,0.3c-0.4,0-0.5-0.1-1-0.3c-0.3-0.2-0.4-0.4-0.6-0.6c-0.2-0.3-0.3-0.5-0.3-1
			s0.1-0.5,0.3-1c0.2-0.3,0.4-0.4,0.6-0.6C54.2,15.4,54.7,15.4,54.8,15.4 M54.8,15.7c-0.3,0-0.4,0.1-0.7,0.2
			c-0.3,0.1-0.4,0.4-0.4,0.4c-0.2,0.3-0.2,0.4-0.2,0.7s0.1,0.4,0.2,0.7c0.2,0.3,0.4,0.4,0.4,0.4c0.3,0.2,0.4,0.2,0.7,0.2
			s0.4-0.1,0.7-0.2c0.3-0.2,0.4-0.4,0.4-0.4c0.2-0.3,0.2-0.4,0.2-0.7c0-0.3-0.1-0.4-0.2-0.7c-0.2-0.3-0.4-0.4-0.4-0.4
			C55.4,15.8,55.1,15.7,54.8,15.7 M54,18.2v-2h0.4c0.4,0,0.5,0,0.5,0c0.2,0,0.3,0,0.4,0.1c0.1,0,0.2,0.1,0.2,0.2
			c0.1,0.1,0.1,0.2,0.1,0.3c0,0.2-0.1,0.3-0.2,0.4c0,0-0.2,0.1-0.4,0.1c0.1,0,0.1,0.1,0.2,0.1c0,0,0.1,0.1,0.2,0.2
			c0,0,0.1,0.1,0.2,0.3l0.3,0.4h-0.4L55.3,18c-0.2-0.2-0.4-0.4-0.4-0.4c-0.1-0.1-0.2-0.1-0.3-0.1h-0.1v0.7L54,18.2L54,18.2z
			 M54.4,17.1h0.2c0.3,0,0.4,0,0.4,0s0.1-0.1,0.2-0.1c0-0.1,0.1-0.1,0.1-0.2c0-0.1,0-0.1-0.1-0.2c0,0-0.1-0.1-0.2-0.1
			c-0.1,0-0.2,0-0.4,0h-0.2V17.1z"/>
		<path class="st4" d="M48.7,15.1H13.4c-1.7,0-3.1,1.4-3.1,3.1v44.3H52V18.3C52,16.6,50.4,15.1,48.7,15.1 M50.6,61.5H11.5V21.3
			c0-1.6,1.3-3,3-3h33.3c1.6,0,3,1.3,3,3L50.6,61.5L50.6,61.5z"/>
		<path class="st4" d="M13.4,82.1h35.5c1.7,0,3.1-1.4,3.1-3.1v-4.5H10.2V79C10.2,80.8,11.5,82.1,13.4,82.1 M11.4,75.5h39.1v0.4
			c0,1.6-1.3,3-3,3H14.3c-1.6,0-3-1.3-3-3L11.4,75.5L11.4,75.5z"/>
		<path class="st5" d="M25.3,77.6h0.3c0,0.1,0,0.2,0.1,0.3c0,0.1,0.1,0.1,0.2,0.2c0.1,0,0.2,0.1,0.3,0.1c0.1,0,0.2,0,0.3,0
			c0.1,0,0.1-0.1,0.2-0.1c0-0.1,0.1-0.1,0.1-0.2s0-0.1-0.1-0.2c0,0-0.1-0.1-0.2-0.1s-0.2-0.1-0.4-0.1s-0.3-0.1-0.4-0.1
			c-0.1-0.3-0.2-0.4-0.2-0.4c0-0.1-0.1-0.2-0.1-0.3s0-0.2,0.1-0.3s0.1-0.2,0.3-0.2c0.1,0,0.2-0.1,0.4-0.1c0.2,0,0.3,0,0.4,0.1
			s0.2,0.1,0.3,0.2c0.1,0.1,0.1,0.2,0.1,0.3h-0.3c0-0.1-0.1-0.2-0.1-0.3c-0.2,0-0.3,0-0.4,0c-0.2,0-0.3,0-0.4,0.1
			c-0.1,0.1-0.1,0.1-0.1,0.2c0,0.1,0,0.1,0.1,0.2c0.1,0,0.2,0.1,0.4,0.1c0.2,0.1,0.4,0.1,0.4,0.1c0.1,0.1,0.2,0.1,0.3,0.2
			c0,0,0,0.1,0,0.2c0,0.1,0,0.2-0.1,0.3c-0.1,0.1-0.2,0.2-0.3,0.2c-0.1,0.1-0.3,0.1-0.4,0.1c-0.2,0-0.4,0-0.4-0.1
			C25.6,77.9,25.5,77.9,25.3,77.6C25.4,77.8,25.3,77.7,25.3,77.6"/>
		<path class="st5" d="M27.1,76.4h0.3v0.3h-0.3V76.4z M27.1,76.9h0.3v1.3h-0.3V76.9z"/>
		<path class="st5" d="M27.7,78.1v-1.3h0.2v0.2c0.1-0.2,0.3-0.3,0.4-0.3c0.1,0,0.2,0,0.3,0s0.1,0.1,0.2,0.1c0,0.1,0.1,0.1,0.1,0.2
			c0,0,0,0.1,0,0.3v0.7h-0.3v-0.7c0-0.1,0-0.2,0-0.2c0-0.1-0.1-0.1-0.1-0.1c-0.1,0-0.1,0-0.2,0c-0.1,0-0.2,0-0.3,0.1
			s-0.1,0.2-0.1,0.4v0.5C28,78.1,27.7,78.1,27.7,78.1z"/>
		<path class="st5" d="M29.9,77.7h0.3c0,0.2-0.1,0.3-0.2,0.4c-0.1,0.1-0.3,0-0.4,0c-0.2,0-0.4-0.1-0.4-0.2c-0.1-0.1-0.2-0.3-0.2-0.4
			c0-0.2,0-0.3,0.1-0.4c0.1-0.1,0.1-0.2,0.3-0.3c0.1-0.1,0.2-0.1,0.4-0.1c0.2,0,0.3,0,0.4,0.1c0.1,0.1,0.2,0.2,0.2,0.4h-0.3
			c0-0.1-0.1-0.2-0.1-0.2c-0.1-0.1-0.1-0.1-0.2-0.1c-0.1,0-0.2,0-0.3,0.1c-0.1,0.1-0.1,0.2-0.1,0.4c0,0.2,0,0.4,0.1,0.4
			c0.1,0.1,0.2,0.1,0.3,0.1C29.9,77.9,29.9,77.8,29.9,77.7C29.9,77.9,29.9,77.8,29.9,77.7"/>
		<path class="st5" d="M31.2,77.8h0.3c0,0.2-0.1,0.3-0.2,0.4c-0.1,0.1-0.3,0.1-0.4,0.1c-0.2,0-0.4-0.1-0.4-0.2
			c0-0.1-0.2-0.3-0.2-0.4c0-0.3,0.1-0.4,0.2-0.4c0.1-0.1,0.3-0.2,0.4-0.2c0.1,0,0.4,0.1,0.4,0.2c0,0.1,0.2,0.3,0.2,0.4
			c0,0,0,0,0,0.1h-1c0,0.2,0.1,0.3,0.1,0.4c0.1,0.1,0.2,0.1,0.3,0.1s0.2,0,0.2-0.1C31.1,78,31.2,77.9,31.2,77.8 M30.5,77.3h0.6
			c0-0.1,0-0.2-0.1-0.3c-0.1-0.1-0.2-0.1-0.3-0.1c-0.1,0-0.2,0-0.3,0.1C30.5,77.2,30.5,77.3,30.5,77.3"/>
		<path class="st5" d="M33.2,78.1h-0.3v-1.4c-0.1,0.1-0.1,0.1-0.2,0.2c0,0.1-0.1,0.1-0.2,0.1v-0.3c0.1-0.1,0.3-0.2,0.4-0.2
			c0.1-0.1,0.2-0.2,0.2-0.3h0.2L33.2,78.1z"/>
		<path class="st5" d="M33.7,77.8H34c0,0.1,0.1,0.2,0.1,0.3c0.1,0.1,0.1,0.1,0.2,0.1s0.1,0,0.2-0.1c0.1,0,0.1-0.1,0.1-0.1
			c0-0.1,0.1-0.1,0.1-0.2s0-0.2,0-0.3v-0.1c-0.1,0.1-0.1,0.1-0.2,0.2c-0.1,0.1-0.2,0.1-0.3,0.1c-0.2,0-0.3-0.1-0.4-0.2
			c-0.1-0.1-0.2-0.3-0.2-0.4c0-0.2,0.1-0.4,0.2-0.4c0.1-0.1,0.3-0.2,0.4-0.2c0.1,0,0.3,0,0.4,0.1c0.1,0.1,0.2,0.2,0.3,0.3
			C35,77,35,77.2,35,77.3c0,0.3,0,0.4-0.1,0.4c-0.1,0.2-0.1,0.3-0.3,0.4c-0.1,0.1-0.2,0.1-0.4,0.1c-0.2,0-0.3,0-0.4-0.1
			C33.8,78,33.8,77.9,33.7,77.8 M34.7,77c0-0.1,0-0.3-0.1-0.4c-0.1-0.1-0.1-0.1-0.2-0.1s-0.2,0-0.3,0.1C34,76.7,34,76.8,34,77
			c0,0.1,0,0.2,0.1,0.3c0.1,0.1,0.2,0.1,0.3,0.1s0.2,0,0.3-0.1C34.7,77.2,34.7,77.2,34.7,77"/>
		<path class="st5" d="M35.3,76.5v-0.2h1.2v0.2c-0.1,0.1-0.3,0.3-0.4,0.4c-0.1,0.2-0.2,0.4-0.3,0.5c0,0.2-0.1,0.4-0.1,0.4h-0.2
			c0-0.2,0-0.4,0.1-0.4c0.1-0.2,0.2-0.4,0.3-0.5c0.1-0.2,0.2-0.4,0.4-0.4H35.3z"/>
		<path class="st5" d="M37,77.2c-0.1,0-0.2-0.1-0.2-0.2c0-0.1-0.1-0.2-0.1-0.3c0-0.2,0.1-0.3,0.2-0.4c0.1-0.1,0.3-0.2,0.4-0.2
			c0.2,0,0.3,0.1,0.4,0.2c0.1,0.1,0.2,0.2,0.2,0.4c0,0.1,0,0.2-0.1,0.3c0,0.1-0.1,0.1-0.2,0.2c0.1,0,0.2,0.1,0.3,0.2
			c0.1,0.1,0.1,0.2,0.1,0.3c0,0.2-0.1,0.3-0.2,0.4c-0.1,0.1-0.3,0.2-0.4,0.2c-0.2,0-0.4-0.1-0.4-0.2c0-0.1-0.2-0.3-0.2-0.4
			c0-0.1,0-0.3,0.1-0.3C36.8,77.3,36.9,77.3,37,77.2 M36.8,77.7c0,0.1,0,0.1,0.1,0.2c0,0.1,0.1,0.1,0.2,0.2c0,0,0,0,0.1,0
			c0.1,0,0.2,0,0.3-0.1c0.1-0.1,0.1-0.2,0.1-0.3c0-0.1,0-0.2-0.1-0.3c-0.2-0.1-0.3-0.1-0.3-0.1c-0.1,0-0.2,0-0.3,0.1
			C36.9,77.4,36.8,77.5,36.8,77.7 M36.9,76.9c0,0.1,0,0.2,0.1,0.2c0.1,0.1,0.1,0.1,0.2,0.1c0.1,0,0.2,0,0.2-0.1
			c0.1-0.1,0.1-0.1,0.1-0.2s0-0.2-0.1-0.2c-0.1-0.1-0.1-0.1-0.2-0.1c-0.1,0-0.2,0-0.2,0.1C37,76.7,36.9,76.8,36.9,76.9"/>
		<path class="st4" d="M20.5,65.8v3.8c0,0.4,0,0.7,0,1S20.4,71,20.3,71c-0.2,0.3-0.4,0.4-0.5,0.5c-0.3,0.2-0.7,0.2-1.1,0.2
			c-0.4,0-0.7-0.1-1.1-0.2c-0.3-0.2-0.4-0.4-0.5-0.5c-0.1-0.2-0.1-0.3-0.2-0.4c0-0.2,0-0.4,0-1v-0.2v-3.6h1.3v3.8
			c0,0.4,0.1,0.7,0.2,1c0.1,0.2,0.3,0.2,0.4,0.2c0.3,0,0.4-0.1,0.4-0.3c0-0.2,0.2-0.4,0.2-1v-3.9L20.5,65.8L20.5,65.8z"/>
		<path class="st4" d="M46.2,71.7l-2.2-6h-1.3l-1.9,6H42l0.4-1.4v0.1h2.2l0.3,1.3C44.9,71.7,46.2,71.7,46.2,71.7z M42.7,69.4
			l0.9-2.3l0.7,2.3H42.7z"/>
		<polygon class="st4" points="49.3,71.7 49.3,65.8 50.4,65.8 50.4,70.6 51.9,70.6 51.9,71.7 		"/>
		<path class="st4" d="M31.5,65.8h1.3l0.4,2.8c0.1,0.3,0.1,0.4,0.1,0.9s0.1,0.5,0.1,1.1l0.9-4.6h1.2l0.9,4.6c0-0.3,0-0.4,0-0.9
			c0-0.3,0.1-0.5,0.1-0.9l0.4-3h1.4l-1.4,6h-1.2L35,68.4c0-0.2-0.1-0.4-0.1-0.5c0-0.2,0-0.4-0.1-0.7c0,0.3-0.1,0.5-0.1,0.7
			c0,0.3-0.1,0.4-0.1,0.4L34,71.6h-1.3L31.5,65.8z"/>
		<path class="st4" d="M10,71.7v-6h1.3c0.6,0,1.3,0.2,1.4,0.4c0.4,0.3,0.4,0.6,0.4,1.3c0,0.4-0.1,0.7-0.3,1.1
			c-0.2,0.3-0.4,0.4-0.6,0.4l1.2,2.8h-1.3l-1-2.5v2.5H10z M11.2,68.3C11.3,68.3,11.3,68.3,11.2,68.3c0.1,0,0.1,0,0.2,0
			c0.3,0,0.4-0.1,0.5-0.3c0.2-0.2,0.2-0.4,0.2-0.5c0-0.3-0.1-0.4-0.2-0.5c-0.1-0.2-0.4-0.2-0.5-0.2h-0.1c0,0,0,0-0.1,0
			C11.2,66.7,11.2,68.3,11.2,68.3z"/>
		<polygon class="st4" points="27.4,65.8 27.4,69.7 24.9,65.8 23.8,65.8 23.8,71.7 24.9,71.7 24.9,67.8 27.4,71.7 28.5,71.7 
			28.5,65.8 		"/>
		<path class="st4" d="M56.4,27.3c-0.1-0.6-0.4-1.6-2-2.3c-2-1.1-5.9-0.6-9.2,1.1l0,0c0,0-0.3,0.1-0.5,0.3c-1.4-0.9-3.2-1.7-5.4-2.3
			l0,0C36,23,31.7,23.6,29,25.3c-1.5,0.9-2.8,2.1-3.6,3.3c-2.7-1.2-7.5-1.5-13.4,3.2C6.2,36.6,5.6,45,8.3,50.2
			c1.9,3.6,6.3,5.8,11,5.8c0.4,0,0.9,0,1.3-0.1l0,0c0.6-0.1,1.4-0.2,2.2-0.4c0,0,0.1,0,0.1-0.1c9.8-2,11.3-5.7,13.6-11.5
			c0.3-0.6,0.4-1.4,0.7-2.1l0,0c0,0,2.2,1.2,2.1,3.2c-0.2,2.1-1.6,8.1,2.2,10c2.3,1.3,4.8,0.5,5.7,0.4c0.1,0,0.2-0.1,0.3-0.1h0.1
			h0.1l0,0l0,0c0.3-0.1,0.5-0.3,0.7-0.4c1-0.7,1.6-2,1.7-3.2c0.2-2.2-1.6-4.7-1.7-4.8c-0.1-0.1-0.2-0.1-0.3,0
			c-0.1,0.1-0.1,0.2,0,0.3c0,0,1.9,2.5,1.6,4.6c-0.2,1.1-0.7,2.2-1.6,3c-0.3,0.2-0.4,0.4-0.6,0.4c-2.1,0.7-3.3-0.2-4.4-1.3
			c-1-1.1-0.4-6.5-0.7-8.3c-0.3-1.7-2.7-3.3-2.9-3.5c2.1-0.2,5.1-0.7,7.8-3c3.3-3,3.9-8.5-2.2-12.6c1.3-0.6,2.2-1.2,3-1.3h-0.3
			c0.1,0,0.3-0.1,0.4-0.1c-0.1,0-0.2,0-0.2,0.1l0.6-0.2c2.2-0.4,4.2-0.4,5.5,0.2c1.4,0.6,1.7,1.5,1.8,2.2c0.1,0.7-0.4,1.4-0.6,1.6
			c-0.7,0.5-1.8,0-1.8,0c-0.1-0.1-0.2,0-0.3,0.1c-0.1,0.1,0,0.2,0.1,0.3c0,0,0.4,0.4,1.3,0.4c0.4,0,0.6-0.1,1.1-0.4
			C55.9,29.1,56.4,28.2,56.4,27.3 M25.5,29.1c0.3,0.1,0.4,0.2,0.6,0.4c4.2,2.2,6,6.7,5.7,9.9c-0.1,0.4-0.2,1.1-0.3,1.5
			c-0.4,0.2-0.7,0.4-1.3,0.4c-1.3,0.1-3.3,0.1-4.8-1.3c-1.3-1.3-1.8-3.6-1.4-6.8C24.1,31.6,24.7,30.1,25.5,29.1 M27.4,52.2
			c-3,3-6.6,3.3-6.9,3.4c-5,0.4-9.8-1.8-11.8-5.5C5.9,45,6.4,36.7,12.2,32.2c4.6-3.7,9.2-4.8,13-3.2c-0.7,1.3-1.3,2.7-1.4,4.2
			c-0.4,3.3,0.1,5.8,1.4,7.1c1,1,2.2,1.4,3.9,1.4c0.4,0,0.7,0,1.3-0.1c0.4-0.1,0.9-0.2,1.3-0.3c-0.5,2.3-1.8,4.8-3.3,6.6
			c-2.2,2.7-5,4.2-7.9,4.2c-0.1,0-0.1,0-0.2,0C14,51.9,12,46.7,12,46.6c0-0.1-0.2-0.2-0.3-0.1c-0.1,0-0.2,0.2-0.1,0.3
			c0,0.1,2.2,5.5,8.8,5.7c3.1,0.1,6-1.4,8.3-4.2c1.6-2,3-4.5,3.5-6.9c1.9-1.1,1.8-3.1,1.8-3.1c0-0.1-0.1-0.2-0.2-0.2
			c-0.1,0-0.2,0.1-0.2,0.2c0,0.1,0.1,1.6-1.4,2.6c0.1-0.4,0.2-0.9,0.2-1.3c0.4-3.2-1.5-7.9-5.8-10.1c-0.2-0.1-0.4-0.3-0.6-0.4
			c0.9-1.3,2.1-2.2,3.5-3.2c2.5-1.4,7.3-2.2,10.5-1.1c1.4,0.5,2.7,1.2,3.7,1.7c0.1,0,0.4,0.2,0.6,0.4c-1.6,1-4.4,2.9-6.6,6
			C34.1,37.2,31.5,48.2,27.4,52.2 M46.7,34.5c-1.4,5.1-4.3,6.9-9.2,6.7c1.5-4.7,2.2-8.3,3.3-10.4c1-1.7,2.2-3.1,3.5-3.9
			C45.7,28.3,47.6,30.9,46.7,34.5"/>
	</g>
	<g>
		<g>
			<g>
				<defs>
					<polygon id="SVGID_00000015315212872986299510000013133036290748295321_" points="106.2,45.7 117.4,33.4 106.3,20.6 					"/>
				</defs>
				<clipPath id="SVGID_00000106113692318421929270000001534988372906106002_">
					<use xlink:href="#SVGID_00000015315212872986299510000013133036290748295321_"  style="overflow:visible;"/>
				</clipPath>
				
					<linearGradient id="SVGID_00000059285006628560208460000002597729780813246888_" gradientUnits="userSpaceOnUse" x1="-424.8959" y1="-380.3363" x2="-424.0026" y2="-380.3363" gradientTransform="matrix(12.6254 0 0 12.6254 5470.6255 4835.0532)">
					<stop  offset="0" style="stop-color:#FBE048"/>
					<stop  offset="0.368" style="stop-color:#D6AF35"/>
					<stop  offset="0.5545" style="stop-color:#C79C2D"/>
					<stop  offset="1" style="stop-color:#D6A229"/>
				</linearGradient>
				
					<rect x="106.2" y="20.6" style="clip-path:url(#SVGID_00000106113692318421929270000001534988372906106002_);fill:url(#SVGID_00000059285006628560208460000002597729780813246888_);" width="11.2" height="25"/>
			</g>
		</g>
		<g>
			<g>
				<defs>
					<polygon id="SVGID_00000079452660066304179140000004909050535523376050_" points="113.4,44 130.1,45.2 133.2,28.5 					"/>
				</defs>
				<clipPath id="SVGID_00000122001961385362358860000005158477042423372170_">
					<use xlink:href="#SVGID_00000079452660066304179140000004909050535523376050_"  style="overflow:visible;"/>
				</clipPath>
				
					<linearGradient id="SVGID_00000005265394247132861790000010782118277906481797_" gradientUnits="userSpaceOnUse" x1="-422.8444" y1="-375.5134" x2="-421.951" y2="-375.5134" gradientTransform="matrix(22.0395 0 0 22.0395 9432.7207 8312.9609)">
					<stop  offset="0" style="stop-color:#FBE048"/>
					<stop  offset="0.368" style="stop-color:#D6AF35"/>
					<stop  offset="0.5545" style="stop-color:#C79C2D"/>
					<stop  offset="1" style="stop-color:#D6A229"/>
				</linearGradient>
				
					<rect x="113.4" y="28.5" style="clip-path:url(#SVGID_00000122001961385362358860000005158477042423372170_);fill:url(#SVGID_00000005265394247132861790000010782118277906481797_);" width="19.7" height="16.7"/>
			</g>
		</g>
		<g>
			<g>
				<defs>
					<polygon id="SVGID_00000124121036780329038180000001556404973202437028_" points="128.8,62.3 143.8,54.3 119.4,48.6 					"/>
				</defs>
				<clipPath id="SVGID_00000114075340741854885890000011045635611339238031_">
					<use xlink:href="#SVGID_00000124121036780329038180000001556404973202437028_"  style="overflow:visible;"/>
				</clipPath>
				
					<linearGradient id="SVGID_00000106122467291509087450000012342646011277774525_" gradientUnits="userSpaceOnUse" x1="-422.3209" y1="-374.3415" x2="-421.4276" y2="-374.3415" gradientTransform="matrix(27.3089 0 0 27.3089 11652.4766 10278.3398)">
					<stop  offset="0" style="stop-color:#FBE048"/>
					<stop  offset="0.368" style="stop-color:#D6AF35"/>
					<stop  offset="0.5545" style="stop-color:#C79C2D"/>
					<stop  offset="1" style="stop-color:#D6A229"/>
				</linearGradient>
				
					<rect x="119.4" y="48.6" style="clip-path:url(#SVGID_00000114075340741854885890000011045635611339238031_);fill:url(#SVGID_00000106122467291509087450000012342646011277774525_);" width="24.4" height="13.7"/>
			</g>
		</g>
		<g>
			<g>
				<defs>
					<polygon id="SVGID_00000060740450849714069490000009109908527714591670_" points="114.5,72.1 130.1,78.8 119.4,56.1 					"/>
				</defs>
				<clipPath id="SVGID_00000140003004403023662970000007739804689397870222_">
					<use xlink:href="#SVGID_00000060740450849714069490000009109908527714591670_"  style="overflow:visible;"/>
				</clipPath>
				
					<linearGradient id="SVGID_00000112631484363715245960000012767170468086646413_" gradientUnits="userSpaceOnUse" x1="-423.6038" y1="-377.4538" x2="-422.7105" y2="-377.4538" gradientTransform="matrix(17.427 0 0 17.427 7496.6816 6645.3105)">
					<stop  offset="0" style="stop-color:#FBE048"/>
					<stop  offset="0.368" style="stop-color:#D6AF35"/>
					<stop  offset="0.5545" style="stop-color:#C79C2D"/>
					<stop  offset="1" style="stop-color:#D6A229"/>
				</linearGradient>
				
					<rect x="114.5" y="56.1" style="clip-path:url(#SVGID_00000140003004403023662970000007739804689397870222_);fill:url(#SVGID_00000112631484363715245960000012767170468086646413_);" width="15.6" height="22.6"/>
			</g>
		</g>
		<g>
			<g>
				<defs>
					<polygon id="SVGID_00000026162933652532106390000009862080934801144229_" points="98.1,67 102.4,83.4 113.5,60.9 					"/>
				</defs>
				<clipPath id="SVGID_00000084491340060754101810000001515580259403928968_">
					<use xlink:href="#SVGID_00000026162933652532106390000009862080934801144229_"  style="overflow:visible;"/>
				</clipPath>
				
					<linearGradient id="SVGID_00000112593857574380406960000010422169415587930809_" gradientUnits="userSpaceOnUse" x1="-423.5095" y1="-377.5214" x2="-422.6161" y2="-377.5214" gradientTransform="matrix(17.3374 0 0 17.3374 7440.5273 6617.374)">
					<stop  offset="0" style="stop-color:#FBE048"/>
					<stop  offset="0.368" style="stop-color:#D6AF35"/>
					<stop  offset="0.5545" style="stop-color:#C79C2D"/>
					<stop  offset="1" style="stop-color:#D6A229"/>
				</linearGradient>
				
					<rect x="98.1" y="60.9" style="clip-path:url(#SVGID_00000084491340060754101810000001515580259403928968_);fill:url(#SVGID_00000112593857574380406960000010422169415587930809_);" width="15.5" height="22.5"/>
			</g>
		</g>
		<g>
			<g>
				<defs>
					<polygon id="SVGID_00000166637236421148181050000013197170568352020921_" points="81.7,64.6 106.2,59.2 91.7,51 					"/>
				</defs>
				<clipPath id="SVGID_00000167381550835896870290000005891250659937766036_">
					<use xlink:href="#SVGID_00000166637236421148181050000013197170568352020921_"  style="overflow:visible;"/>
				</clipPath>
				
					<linearGradient id="SVGID_00000142859996078410464720000008556186838005839288_" gradientUnits="userSpaceOnUse" x1="-422.1504" y1="-374.3328" x2="-421.2571" y2="-374.3328" gradientTransform="matrix(27.3863 0 0 27.3863 11642.8467 10309.3994)">
					<stop  offset="0" style="stop-color:#FBE048"/>
					<stop  offset="0.368" style="stop-color:#D6AF35"/>
					<stop  offset="0.5545" style="stop-color:#C79C2D"/>
					<stop  offset="1" style="stop-color:#D6A229"/>
				</linearGradient>
				
					<rect x="81.7" y="51" style="clip-path:url(#SVGID_00000167381550835896870290000005891250659937766036_);fill:url(#SVGID_00000142859996078410464720000008556186838005839288_);" width="24.5" height="13.7"/>
			</g>
		</g>
		<g>
			<g>
				<defs>
					<polygon id="SVGID_00000106857994039730715070000003144366399408007567_" points="83.3,36.6 103,52.4 100.4,36 					"/>
				</defs>
				<clipPath id="SVGID_00000052794107463197328670000008133942279196903810_">
					<use xlink:href="#SVGID_00000106857994039730715070000003144366399408007567_"  style="overflow:visible;"/>
				</clipPath>
				
					<linearGradient id="SVGID_00000132779454640054144610000016440615414362860694_" gradientUnits="userSpaceOnUse" x1="-422.708" y1="-375.6176" x2="-421.8149" y2="-375.6176" gradientTransform="matrix(21.8227 0 0 21.8227 9308.0459 8241.2451)">
					<stop  offset="0" style="stop-color:#FBE048"/>
					<stop  offset="0.368" style="stop-color:#D6AF35"/>
					<stop  offset="0.5545" style="stop-color:#C79C2D"/>
					<stop  offset="1" style="stop-color:#D6A229"/>
				</linearGradient>
				
					<rect x="83.3" y="36" style="clip-path:url(#SVGID_00000052794107463197328670000008133942279196903810_);fill:url(#SVGID_00000132779454640054144610000016440615414362860694_);" width="19.5" height="16.5"/>
			</g>
		</g>
	</g>
</g>
</svg>
