<?xml version="1.0" encoding="utf-8"?>
<!-- Generator: Adobe Illustrator 24.3.0, SVG Export Plug-In . SVG Version: 6.00 Build 0)  -->
<svg version="1.1" id="Layer_1" xmlns="http://www.w3.org/2000/svg" xmlns:xlink="http://www.w3.org/1999/xlink" x="0px" y="0px"
	 viewBox="0 0 218 59" style="enable-background:new 0 0 218 59;" xml:space="preserve">
<style type="text/css">
	.st0{clip-path:url(#SVGID_2_);fill:url(#SVGID_3_);}
	.st1{clip-path:url(#SVGID_5_);fill:url(#SVGID_6_);}
	.st2{clip-path:url(#SVGID_8_);fill:url(#SVGID_9_);}
	.st3{clip-path:url(#SVGID_11_);fill:url(#SVGID_12_);}
	.st4{clip-path:url(#SVGID_14_);fill:url(#SVGID_15_);}
	.st5{clip-path:url(#SVGID_17_);fill:url(#SVGID_18_);}
	.st6{clip-path:url(#SVGID_20_);fill:url(#SVGID_21_);}
	.st7{clip-path:url(#SVGID_23_);fill:url(#SVGID_24_);}
	.st8{clip-path:url(#SVGID_26_);fill:url(#SVGID_27_);}
	.st9{clip-path:url(#SVGID_29_);fill:url(#SVGID_30_);}
	.st10{clip-path:url(#SVGID_32_);fill:url(#SVGID_33_);}
	.st11{clip-path:url(#SVGID_35_);fill:url(#SVGID_36_);}
	.st12{clip-path:url(#SVGID_38_);fill:url(#SVGID_39_);}
	.st13{clip-path:url(#SVGID_41_);fill:url(#SVGID_42_);}
	.st14{clip-path:url(#SVGID_44_);fill:url(#SVGID_45_);}
	.st15{clip-path:url(#SVGID_47_);fill:url(#SVGID_48_);}
	.st16{clip-path:url(#SVGID_50_);fill:url(#SVGID_51_);}
	.st17{clip-path:url(#SVGID_53_);fill:url(#SVGID_54_);}
	.st18{clip-path:url(#SVGID_56_);fill:url(#SVGID_57_);}
	.st19{clip-path:url(#SVGID_59_);fill:url(#SVGID_60_);}
	.st20{clip-path:url(#SVGID_62_);fill:url(#SVGID_63_);}
	.st21{clip-path:url(#SVGID_65_);fill:url(#SVGID_66_);}
	.st22{clip-path:url(#SVGID_68_);fill:url(#SVGID_69_);}
	.st23{clip-path:url(#SVGID_71_);fill:url(#SVGID_72_);}
	.st24{clip-path:url(#SVGID_74_);fill:url(#SVGID_75_);}
	.st25{clip-path:url(#SVGID_77_);fill:url(#SVGID_78_);}
	.st26{clip-path:url(#SVGID_80_);fill:url(#SVGID_81_);}
	.st27{clip-path:url(#SVGID_83_);fill:url(#SVGID_84_);}
	.st28{clip-path:url(#SVGID_86_);fill:url(#SVGID_87_);}
	.st29{clip-path:url(#SVGID_89_);fill:url(#SVGID_90_);}
	.st30{clip-path:url(#SVGID_92_);fill:url(#SVGID_93_);}
	.st31{clip-path:url(#SVGID_95_);fill:url(#SVGID_96_);}
	.st32{clip-path:url(#SVGID_98_);fill:url(#SVGID_99_);}
	.st33{clip-path:url(#SVGID_101_);fill:url(#SVGID_102_);}
	.st34{clip-path:url(#SVGID_104_);fill:url(#SVGID_105_);}
	.st35{clip-path:url(#SVGID_107_);fill:url(#SVGID_108_);}
	.st36{clip-path:url(#SVGID_110_);fill:url(#SVGID_111_);}
	.st37{clip-path:url(#SVGID_113_);fill:url(#SVGID_114_);}
	.st38{clip-path:url(#SVGID_116_);fill:url(#SVGID_117_);}
	.st39{clip-path:url(#SVGID_119_);fill:url(#SVGID_120_);}
	.st40{clip-path:url(#SVGID_122_);fill:url(#SVGID_123_);}
	.st41{clip-path:url(#SVGID_125_);fill:url(#SVGID_126_);}
	.st42{fill:#9CBE4C;}
	.st43{fill:none;stroke:#221E1F;stroke-width:9.465126e-02;stroke-miterlimit:10;}
</style>
<g>
	<g>
		<g>
			<g>
				<defs>
					<path id="SVGID_1_" d="M48,22.4c-0.4,0.4-1.4,1.4-2.6,2.6c0.9,0.2,1.9,0.5,2.9,0.7c0.9-1.2,2-2.8,2.3-3.1
						c0.5-0.6,0.8-0.8,0.8-1s-0.3-0.4-0.7-0.4C50.4,21.2,49,21.4,48,22.4 M60.4,17.2c0-0.7,0.5-1.1,1.2-1.1c3.3,0,4.9,4.7,4.9,5
						c0,0.1-0.1,0.2-0.3,0.2C64.9,21.2,60.4,19.4,60.4,17.2 M57.6,16.4c0,1.6,1,3.9,5.1,5.2c0.1,0,0.2,0,0.2,0.1
						c0,0.2-1.9,2.8-3.7,3.1c-0.2,0-0.3-0.1-0.3-0.3s0.3-0.7,0.3-1.6c0-0.8-0.2-2-1.8-2c-1.5,0-3.3,0.7-7.7,5
						c1.1,0.2,2.2,0.4,3.3,0.5c1.4-1.7,3.5-3.3,4-3.3c0.3,0,0.5,0.1,0.5,0.3c0.1,0.6-0.8,1-1.3,1.4c-0.6,0.4-0.8,0.6-0.7,1
						c0,0.2,0.3,0.3,0.4,0.6c0,0.1,0,0.2-0.1,0.4c0.7,0.1,1.4,0.1,2.2,0.1c0.3-0.2,0.6-0.3,0.9-0.3c0.2,0,0.3,0.1,0.3,0.3
						c0,0,0,0,0,0.1c1.2,0,2.4,0,3.6-0.1c0.7-1,1.5-2,1.9-2.2c0.7-0.4,1.1-0.8,1.1-1.1c0-0.2-0.5-0.6-0.6-0.8
						c-0.1-0.3,0.2-0.4,0.6-0.3c0.7,0.2,1.2,0.2,1.2,0.7c0,0.4-0.4,2-1.2,3.4c0.6-0.1,1.3-0.2,1.9-0.2c0.6-1.3,0.9-2.6,0.9-3.2
						c0-0.1,0.1-0.3,0.3-0.3c0.3,0,1,0.1,1.4,0.1s0.8,0.3,0.8,1c0,0.4-0.3,1.1-0.7,2c2.3-0.5,4.6-1.1,6.8-1.9c0.1-1.4,0.8-2,0.8-2.5
						c0-0.3-0.1-0.5-0.5-0.5c-0.9,0-2.6,2.1-2.9,2.1c-0.2,0-0.5-0.9-0.8-1.3c-0.4-0.5-1-0.7-2.6-0.7c-0.8,0-1.3,0.1-2,0.1
						c-0.8,0-1,0-1.2-0.4c-0.1-0.4-2.5-6.6-8-6.6C58.9,14.2,57.6,14.8,57.6,16.4 M41.2,18.8c-1.6,1.2-3,2.3-4.1,3.4
						c1,0.4,2.1,0.8,3.3,1.2c0.6-0.8,1.3-1.6,2.2-2.3c3.2-3,6.9-4.4,9.2-4.4c1,0,2.1,0.2,2.3,0.2c0.1,0,0.2,0,0.2-0.1
						c0.1-0.1,1.8-3.2,1.8-3.2v-0.1c0,0-0.3-0.1-1-0.1C52.6,13.4,46.9,14.7,41.2,18.8"/>
				</defs>
				<clipPath id="SVGID_2_">
					<use xlink:href="#SVGID_1_"  style="overflow:visible;"/>
				</clipPath>
				
					<radialGradient id="SVGID_3_" cx="3930.6504" cy="-2152.7361" r="0.9854" gradientTransform="matrix(30.6336 0 0 30.6336 -120343.9531 65972.4453)" gradientUnits="userSpaceOnUse">
					<stop  offset="0" style="stop-color:#9BBC51"/>
					<stop  offset="3.956800e-02" style="stop-color:#9BBC51"/>
					<stop  offset="0.2752" style="stop-color:#89B44B"/>
					<stop  offset="0.6074" style="stop-color:#74AC45"/>
					<stop  offset="0.8309" style="stop-color:#6DA943"/>
					<stop  offset="1" style="stop-color:#6DA943"/>
				</radialGradient>
				<rect x="37.2" y="13.4" class="st0" width="40.8" height="13.6"/>
			</g>
		</g>
		<g>
			<g>
				<defs>
					<path id="SVGID_4_" d="M67.5,30.7c-0.3,0.5-0.6,0.9-0.8,1.2c0,0-0.2,0.3,0.1,0.3H70c0.1,0,0.3-0.1,0.4-0.3
						c0-0.1,0.4-0.6,0.8-1.2C70,30.7,68.8,30.7,67.5,30.7 M58.5,29.7c0,1,0.3,2.5,2.8,2.5c1.4,0,2.6-0.7,3.6-1.8
						C62.9,30.4,60.7,30.1,58.5,29.7L58.5,29.7z M76.3,30.2c0,0.9,0.2,2.3,1.7,2.3c2.9,0,6.6-3.7,6.7-3.7s0.1,0,0.1,0.2
						c0,0.1-0.4,1.6-4.7,6.8c-4.3,5.2-6.4,7.2-6.4,8.4c0,1.1,0.9,1.5,1.4,1.5c0.4,0,2.3-0.1,6.8-7.4c3.2-5.2,4.7-8.4,6.4-10.9
						C85.3,28.6,81.5,29.5,76.3,30.2 M30.2,42.4c0-1.5,5.2-5.4,5.8-5.4c0.1,0,0.2,0.1,0.2,0.2c0,1.2-3.8,5.9-5.3,5.9
						C30.4,43.1,30.2,42.8,30.2,42.4 M33,29.6c0,2.2,2,2.5,3.1,2.5c2.8,0,4-1.3,4.6-1.3c0.6,0-0.3,1.3-1.2,1.8
						c-7,4.2-12.7,7.8-12.7,11.2c0,1.5,1.4,1.6,2.5,1.6c1.1,0,6.3-0.7,14.3-13c0.4-0.6,1-0.9,1.6-1.3c0.6-0.4,2.5-1.8,2.9-1.8
						c0.4,0,0.4,0.2,0.3,0.3c0,0.2-0.3,0.8-0.3,1.4c0,0.7,0.7,1.4,1.8,1.4c2.4,0,4.2-1.7,5.6-3.3c-0.5-0.1-1-0.2-1.6-0.4
						c-0.6,0.5-1.1,0.9-1.4,0.9c-0.6,0-0.7-0.3-0.8-0.6c0-0.2,0-0.5,0.1-0.8c-1.1-0.3-2.3-0.6-3.7-1c-0.4,0.2-0.7,0.4-1,0.3
						c-0.1,0-0.1-0.1,0.1-0.4c0,0,0.1-0.1,0.2-0.2c-1-0.3-2-0.6-3-1c-2,1.9-4.3,3.7-5.6,3.7c-0.5,0-1-0.3-1-1.2
						c0-0.5,0.7-2.3,2.1-4.3c-1.1-0.4-2.1-0.9-3.2-1.4C34.2,25.5,33,27.9,33,29.6"/>
				</defs>
				<clipPath id="SVGID_5_">
					<use xlink:href="#SVGID_4_"  style="overflow:visible;"/>
				</clipPath>
				
					<radialGradient id="SVGID_6_" cx="3883.3735" cy="-2171.8225" r="0.9854" gradientTransform="matrix(23.8218 0 0 23.8218 -92450.0703 51768.6523)" gradientUnits="userSpaceOnUse">
					<stop  offset="0" style="stop-color:#CE447D"/>
					<stop  offset="1" style="stop-color:#BD2B6D"/>
				</radialGradient>
				<rect x="26.9" y="22.8" class="st1" width="61.5" height="22.8"/>
			</g>
		</g>
		<g>
			<g>
				<defs>
					<path id="SVGID_7_" d="M53.9,28.7c0.6,0.1,1.2,0.3,1.6,0.4c0.8-0.9,1.5-1.7,2.2-2.1c-0.7,0-1.4-0.1-2.2-0.1
						C55.3,27.3,54.6,28.1,53.9,28.7 M65.7,26.7c-0.8,1.4-1.8,2.7-3.1,2.7c-0.4,0-0.7-0.2-0.7-0.6c0-0.5,0.3-1.1,0.7-1.8
						c-1.2,0.1-2.4,0.1-3.6,0.1c-0.1,0.4-0.4,1.7-0.5,2.7c2.2,0.4,4.4,0.7,6.4,0.8c1.1-1.1,2.1-2.7,2.7-4.1
						C67,26.5,66.3,26.6,65.7,26.7 M49.1,26.4c-0.2,0.2-0.6,0.5-1,0.8c1.3,0.4,2.6,0.8,3.7,1c0.2-0.5,0.6-1.1,1.1-1.7
						c-1.1-0.1-2.2-0.3-3.3-0.5C49.5,26.1,49.3,26.3,49.1,26.4 M44.4,25.9c1,0.4,2.1,0.7,3,1c0.2-0.3,0.5-0.7,0.9-1.3
						c-1-0.2-1.9-0.5-2.9-0.7C45.1,25.3,44.7,25.6,44.4,25.9 M36.7,22.8c1.1,0.5,2.2,1,3.2,1.4c0.2-0.3,0.4-0.5,0.6-0.8
						c-1.1-0.4-2.2-0.8-3.3-1.2C37,22.5,36.8,22.6,36.7,22.8 M81.1,25.7c0-0.6,2-2.5,2.7-2.5c0.1,0,0.2,0.1,0.2,0.2
						c0,0.8-2,2.6-2.6,2.6C81.2,26,81.1,25.9,81.1,25.7 M87.6,24.1c-2,2.2-4.4,5.1-6.6,5.1c-0.8,0-1.1-0.5-1.1-1
						c0-0.4,0.3-0.7,0.9-0.9c2.1-0.6,5.3-3.3,5.3-5.1c0-0.5-0.2-1-0.9-1c-0.9,0-3.4,0.4-6.5,4.1c-0.3,0.4-0.7,0.7-1,0.7
						c-0.3,0-0.6-0.5-0.6-1.6c0-0.1,0-0.2,0-0.3c-2.2,0.8-4.5,1.4-6.8,1.9c-0.8,1.5-2,3.3-2.8,4.7c1.3,0,2.5,0,3.7,0
						c0.8-1.2,1.9-3,2-3.1s0.2-0.2,0.4-0.2c0.5,0-0.1,1.3,1.7,1.3c0.5,0,1-0.3,1.2-0.3c0.1,0,0.2,0.1,0.2,0.2c0,0.2-0.3,0.7-0.3,1.3
						c0,0.1,0,0.2,0,0.3c5.2-0.7,9-1.6,12.1-2.9c0.7-1,1.7-2.4,2.4-3.1c1.3-1.3,1.7-2,1.7-2.3c0-0.4-0.2-0.8-0.7-0.8
						C91.2,21.2,89.6,21.9,87.6,24.1 M91.4,19.7c0,0.5,0.8,0.9,1.1,0.9c0.4,0,1.8-0.9,1.8-2.2c0-0.5-0.3-1-0.8-1
						C92.9,17.5,91.4,19,91.4,19.7"/>
				</defs>
				<clipPath id="SVGID_8_">
					<use xlink:href="#SVGID_7_"  style="overflow:visible;"/>
				</clipPath>
				
					<radialGradient id="SVGID_9_" cx="3862.3887" cy="-2180.2854" r="0.9854" gradientTransform="matrix(21.6824 0 0 21.6824 -83680.2266 47297.8477)" gradientUnits="userSpaceOnUse">
					<stop  offset="0" style="stop-color:#54B0DF"/>
					<stop  offset="6.474800e-02" style="stop-color:#54B0DF"/>
					<stop  offset="0.3827" style="stop-color:#45A2D6"/>
					<stop  offset="0.9935" style="stop-color:#1D7CBD"/>
					<stop  offset="1" style="stop-color:#1D7CBD"/>
				</radialGradient>
				<rect x="36.7" y="17.5" class="st2" width="57.7" height="13.2"/>
			</g>
		</g>
		<g>
			<g>
				<defs>
					<path id="SVGID_10_" d="M73.1,27.5l-0.7,1c-0.4,0.6-0.9,1.4-1.4,2.1c0.1,0,0.3,0,0.4,0c0.4-0.5,0.8-1.2,1.3-1.9l0.7-1
						c0-0.1,0.2-0.2,0.2-0.2s0.1,0,0.1,0.2c0.1,0.4,0.3,1,1.6,1c0.4,0,0.7-0.1,1-0.2c0.1,0,0.2-0.1,0.2-0.1v0.1c0,0,0,0.2-0.1,0.3
						c-0.1,0.3-0.2,0.6-0.2,1c0,0.1,0,0.2,0,0.3c0.1,0,0.2,0,0.3,0v-0.3c0-0.4,0.1-0.7,0.2-0.9s0.1-0.3,0.1-0.4
						c0-0.4-0.2-0.4-0.3-0.4s-0.2,0-0.3,0.1c-0.2,0.1-0.5,0.2-0.9,0.2c-1.1,0-1.2-0.5-1.3-0.8c-0.1-0.2-0.1-0.5-0.4-0.5
						C73.4,27.2,73.2,27.3,73.1,27.5"/>
				</defs>
				<clipPath id="SVGID_11_">
					<use xlink:href="#SVGID_10_"  style="overflow:visible;"/>
				</clipPath>
				
					<linearGradient id="SVGID_12_" gradientUnits="userSpaceOnUse" x1="3002.7651" y1="-1720.7936" x2="3003.7505" y2="-1720.7936" gradientTransform="matrix(3.6059 3.0749 -3.0749 3.6059 -16046.5869 -3000.5547)">
					<stop  offset="0" style="stop-color:#3A82C4"/>
					<stop  offset="0.43" style="stop-color:#4699D3"/>
					<stop  offset="0.7775" style="stop-color:#52A9DD"/>
					<stop  offset="1" style="stop-color:#5CB5E5"/>
				</linearGradient>
				<polygon class="st3" points="73.4,24.4 78.5,28.7 74.3,33.5 69.3,29.2 				"/>
			</g>
		</g>
		<g>
			<g>
				<defs>
					<path id="SVGID_13_" d="M65.5,26.7c-0.3,0.6-0.7,1.1-1.1,1.6c-0.6,0.6-1.2,0.9-1.8,0.9c-0.2,0-0.5-0.1-0.5-0.5
						c0-0.5,0.3-1.2,0.8-1.8c-0.1,0-0.3,0-0.4,0c-0.4,0.7-0.7,1.3-0.7,1.8s0.3,0.8,0.8,0.8c0.7,0,1.4-0.4,2.1-1
						c0.5-0.5,0.9-1.2,1.3-1.8C65.8,26.7,65.7,26.7,65.5,26.7"/>
				</defs>
				<clipPath id="SVGID_14_">
					<use xlink:href="#SVGID_13_"  style="overflow:visible;"/>
				</clipPath>
				
					<linearGradient id="SVGID_15_" gradientUnits="userSpaceOnUse" x1="2839.0667" y1="-1895.2991" x2="2840.052" y2="-1895.2991" gradientTransform="matrix(3.698 2.1874 -2.1874 3.698 -14582.8066 825.5739)">
					<stop  offset="0" style="stop-color:#1D7CBD"/>
					<stop  offset="0.2444" style="stop-color:#3C91CB"/>
					<stop  offset="0.5635" style="stop-color:#5EA9DB"/>
					<stop  offset="0.8269" style="stop-color:#73B8E4"/>
					<stop  offset="1" style="stop-color:#7BBDE8"/>
				</linearGradient>
				<polygon class="st4" points="62.8,24.8 67.1,27.4 64.8,31.4 60.5,28.8 				"/>
			</g>
		</g>
		<g>
			<g>
				<defs>
					<path id="SVGID_16_" d="M85.9,22.2c0,1.8-3.2,4.4-5.2,5c-0.6,0.2-1,0.6-1,1H80c0-0.3,0.3-0.6,0.7-0.7c2-0.6,5.4-3.3,5.4-5.2
						L85.9,22.2L85.9,22.2z"/>
				</defs>
				<clipPath id="SVGID_17_">
					<use xlink:href="#SVGID_16_"  style="overflow:visible;"/>
				</clipPath>
				
					<linearGradient id="SVGID_18_" gradientUnits="userSpaceOnUse" x1="3320.1362" y1="-2399.1287" x2="3321.1216" y2="-2399.1287" gradientTransform="matrix(6.5288 0 0 6.5288 -21596.6797 15688.6309)">
					<stop  offset="0" style="stop-color:#0B72AE"/>
					<stop  offset="1" style="stop-color:#046BA8"/>
				</linearGradient>
				<rect x="79.8" y="22.2" class="st5" width="6.4" height="6"/>
			</g>
		</g>
		<g>
			<g>
				<defs>
					<path id="SVGID_19_" d="M78.7,25.2c-0.3,0.4-0.7,0.6-0.9,0.6c-0.2,0-0.5-0.4-0.5-1.5c0-0.1,0-0.3,0-0.4c-0.1,0-0.2,0.1-0.3,0.1
						c0,0.1,0,0.2,0,0.3c0,1.2,0.4,1.8,0.8,1.8c0.4,0,0.9-0.5,1.1-0.7c0.4-0.5,0.8-0.9,1.1-1.3l-0.1-0.3
						C79.5,24.3,79.1,24.7,78.7,25.2"/>
				</defs>
				<clipPath id="SVGID_20_">
					<use xlink:href="#SVGID_19_"  style="overflow:visible;"/>
				</clipPath>
				
					<linearGradient id="SVGID_21_" gradientUnits="userSpaceOnUse" x1="6312.4575" y1="-910.0073" x2="6313.4429" y2="-910.0073" gradientTransform="matrix(-2.1652 0.2265 -0.2265 -2.1652 13540.043 -3375.0552)">
					<stop  offset="0" style="stop-color:#5BB4E5"/>
					<stop  offset="0.6" style="stop-color:#3695D1"/>
					<stop  offset="1" style="stop-color:#1B7BBD"/>
				</linearGradient>
				<polygon class="st6" points="80.3,26.2 77,26.5 76.8,23.9 80,23.6 				"/>
			</g>
		</g>
		<g>
			<g>
				<defs>
					<path id="SVGID_22_" d="M79.9,23.9l0.1,0.3c2.6-2.6,4.6-2.8,5.2-2.8c0.7,0,0.7,0.7,0.7,0.8h0.3c0-0.6-0.3-1.2-1-1.2
						C84.4,21.1,82.5,21.4,79.9,23.9"/>
				</defs>
				<clipPath id="SVGID_23_">
					<use xlink:href="#SVGID_22_"  style="overflow:visible;"/>
				</clipPath>
				
					<linearGradient id="SVGID_24_" gradientUnits="userSpaceOnUse" x1="2063.2483" y1="-2692.7424" x2="2064.2336" y2="-2692.7424" gradientTransform="matrix(2.5637 0.2404 -0.2404 2.5637 -5854.2183 6429.9917)">
					<stop  offset="0" style="stop-color:#5BB4E5"/>
					<stop  offset="0.6" style="stop-color:#348BC3"/>
					<stop  offset="0.7932" style="stop-color:#1F7DB7"/>
					<stop  offset="1" style="stop-color:#046BA8"/>
				</linearGradient>
				<polygon class="st7" points="80,20.5 86.5,21.1 86.2,24.8 79.6,24.2 				"/>
			</g>
		</g>
		<g>
			<g>
				<defs>
					<path id="SVGID_25_" d="M81.3,25.7c0-0.5,2-2.4,2.5-2.4h0.1C83.9,24,82,25.7,81.3,25.7C81.3,25.8,81.3,25.8,81.3,25.7 M81,25.7
						c0,0.3,0.2,0.4,0.4,0.4c0.7,0,2.8-1.9,2.8-2.7c0-0.2-0.2-0.3-0.4-0.3C83,23.1,81,25,81,25.7"/>
				</defs>
				<clipPath id="SVGID_26_">
					<use xlink:href="#SVGID_25_"  style="overflow:visible;"/>
				</clipPath>
				
					<linearGradient id="SVGID_27_" gradientUnits="userSpaceOnUse" x1="5805.8584" y1="-3101.1421" x2="5806.8438" y2="-3101.1421" gradientTransform="matrix(-1.6656 -2.1845 2.1845 -1.6656 16528.1133 7543.353)">
					<stop  offset="0" style="stop-color:#43A4D0"/>
					<stop  offset="0.2511" style="stop-color:#3D9CCB"/>
					<stop  offset="0.6299" style="stop-color:#2B88BD"/>
					<stop  offset="1" style="stop-color:#146DAB"/>
				</linearGradient>
				<polygon class="st8" points="82.1,27.7 79.5,24.2 83,21.5 85.7,25 				"/>
			</g>
		</g>
		<g>
			<g>
				<defs>
					<path id="SVGID_28_" d="M91.5,19.7c0-0.6,1.4-2.1,2-2.1c0.4,0,0.6,0.4,0.6,0.8c0,1.2-1.3,2-1.7,2
						C92.2,20.5,91.5,20.2,91.5,19.7 M91.2,19.7c0,0.7,0.9,1.1,1.3,1.1c0.5,0,2-1,2-2.3c0-0.5-0.4-1.1-1-1.1
						C92.8,17.4,91.2,18.9,91.2,19.7"/>
				</defs>
				<clipPath id="SVGID_29_">
					<use xlink:href="#SVGID_28_"  style="overflow:visible;"/>
				</clipPath>
				
					<linearGradient id="SVGID_30_" gradientUnits="userSpaceOnUse" x1="674.2847" y1="-2051.155" x2="675.27" y2="-2051.155" gradientTransform="matrix(1.4742 0.6124 -0.6124 1.4742 -2158.3987 2629.5225)">
					<stop  offset="0" style="stop-color:#5BB4E5"/>
					<stop  offset="0.6" style="stop-color:#3588BD"/>
					<stop  offset="0.7715" style="stop-color:#227AB1"/>
					<stop  offset="1" style="stop-color:#03649D"/>
				</linearGradient>
				<polygon class="st9" points="91.7,16.2 95.7,17.9 94,22 90,20.3 				"/>
			</g>
		</g>
		<g>
			<g>
				<defs>
					<path id="SVGID_31_" d="M87.5,24l-0.6,0.7c-1.9,2.1-4,4.4-5.9,4.4c-0.7,0-0.9-0.5-0.9-0.9h-0.3c0,0.7,0.4,1.1,1,1.2
						c0.7,0,1.1-0.1,1.9-0.5c1.5-0.8,3-2.5,4.4-4l0.6-0.7c2-2.2,3.6-2.9,4-2.9V21C91.2,21,89.5,21.8,87.5,24"/>
				</defs>
				<clipPath id="SVGID_32_">
					<use xlink:href="#SVGID_31_"  style="overflow:visible;"/>
				</clipPath>
				
					<linearGradient id="SVGID_33_" gradientUnits="userSpaceOnUse" x1="3413.2988" y1="-3091.7625" x2="3414.2842" y2="-3091.7625" gradientTransform="matrix(3.732 -2.5034 2.5034 3.732 -4912.106 20108.0781)">
					<stop  offset="0" style="stop-color:#0B72AE"/>
					<stop  offset="0.4" style="stop-color:#2E8DC5"/>
					<stop  offset="1" style="stop-color:#5BB4E5"/>
				</linearGradient>
				<polygon class="st10" points="75.9,23.6 88,15.5 95.6,26.8 83.5,34.9 				"/>
			</g>
		</g>
		<g>
			<g>
				<defs>
					<path id="SVGID_34_" d="M91.7,21.3c0.4,0,0.6,0.3,0.6,0.6c0,0.1-0.1,0.7-1.6,2.2c-0.8,0.7-1.8,2.2-2.5,3.3
						c0.2-0.1,0.4-0.2,0.5-0.2c0.6-0.9,1.6-2.2,2.2-2.8c1.1-1.1,1.7-1.9,1.7-2.4s-0.3-0.9-0.9-0.9C91.7,21.1,91.7,21.3,91.7,21.3z"
						/>
				</defs>
				<clipPath id="SVGID_35_">
					<use xlink:href="#SVGID_34_"  style="overflow:visible;"/>
				</clipPath>
				
					<linearGradient id="SVGID_36_" gradientUnits="userSpaceOnUse" x1="2596.5984" y1="-1080.9169" x2="2597.5837" y2="-1080.9169" gradientTransform="matrix(1.7004 2.5032 -2.5032 1.7004 -7032.8599 -4640.8755)">
					<stop  offset="0" style="stop-color:#5BB4E5"/>
					<stop  offset="0.43" style="stop-color:#3588BD"/>
					<stop  offset="0.6743" style="stop-color:#227AB1"/>
					<stop  offset="1" style="stop-color:#03649D"/>
				</linearGradient>
				<polygon class="st11" points="91.2,18.9 95.6,25.4 89.5,29.5 85.1,23 				"/>
			</g>
		</g>
		<g>
			<g>
				<defs>
					<path id="SVGID_37_" d="M51.5,29c0,0.5,0.4,0.7,0.9,0.7c0.4,0,1-0.4,1.6-1c-0.1,0-0.2-0.1-0.4-0.1c-0.5,0.4-1,0.7-1.3,0.7
						c-0.4,0-0.6-0.1-0.6-0.4c0-0.2,0-0.4,0.2-0.7c-0.1,0-0.2-0.1-0.3-0.1C51.6,28.5,51.5,28.8,51.5,29"/>
				</defs>
				<clipPath id="SVGID_38_">
					<use xlink:href="#SVGID_37_"  style="overflow:visible;"/>
				</clipPath>
				
					<linearGradient id="SVGID_39_" gradientUnits="userSpaceOnUse" x1="2213.4431" y1="-2845.854" x2="2214.4285" y2="-2845.854" gradientTransform="matrix(2.6905 0 0 2.6905 -5904.2793 7685.7705)">
					<stop  offset="0" style="stop-color:#AE1F5F"/>
					<stop  offset="0.43" style="stop-color:#C14772"/>
					<stop  offset="0.9447" style="stop-color:#D9648C"/>
					<stop  offset="1" style="stop-color:#DC678F"/>
				</linearGradient>
				<rect x="51.5" y="28.2" class="st12" width="2.6" height="1.6"/>
			</g>
		</g>
		<g>
			<g>
				<defs>
					<path id="SVGID_40_" d="M47.1,27.1c-0.1,0.2-0.2,0.3-0.1,0.5c0,0.1,0.1,0.1,0.2,0.1c0.4,0,0.8-0.2,1.2-0.4
						c-0.1,0-0.3-0.1-0.4-0.1c-0.2,0.1-0.5,0.2-0.7,0.3c0,0,0-0.1,0.1-0.1c0,0,0.1-0.1,0.2-0.3c-0.1,0-0.2-0.1-0.3-0.1
						C47.2,27,47.1,27,47.1,27.1"/>
				</defs>
				<clipPath id="SVGID_41_">
					<use xlink:href="#SVGID_40_"  style="overflow:visible;"/>
				</clipPath>
				
					<linearGradient id="SVGID_42_" gradientUnits="userSpaceOnUse" x1="2098.4507" y1="-2892.2515" x2="2099.436" y2="-2892.2515" gradientTransform="matrix(2.5356 0 0 2.5356 -5275.0562 7360.8926)">
					<stop  offset="0" style="stop-color:#A01E57"/>
					<stop  offset="0.5832" style="stop-color:#C14273"/>
					<stop  offset="1" style="stop-color:#D45783"/>
				</linearGradient>
				<rect x="46.9" y="26.9" class="st13" width="1.4" height="0.8"/>
			</g>
		</g>
		<g>
			<g>
				<defs>
					<path id="SVGID_43_" d="M30.4,42.4c0-1.4,5-5.2,5.6-5.3l0,0l0,0l0,0c0,0.7-1.5,2.8-2.9,4.3c-0.9,0.9-1.7,1.5-2.2,1.5
						C30.5,42.9,30.4,42.7,30.4,42.4 M32.8,39c-1,0.9-2.7,2.4-2.7,3.4c0,0.5,0.3,0.9,0.9,0.9c0.7,0,1.7-0.9,2.4-1.6
						c1.4-1.4,3-3.7,3-4.5c0-0.1,0-0.2-0.1-0.3c-0.1-0.1-0.2-0.1-0.3-0.1C35.6,36.8,34,37.9,32.8,39"/>
				</defs>
				<clipPath id="SVGID_44_">
					<use xlink:href="#SVGID_43_"  style="overflow:visible;"/>
				</clipPath>
				
					<linearGradient id="SVGID_45_" gradientUnits="userSpaceOnUse" x1="3177.0032" y1="-1466.2372" x2="3177.9885" y2="-1466.2372" gradientTransform="matrix(2.757 4.084 -4.084 2.757 -14715.6426 -8895.0498)">
					<stop  offset="0" style="stop-color:#AE1F5F"/>
					<stop  offset="0.43" style="stop-color:#C14772"/>
					<stop  offset="0.9447" style="stop-color:#D9648C"/>
					<stop  offset="1" style="stop-color:#DC678F"/>
				</linearGradient>
				<polygon class="st14" points="34.4,33.9 39.3,41.2 32,46.1 27.1,38.8 				"/>
			</g>
		</g>
		<g>
			<g>
				<defs>
					<path id="SVGID_46_" d="M37.6,28.5c0,1,0.6,1.3,1.1,1.3c1.3,0,3.5-1.7,5.8-3.8c-0.1,0-0.2-0.1-0.3-0.1c-2,1.8-4.2,3.6-5.5,3.6
						c-0.5,0-0.8-0.4-0.8-1c0-0.5,0.7-2.3,2.1-4.2c-0.1-0.1-0.2-0.1-0.3-0.1C38.3,26.1,37.6,27.9,37.6,28.5"/>
				</defs>
				<clipPath id="SVGID_47_">
					<use xlink:href="#SVGID_46_"  style="overflow:visible;"/>
				</clipPath>
				
					<linearGradient id="SVGID_48_" gradientUnits="userSpaceOnUse" x1="3240.6904" y1="-1890.2878" x2="3241.6758" y2="-1890.2878" gradientTransform="matrix(5.1068 3.5593 -3.5593 5.1068 -23239.5449 -1856.3562)">
					<stop  offset="0" style="stop-color:#A01E57"/>
					<stop  offset="0.43" style="stop-color:#BD426F"/>
					<stop  offset="0.9302" style="stop-color:#D8628B"/>
					<stop  offset="1" style="stop-color:#DC678F"/>
				</linearGradient>
				<polygon class="st15" points="39.9,20.9 47.2,26 42.3,33.1 35,28 				"/>
			</g>
		</g>
		<g>
			<g>
				<defs>
					<path id="SVGID_49_" d="M26.7,43.8L26.7,43.8H27c0-3.2,5.2-6.6,12.6-11.1l-0.2-0.3C32,37,26.7,40.4,26.7,43.8"/>
				</defs>
				<clipPath id="SVGID_50_">
					<use xlink:href="#SVGID_49_"  style="overflow:visible;"/>
				</clipPath>
				
					<linearGradient id="SVGID_51_" gradientUnits="userSpaceOnUse" x1="3414.2939" y1="-2995.4976" x2="3415.2793" y2="-2995.4976" gradientTransform="matrix(4.1118 -2.4868 2.4868 4.1118 -6554.1714 20844.2578)">
					<stop  offset="0" style="stop-color:#DC678F"/>
					<stop  offset="0.43" style="stop-color:#C24873"/>
					<stop  offset="1" style="stop-color:#AE1F5F"/>
				</linearGradient>
				<polygon class="st16" points="21.7,35.5 36.2,26.7 44.7,40.7 30.2,49.5 				"/>
			</g>
		</g>
		<g>
			<g>
				<defs>
					<path id="SVGID_52_" d="M32.9,29.6c0,1.7,1.2,2.6,3.3,2.6v-0.3c-1.1,0-3-0.3-3-2.3c0-1.6,1-3.9,3.6-6.7
						c-0.1-0.1-0.2-0.1-0.3-0.1C33.9,25.5,32.9,28,32.9,29.6"/>
				</defs>
				<clipPath id="SVGID_53_">
					<use xlink:href="#SVGID_52_"  style="overflow:visible;"/>
				</clipPath>
				
					<linearGradient id="SVGID_54_" gradientUnits="userSpaceOnUse" x1="1365.9722" y1="-511.3733" x2="1366.9575" y2="-511.3733" gradientTransform="matrix(1.0681 1.3648 -1.3648 1.0681 -2121.6262 -1290.0837)">
					<stop  offset="0" style="stop-color:#DC678F"/>
					<stop  offset="0.43" style="stop-color:#C24873"/>
					<stop  offset="1" style="stop-color:#AE1F5F"/>
				</linearGradient>
				<polygon class="st17" points="35.3,20.8 41.4,28.6 34.4,34.1 28.3,26.3 				"/>
			</g>
		</g>
		<g>
			<g>
				<defs>
					<path id="SVGID_55_" d="M49.9,32.2c-1,0-1.6-0.7-1.6-1.3H48c0,0.8,0.8,1.6,1.9,1.6c2.5,0,4.4-1.8,5.8-3.4
						c-0.1,0-0.2-0.1-0.4-0.1C53.9,30.6,52.2,32.2,49.9,32.2"/>
				</defs>
				<clipPath id="SVGID_56_">
					<use xlink:href="#SVGID_55_"  style="overflow:visible;"/>
				</clipPath>
				
					<linearGradient id="SVGID_57_" gradientUnits="userSpaceOnUse" x1="6274.6733" y1="-2122.2539" x2="6275.6587" y2="-2122.2539" gradientTransform="matrix(-2.3086 -0.9767 0.9767 -2.3086 16608.7949 1259.1892)">
					<stop  offset="0" style="stop-color:#A01E57"/>
					<stop  offset="0.43" style="stop-color:#BE4D76"/>
					<stop  offset="0.911" style="stop-color:#D47293"/>
					<stop  offset="1" style="stop-color:#D97A99"/>
				</linearGradient>
				<polygon class="st18" points="54.5,35.3 46.7,32 49.1,26.3 56.9,29.6 				"/>
			</g>
		</g>
		<g>
			<g>
				<defs>
					<path id="SVGID_58_" d="M45.2,30.8L45.2,30.8l-0.5,0.3c-0.5,0.3-0.9,0.6-1.3,1.1c-8,12.3-13.2,13-14.1,13
						c-1.4,0-2.3-0.2-2.3-1.4h-0.3c0,1.8,1.8,1.8,2.6,1.8c0.6,0,2.2-0.2,4.6-1.9c3.1-2.2,6.4-5.9,9.8-11.2c0.3-0.4,0.7-0.7,1.2-1
						l0.4-0.3l0.1-0.1c1.9-1.4,2.5-1.7,2.6-1.7c0.1,0,0.2,0,0.2,0l0.2-0.2c-0.1-0.1-0.2-0.1-0.4-0.1C47.8,29,47,29.5,45.2,30.8"/>
				</defs>
				<clipPath id="SVGID_59_">
					<use xlink:href="#SVGID_58_"  style="overflow:visible;"/>
				</clipPath>
				
					<linearGradient id="SVGID_60_" gradientUnits="userSpaceOnUse" x1="3098.1973" y1="-1969.1304" x2="3099.1826" y2="-1969.1304" gradientTransform="matrix(4.7705 2.6075 -2.6075 4.7705 -19888.6797 1346.0465)">
					<stop  offset="0" style="stop-color:#DC678F"/>
					<stop  offset="0.43" style="stop-color:#BF4570"/>
					<stop  offset="1" style="stop-color:#A01E57"/>
				</linearGradient>
				<polygon class="st19" points="31.7,19.9 55.4,32.8 43.4,54.7 19.7,41.8 				"/>
			</g>
		</g>
		<g>
			<g>
				<defs>
					<path id="SVGID_61_" d="M58.4,29.6L58.4,29.6c0,1.9,1,2.8,2.9,2.8c1.4,0,2.7-0.8,3.8-1.9c-0.1,0-0.3,0-0.4,0
						c-0.9,0.9-2.1,1.6-3.4,1.6c-1.8,0-2.6-0.8-2.6-2.4v-0.1C58.6,29.7,58.5,29.6,58.4,29.6z"/>
				</defs>
				<clipPath id="SVGID_62_">
					<use xlink:href="#SVGID_61_"  style="overflow:visible;"/>
				</clipPath>
				
					<linearGradient id="SVGID_63_" gradientUnits="userSpaceOnUse" x1="2562.4678" y1="-2572.7195" x2="2563.4531" y2="-2572.7195" gradientTransform="matrix(3.3851 0.2587 -0.2587 3.3851 -9281.3926 8076.7471)">
					<stop  offset="0" style="stop-color:#D97A99"/>
					<stop  offset="8.900043e-02" style="stop-color:#D47293"/>
					<stop  offset="0.57" style="stop-color:#BE4D76"/>
					<stop  offset="1" style="stop-color:#A01E57"/>
				</linearGradient>
				<polygon class="st20" points="58.4,29.1 65.3,29.6 65,32.9 58.1,32.4 				"/>
			</g>
		</g>
		<g>
			<g>
				<defs>
					<path id="SVGID_64_" d="M67.1,30.9l-0.5,0.8c0,0-0.1,0.1-0.1,0.3v0.1c0,0.1,0.1,0.2,0.3,0.2H70c0.2,0,0.3-0.1,0.5-0.3
						c0-0.1,0.4-0.6,0.8-1.3c-0.1,0-0.3,0-0.4,0c-0.4,0.6-0.7,1-0.7,1.1C70.1,31.9,70,32,70,32h-3.2l0,0l0,0l0.5-0.8
						c0.1-0.1,0.2-0.3,0.3-0.5c-0.1,0-0.2,0-0.4,0C67.3,30.7,67.2,30.8,67.1,30.9"/>
				</defs>
				<clipPath id="SVGID_65_">
					<use xlink:href="#SVGID_64_"  style="overflow:visible;"/>
				</clipPath>
				
					<linearGradient id="SVGID_66_" gradientUnits="userSpaceOnUse" x1="5782.9248" y1="-3001.4058" x2="5783.9102" y2="-3001.4058" gradientTransform="matrix(-1.8116 -2.195 2.195 -1.8116 17134.1934 7288.5879)">
					<stop  offset="0" style="stop-color:#A01E57"/>
					<stop  offset="0.43" style="stop-color:#BD426F"/>
					<stop  offset="0.9302" style="stop-color:#D8628B"/>
					<stop  offset="1" style="stop-color:#DC678F"/>
				</linearGradient>
				<polygon class="st21" points="68.5,34.6 65.7,31.3 69.4,28.2 72.2,31.6 				"/>
			</g>
		</g>
		<g>
			<g>
				<defs>
					<path id="SVGID_67_" d="M76.2,30.2L76.2,30.2c0,0.7,0.1,1.4,0.6,1.9c0.3,0.3,0.7,0.5,1.3,0.5v-0.3c-0.4,0-0.8-0.1-1-0.4
						c-0.4-0.5-0.5-1.2-0.5-1.7C76.4,30.2,76.3,30.2,76.2,30.2"/>
				</defs>
				<clipPath id="SVGID_68_">
					<use xlink:href="#SVGID_67_"  style="overflow:visible;"/>
				</clipPath>
				
					<linearGradient id="SVGID_69_" gradientUnits="userSpaceOnUse" x1="15276.4531" y1="-7307.5723" x2="15277.4385" y2="-7307.5723" gradientTransform="matrix(-0.3018 -0.3238 0.3238 -0.3018 7054.1958 2773.031)">
					<stop  offset="0" style="stop-color:#BF4174"/>
					<stop  offset="0.7" style="stop-color:#C7497A"/>
					<stop  offset="1" style="stop-color:#D45584"/>
				</linearGradient>
				<polygon class="st22" points="77,33.6 74.9,31.3 77.2,29.3 79.2,31.5 				"/>
			</g>
		</g>
		<g>
			<g>
				<defs>
					<path id="SVGID_70_" d="M48.4,29.3L48.4,29.3c-0.1,0.1-0.1,0.1-0.1,0.2v0.1c0,0,0,0.2-0.1,0.3C48.1,30.2,48,30.5,48,31h0.3
						c0-0.4,0.1-0.7,0.2-1c0.1-0.2,0.1-0.3,0.1-0.4v-0.1c0-0.1,0-0.3-0.1-0.3L48.4,29.3z"/>
				</defs>
				<clipPath id="SVGID_71_">
					<use xlink:href="#SVGID_70_"  style="overflow:visible;"/>
				</clipPath>
				
					<linearGradient id="SVGID_72_" gradientUnits="userSpaceOnUse" x1="5281.6758" y1="-5936.042" x2="5282.6611" y2="-5936.042" gradientTransform="matrix(0.115 -1.351 1.351 0.115 7460.3857 7849.1353)">
					<stop  offset="0" style="stop-color:#D97A99"/>
					<stop  offset="0.1062" style="stop-color:#D26E8F"/>
					<stop  offset="0.43" style="stop-color:#C04E75"/>
					<stop  offset="0.4326" style="stop-color:#C04E75"/>
					<stop  offset="1" style="stop-color:#A01E57"/>
				</linearGradient>
				<polygon class="st23" points="47.8,30.9 48,29.1 48.7,29.2 48.5,31 				"/>
			</g>
		</g>
		<g>
			<g>
				<defs>
					<path id="SVGID_73_" d="M80.1,35.6C79,37,78,38.1,77.2,39.1c-2.4,2.8-3.5,4.1-3.5,4.9c0,0.4,0.1,0.8,0.3,1l0.2-0.2
						C74.1,44.6,74,44.3,74,44c0-0.8,1.1-2.1,3.4-4.8c0.8-1,1.8-2.1,2.9-3.5c1.5-1.9,2.6-3.2,3.3-4.3l-0.3,0.1
						C82.6,32.4,81.6,33.8,80.1,35.6"/>
				</defs>
				<clipPath id="SVGID_74_">
					<use xlink:href="#SVGID_73_"  style="overflow:visible;"/>
				</clipPath>
				
					<linearGradient id="SVGID_75_" gradientUnits="userSpaceOnUse" x1="3900.3389" y1="-2720.157" x2="3901.3242" y2="-2720.157" gradientTransform="matrix(5.1943 -6.3852 6.3852 5.1943 -2812.4934 39072.4766)">
					<stop  offset="0" style="stop-color:#D97A99"/>
					<stop  offset="0.1062" style="stop-color:#D26E8F"/>
					<stop  offset="0.43" style="stop-color:#C04E75"/>
					<stop  offset="0.4326" style="stop-color:#C04E75"/>
					<stop  offset="1" style="stop-color:#A01E57"/>
				</linearGradient>
				<polygon class="st24" points="67,39.7 77.6,26.6 90.3,36.9 79.6,50 				"/>
			</g>
		</g>
		<g>
			<g>
				<defs>
					<path id="SVGID_76_" d="M88.1,27.4c-0.8,1.2-1.3,2.2-2.3,3.9c-1.1,2-2.4,4.2-4,6.8c-3.9,6.3-5.8,7.3-6.6,7.3
						c-0.2,0-0.7-0.1-1-0.6L74,45c0.4,0.4,0.9,0.6,1.2,0.6c1.5,0,3.9-2.6,6.9-7.4c1.6-2.6,2.9-4.9,4-6.8c1.1-1.9,1.6-3,2.5-4.3
						C88.5,27.3,88.3,27.3,88.1,27.4"/>
				</defs>
				<clipPath id="SVGID_77_">
					<use xlink:href="#SVGID_76_"  style="overflow:visible;"/>
				</clipPath>
				
					<linearGradient id="SVGID_78_" gradientUnits="userSpaceOnUse" x1="3158.9612" y1="-2133.512" x2="3159.9465" y2="-2133.512" gradientTransform="matrix(5.5023 1.9027 -1.9027 5.5023 -21367.4121 5762.4736)">
					<stop  offset="0" style="stop-color:#D97A99"/>
					<stop  offset="6.346724e-02" style="stop-color:#D26E8F"/>
					<stop  offset="0.257" style="stop-color:#C04E75"/>
					<stop  offset="0.2604" style="stop-color:#C04E75"/>
					<stop  offset="1" style="stop-color:#A01E57"/>
				</linearGradient>
				<polygon class="st25" points="75.6,22.7 94.4,29.2 87.1,50.3 68.3,43.8 				"/>
			</g>
		</g>
		<g>
			<g>
				<defs>
					<path id="SVGID_79_" d="M84.7,28.6c-0.1,0-0.1,0-0.5,0.4c-1.1,0.9-3.9,3.4-6.2,3.4v0.3c2.5,0,5.4-2.5,6.4-3.4
						c0.1-0.1,0.2-0.2,0.3-0.2c-0.1,0.2-0.3,0.9-1.5,2.5l0.3,0.1c1.4-2.1,1.5-2.6,1.5-2.6c0-0.1,0-0.2-0.1-0.3
						C84.9,28.6,84.9,28.6,84.7,28.6C84.8,28.6,84.8,28.6,84.7,28.6"/>
				</defs>
				<clipPath id="SVGID_80_">
					<use xlink:href="#SVGID_79_"  style="overflow:visible;"/>
				</clipPath>
				
					<linearGradient id="SVGID_81_" gradientUnits="userSpaceOnUse" x1="3387.9241" y1="-2371.7751" x2="3388.9094" y2="-2371.7751" gradientTransform="matrix(7.1538 0 0 7.1538 -24158.502 16997.8555)">
					<stop  offset="0" style="stop-color:#BF4174"/>
					<stop  offset="0.43" style="stop-color:#B03264"/>
					<stop  offset="1" style="stop-color:#A01E57"/>
				</linearGradient>
				<rect x="78" y="28.6" class="st26" width="7" height="4.1"/>
			</g>
		</g>
		<g>
			<g>
				<defs>
					<path id="SVGID_82_" d="M68.4,23.2c0,0.7-0.3,1.9-1,3.3c0.1,0,0.2,0,0.4-0.1c0.6-1.3,0.9-2.5,0.9-3.2c0-0.1,0-0.2,0.1-0.2
						c0.2,0,0.8,0.1,1.2,0.1h0.2c0.3,0,0.7,0.2,0.7,0.9c0,0.4-0.3,1.2-0.7,2c0.1,0,0.3-0.1,0.4-0.1c0.4-0.8,0.7-1.5,0.7-1.9
						c0-0.7-0.5-1.1-1-1.2h-0.2c-0.4,0-1-0.1-1.2-0.1C68.5,22.7,68.4,22.9,68.4,23.2"/>
				</defs>
				<clipPath id="SVGID_83_">
					<use xlink:href="#SVGID_82_"  style="overflow:visible;"/>
				</clipPath>
				
					<linearGradient id="SVGID_84_" gradientUnits="userSpaceOnUse" x1="1746.8101" y1="-1230.6803" x2="1747.7954" y2="-1230.6803" gradientTransform="matrix(1.624 1.4616 -1.4616 1.624 -4566.5117 -530.1308)">
					<stop  offset="0" style="stop-color:#66AF45"/>
					<stop  offset="0.3861" style="stop-color:#7CB548"/>
					<stop  offset="1" style="stop-color:#9CBE4C"/>
				</linearGradient>
				<polygon class="st27" points="69.1,20.8 73.1,24.4 69.5,28.4 65.5,24.8 				"/>
			</g>
		</g>
		<g>
			<g>
				<defs>
					<path id="SVGID_85_" d="M60.5,17.2c0-0.6,0.4-1,1-1c3.1,0,4.8,4.5,4.8,4.8c0,0,0,0.1-0.2,0.1C65,21.1,60.5,19.3,60.5,17.2
						 M60.2,17.2c0,2.4,4.7,4.2,5.9,4.2c0.4,0,0.5-0.2,0.5-0.4c0-0.3-1.6-5.1-5.1-5.1C60.7,15.9,60.2,16.4,60.2,17.2"/>
				</defs>
				<clipPath id="SVGID_86_">
					<use xlink:href="#SVGID_85_"  style="overflow:visible;"/>
				</clipPath>
				
					<linearGradient id="SVGID_87_" gradientUnits="userSpaceOnUse" x1="2985.2266" y1="-3060.6387" x2="2986.2119" y2="-3060.6387" gradientTransform="matrix(3.489 -1.2207 1.2207 3.489 -6616.791 14341.5889)">
					<stop  offset="0" style="stop-color:#66AF45"/>
					<stop  offset="0.3861" style="stop-color:#7CB548"/>
					<stop  offset="1" style="stop-color:#9CBE4C"/>
				</linearGradient>
				<polygon class="st28" points="58.5,16.5 65.9,13.9 68.3,20.8 60.9,23.4 				"/>
			</g>
		</g>
		<g>
			<g>
				<defs>
					<path id="SVGID_88_" d="M57.5,26.9c0.2,0,0.4,0,0.5,0c0.2-0.1,0.4-0.2,0.6-0.2c0.2,0,0.2,0.1,0.2,0.1s0,0,0,0.1
						c0.1,0,0.2,0,0.3,0v-0.1c0-0.1,0-0.4-0.5-0.4C58.3,26.5,57.9,26.7,57.5,26.9"/>
				</defs>
				<clipPath id="SVGID_89_">
					<use xlink:href="#SVGID_88_"  style="overflow:visible;"/>
				</clipPath>
				
					<linearGradient id="SVGID_90_" gradientUnits="userSpaceOnUse" x1="602.9156" y1="-1575.2733" x2="603.9009" y2="-1575.2733" gradientTransform="matrix(1.3359 0.7806 -0.7806 1.3359 -1977.3781 1660.1434)">
					<stop  offset="0" style="stop-color:#66AF45"/>
					<stop  offset="0.4844" style="stop-color:#81B942"/>
					<stop  offset="0.55" style="stop-color:#85BA41"/>
					<stop  offset="1" style="stop-color:#9CBE4C"/>
				</linearGradient>
				<polygon class="st29" points="57.9,25.8 59.4,26.6 58.7,27.7 57.3,26.9 				"/>
			</g>
		</g>
		<g>
			<g>
				<defs>
					<path id="SVGID_91_" d="M65,22.5c-0.1,0.1-0.1,0.2-0.1,0.4s0.2,0.3,0.3,0.4c0.1,0.1,0.2,0.2,0.2,0.3s-0.3,0.5-1,0.9
						c-0.5,0.3-1.4,1.3-2,2.4c0.1,0,0.2,0,0.4,0c0.6-0.9,1.4-1.8,1.8-2.1c0.7-0.4,1.2-0.9,1.2-1.2c0-0.2-0.2-0.4-0.3-0.5
						s-0.2-0.2-0.2-0.3s0-0.1,0-0.1s0.2-0.1,0.4,0l0.3,0.1c0.6,0.1,0.8,0.2,0.8,0.5c0,0.4-0.4,2-1.2,3.4c0.1,0,0.2,0,0.4,0
						c0.8-1.4,1.2-3,1.2-3.4c0-0.6-0.5-0.7-1-0.8l-0.5-0.1c-0.1,0-0.2,0-0.3,0C65.2,22.4,65.1,22.4,65,22.5"/>
				</defs>
				<clipPath id="SVGID_92_">
					<use xlink:href="#SVGID_91_"  style="overflow:visible;"/>
				</clipPath>
				
					<linearGradient id="SVGID_93_" gradientUnits="userSpaceOnUse" x1="1836.2881" y1="-1699.9471" x2="1837.2734" y2="-1699.9471" gradientTransform="matrix(2.0278 1.2512 -1.2512 2.0278 -5786.167 1174.0354)">
					<stop  offset="0" style="stop-color:#66AF45"/>
					<stop  offset="0.3861" style="stop-color:#7CB548"/>
					<stop  offset="1" style="stop-color:#9CBE4C"/>
				</linearGradient>
				<polygon class="st30" points="63.7,20.3 69.1,23.6 65.8,29 60.4,25.7 				"/>
			</g>
		</g>
		<g>
			<g>
				<defs>
					<path id="SVGID_94_" d="M47.9,22.3l-0.6,0.6c-0.5,0.5-1.3,1.3-2.1,2.1c0.1,0,0.2,0.1,0.4,0.1c0.7-0.6,1.3-1.3,2-2l0.6-0.6
						c1-0.9,2.3-1.2,2.6-1.2c0.3,0,0.5,0.1,0.5,0.2h0.3c0-0.3-0.4-0.5-0.8-0.5C50.4,21,49,21.2,47.9,22.3"/>
				</defs>
				<clipPath id="SVGID_95_">
					<use xlink:href="#SVGID_94_"  style="overflow:visible;"/>
				</clipPath>
				
					<linearGradient id="SVGID_96_" gradientUnits="userSpaceOnUse" x1="1929.0991" y1="-2379.8174" x2="1930.0845" y2="-2379.8174" gradientTransform="matrix(2.4209 0.6152 -0.6152 2.4209 -6085.7305 4597.5645)">
					<stop  offset="0" style="stop-color:#9CBE4C"/>
					<stop  offset="0.39" style="stop-color:#85BA41"/>
					<stop  offset="0.4627" style="stop-color:#81B942"/>
					<stop  offset="1" style="stop-color:#66AF45"/>
				</linearGradient>
				<polygon class="st31" points="45.6,19.5 52.5,21.3 51.1,26.5 44.3,24.8 				"/>
			</g>
		</g>
		<g>
			<g>
				<defs>
					<path id="SVGID_97_" d="M51.2,21.6c0,0.1-0.2,0.4-0.6,0.8l-0.1,0.1c-0.3,0.4-1.5,1.9-2.4,3.2c0.1,0,0.2,0,0.3,0.1
						c0.9-1.2,2-2.7,2.3-3l0.1-0.1c0.5-0.5,0.7-0.8,0.7-1l0,0h-0.3V21.6z"/>
				</defs>
				<clipPath id="SVGID_98_">
					<use xlink:href="#SVGID_97_"  style="overflow:visible;"/>
				</clipPath>
				
					<linearGradient id="SVGID_99_" gradientUnits="userSpaceOnUse" x1="2928.1255" y1="-2713.8318" x2="2929.1108" y2="-2713.8318" gradientTransform="matrix(4.0946 -0.4508 0.4508 4.0946 -10718.5225 12455.9561)">
					<stop  offset="0" style="stop-color:#5C9842"/>
					<stop  offset="9.000000e-02" style="stop-color:#5C9842"/>
					<stop  offset="0.82" style="stop-color:#66AF45"/>
					<stop  offset="0.89" style="stop-color:#66AF45"/>
					<stop  offset="1" style="stop-color:#66AF45"/>
				</linearGradient>
				<polygon class="st32" points="47.7,21.6 51.5,21.2 52,25.7 48.2,26.1 				"/>
			</g>
		</g>
		<g>
			<g>
				<defs>
					<path id="SVGID_100_" d="M42.5,21c-0.8,0.8-1.6,1.6-2.2,2.4c0.1,0,0.2,0.1,0.3,0.1c0.6-0.8,1.3-1.5,2.1-2.3
						c1.2-1.1,2.4-2,3.7-2.7l-0.1-0.3C45,19,43.7,19.9,42.5,21"/>
				</defs>
				<clipPath id="SVGID_101_">
					<use xlink:href="#SVGID_100_"  style="overflow:visible;"/>
				</clipPath>
				
					<linearGradient id="SVGID_102_" gradientUnits="userSpaceOnUse" x1="3274.8069" y1="-2417.4497" x2="3275.792" y2="-2417.4497" gradientTransform="matrix(6.1677 0 0 6.1677 -20157.707 14931.0039)">
					<stop  offset="0" style="stop-color:#5C9842"/>
					<stop  offset="3.000000e-02" style="stop-color:#5C9842"/>
					<stop  offset="0.35" style="stop-color:#619E43"/>
					<stop  offset="0.83" style="stop-color:#68A243"/>
					<stop  offset="1" style="stop-color:#68A243"/>
				</linearGradient>
				<rect x="40.3" y="18.3" class="st33" width="6.1" height="5.2"/>
			</g>
		</g>
		<g>
			<g>
				<defs>
					<path id="SVGID_103_" d="M49.4,25.9c0.1,0,0.2,0,0.4,0.1c4.2-4.1,6-4.9,7.5-4.9c0.7,0,1.1,0.2,1.4,0.7c0.2,0.3,0.3,0.7,0.3,1.2
						s-0.1,1-0.2,1.2c0,0.1-0.1,0.3-0.1,0.3c0,0.1,0.1,0.3,0.2,0.4l0.2-0.3L59,24.5c0,0,0-0.1,0.1-0.2c0.1-0.3,0.2-0.7,0.2-1.3
						c0-0.5-0.1-0.8-0.2-1.2c-0.3-0.7-0.9-1-1.8-1C55.7,20.8,53.9,21.7,49.4,25.9"/>
				</defs>
				<clipPath id="SVGID_104_">
					<use xlink:href="#SVGID_103_"  style="overflow:visible;"/>
				</clipPath>
				
					<linearGradient id="SVGID_105_" gradientUnits="userSpaceOnUse" x1="3590.6868" y1="-2289.9524" x2="3591.6721" y2="-2289.9524" gradientTransform="matrix(10.0235 0 0 10.0235 -35941.7891 22976.7383)">
					<stop  offset="0" style="stop-color:#9CBE4C"/>
					<stop  offset="0.8" style="stop-color:#80AE45"/>
					<stop  offset="1" style="stop-color:#619E43"/>
				</linearGradient>
				<rect x="49.4" y="20.8" class="st34" width="9.9" height="5.2"/>
			</g>
		</g>
		<g>
			<g>
				<defs>
					<path id="SVGID_106_" d="M62.7,21.8c-0.3,0.5-2,2.6-3.5,2.9c-0.1,0-0.1,0-0.1,0L58.9,25c0.1,0.1,0.2,0.1,0.3,0.1
						c1.8-0.3,3.8-3,3.8-3.3H62.7z"/>
				</defs>
				<clipPath id="SVGID_107_">
					<use xlink:href="#SVGID_106_"  style="overflow:visible;"/>
				</clipPath>
				
					<linearGradient id="SVGID_108_" gradientUnits="userSpaceOnUse" x1="3318.1946" y1="-3780.4641" x2="3319.1799" y2="-3780.4641" gradientTransform="matrix(2.1299 -2.0116 2.0116 2.1299 597.0718 14751.5186)">
					<stop  offset="0" style="stop-color:#619E43"/>
					<stop  offset="1.000000e-02" style="stop-color:#619E43"/>
					<stop  offset="0.16" style="stop-color:#78A440"/>
					<stop  offset="0.2423" style="stop-color:#7DA743"/>
					<stop  offset="0.5" style="stop-color:#8AAD4B"/>
					<stop  offset="0.8205" style="stop-color:#7DAA44"/>
					<stop  offset="0.85" style="stop-color:#7BAA43"/>
					<stop  offset="1" style="stop-color:#68A243"/>
				</linearGradient>
				<polygon class="st35" points="57.3,23.3 61.1,19.7 64.7,23.5 60.9,27.1 				"/>
			</g>
		</g>
		<g>
			<g>
				<defs>
					<path id="SVGID_109_" d="M75.3,22.4c-0.3,0.2-0.6,0.5-0.7,0.6c-0.1-0.1-0.2-0.4-0.4-0.6c-0.1-0.2-0.2-0.5-0.3-0.6
						c-0.4-0.6-1-0.7-2.7-0.7c-0.4,0-0.7,0-1.1,0v0.3c0.3,0,0.6,0,1,0c1.6,0,2.1,0.1,2.4,0.6c0.1,0.1,0.2,0.4,0.3,0.6
						c0.2,0.4,0.4,0.8,0.6,0.8c0.2,0,0.3-0.2,0.9-0.7s1.5-1.4,2-1.4c0.3,0,0.4,0.1,0.4,0.3c0,0.1-0.1,0.3-0.2,0.6
						c-0.2,0.4-0.5,1-0.6,2c0.1,0,0.2-0.1,0.3-0.1c0.1-0.8,0.3-1.3,0.6-1.7c0.1-0.3,0.2-0.5,0.2-0.7s0-0.3-0.1-0.4
						c-0.1-0.1-0.3-0.2-0.6-0.2C76.9,21,76,21.8,75.3,22.4"/>
				</defs>
				<clipPath id="SVGID_110_">
					<use xlink:href="#SVGID_109_"  style="overflow:visible;"/>
				</clipPath>
				
					<linearGradient id="SVGID_111_" gradientUnits="userSpaceOnUse" x1="4868.5215" y1="-2007.1608" x2="4869.5068" y2="-2007.1608" gradientTransform="matrix(-6.7569 -1.9559 1.9559 -6.7569 36900.0156 -4016.1541)">
					<stop  offset="0" style="stop-color:#619E43"/>
					<stop  offset="7.552662e-02" style="stop-color:#6EA444"/>
					<stop  offset="0.15" style="stop-color:#7FAD46"/>
					<stop  offset="0.29" style="stop-color:#9CBE4C"/>
					<stop  offset="0.3048" style="stop-color:#9ABD4C"/>
					<stop  offset="0.66" style="stop-color:#66A243"/>
					<stop  offset="0.7652" style="stop-color:#73A844"/>
					<stop  offset="0.84" style="stop-color:#80AE45"/>
					<stop  offset="1" style="stop-color:#9CBE4C"/>
				</linearGradient>
				<polygon class="st36" points="77.5,26.3 69.3,23.9 70.8,18.8 79,21.2 				"/>
			</g>
		</g>
		<g>
			<g>
				<defs>
					<path id="SVGID_112_" d="M67.9,20.9c0.2,0.5,0.5,0.5,1.3,0.5h0.9v-0.3h-0.9c-0.8,0-0.9,0-1-0.3L67.9,20.9z"/>
				</defs>
				<clipPath id="SVGID_113_">
					<use xlink:href="#SVGID_112_"  style="overflow:visible;"/>
				</clipPath>
				
					<linearGradient id="SVGID_114_" gradientUnits="userSpaceOnUse" x1="1862.6306" y1="-2987.3611" x2="1863.6155" y2="-2987.3611" gradientTransform="matrix(2.268 0 0 2.268 -4156.6323 6796.4346)">
					<stop  offset="0" style="stop-color:#66AF45"/>
					<stop  offset="0.5196" style="stop-color:#81B942"/>
					<stop  offset="0.59" style="stop-color:#85BA41"/>
					<stop  offset="1" style="stop-color:#9CBE4C"/>
				</linearGradient>
				<rect x="67.9" y="20.8" class="st37" width="2.2" height="0.6"/>
			</g>
		</g>
		<g>
			<g>
				<defs>
					<path id="SVGID_115_" d="M53.3,25.8c-0.1,0.1-0.1,0.1-0.2,0.2c-0.1,0.2-0.3,0.3-0.4,0.5c0.1,0,0.3,0,0.4,0
						c0.1-0.1,0.2-0.2,0.3-0.3s0.2-0.2,0.3-0.4c1.3-1.4,2.8-2.5,3.2-2.5c0.2,0,0.3,0,0.3,0.1l0,0c0,0.4-0.5,0.7-0.9,1L56,24.6l0,0
						c-0.5,0.4-0.8,0.6-0.8,0.9c0,0.1,0,0.1,0,0.2c0,0.1,0.1,0.2,0.2,0.3c0.1,0.1,0.1,0.1,0.2,0.2h0.3c0-0.2-0.2-0.4-0.3-0.5
						c-0.1,0-0.1-0.1-0.1-0.1c0-0.3,0-0.3,0.7-0.8l0,0l0.3-0.2c0.5-0.4,1.1-0.7,1.1-1.3c0-0.2-0.2-0.4-0.6-0.4
						C56.4,23,54.6,24.4,53.3,25.8"/>
				</defs>
				<clipPath id="SVGID_116_">
					<use xlink:href="#SVGID_115_"  style="overflow:visible;"/>
				</clipPath>
				
					<linearGradient id="SVGID_117_" gradientUnits="userSpaceOnUse" x1="2373.7603" y1="-910.3157" x2="2374.7456" y2="-910.3157" gradientTransform="matrix(1.4534 2.1792 -2.1792 1.4534 -5379.6748 -3826.6497)">
					<stop  offset="0" style="stop-color:#619E43"/>
					<stop  offset="0.1057" style="stop-color:#6EA444"/>
					<stop  offset="0.21" style="stop-color:#7FAD46"/>
					<stop  offset="0.49" style="stop-color:#9CBE4C"/>
					<stop  offset="1" style="stop-color:#9CBE4C"/>
				</linearGradient>
				<polygon class="st38" points="56.1,20.8 59.2,25.4 54.2,28.8 51.1,24.1 				"/>
			</g>
		</g>
		<g>
			<g>
				<defs>
					<path id="SVGID_118_" d="M55.5,26.3C55.5,26.4,55.5,26.4,55.5,26.3C55.5,26.4,55.6,26.4,55.5,26.3c0,0.2,0,0.3-0.1,0.5
						c0.1,0,0.2,0,0.3,0c0.1-0.2,0.1-0.3,0.1-0.4c0,0,0,0,0-0.1H55.5z"/>
				</defs>
				<clipPath id="SVGID_119_">
					<use xlink:href="#SVGID_118_"  style="overflow:visible;"/>
				</clipPath>
				
					<linearGradient id="SVGID_120_" gradientUnits="userSpaceOnUse" x1="-5979.4282" y1="4547.998" x2="-5978.4429" y2="4547.998" gradientTransform="matrix(0.2575 0.3724 -0.3724 0.2575 3289.0376 1082.2158)">
					<stop  offset="0" style="stop-color:#66AF45"/>
					<stop  offset="0.3861" style="stop-color:#7CB548"/>
					<stop  offset="1" style="stop-color:#9CBE4C"/>
				</linearGradient>
				<polygon class="st39" points="55.7,26.1 56.1,26.7 55.6,27 55.2,26.5 				"/>
			</g>
		</g>
		<g>
			<g>
				<defs>
					<path id="SVGID_121_" d="M57.7,15.4c-0.1,0.3-0.2,0.6-0.2,1c0,1.4,0.7,3.9,5.2,5.4l0,0l0,0H63c0-0.2-0.2-0.2-0.3-0.3h-0.1
						c-4.3-1.4-5-3.8-5-5.1c0-0.3,0.1-0.6,0.2-0.9c0.4-1,1.6-1.1,2.2-1.1c4.8,0,7.2,5,7.8,6.5V21l0.3-0.1v-0.1
						c-0.6-1.6-3.1-6.7-8.1-6.7C58.9,14.1,58,14.6,57.7,15.4"/>
				</defs>
				<clipPath id="SVGID_122_">
					<use xlink:href="#SVGID_121_"  style="overflow:visible;"/>
				</clipPath>
				
					<linearGradient id="SVGID_123_" gradientUnits="userSpaceOnUse" x1="5612.3276" y1="-2778.4304" x2="5613.313" y2="-2778.4304" gradientTransform="matrix(-2.2543 -2.3778 2.3778 -2.2543 19319.8398 7097.9561)">
					<stop  offset="0" style="stop-color:#66AF45"/>
					<stop  offset="0.42" style="stop-color:#89B94F"/>
					<stop  offset="0.7565" style="stop-color:#A1C363"/>
					<stop  offset="0.81" style="stop-color:#A5C567"/>
					<stop  offset="1" style="stop-color:#A5C567"/>
				</linearGradient>
				<polygon class="st40" points="62.6,27.2 53.6,17.7 63.1,8.7 72.1,18.1 				"/>
			</g>
		</g>
		<g>
			<g>
				<defs>
					<path id="SVGID_124_" d="M55.7,13.6c0.1,0,0.2,0,0.3,0c-0.6,1.1-1.7,3-1.7,3.1l0,0l0,0h-0.1c-0.9-0.1-1.7-0.2-2.3-0.2
						c-1.4,0-3.5,0.5-5.6,1.7l0.1,0.3c2.1-1.2,4.1-1.7,5.5-1.7c0.6,0,1.3,0.1,2.2,0.2h0.1c0.1,0,0.1,0,0.2,0c0.1,0,0.1-0.1,0.1-0.1
						c0.1-0.1,1.7-3.1,1.8-3.2c0-0.1,0-0.1,0-0.2c0-0.1-0.1-0.1-0.1-0.1c-0.1,0-0.3-0.1-0.5-0.1V13.6z"/>
				</defs>
				<clipPath id="SVGID_125_">
					<use xlink:href="#SVGID_124_"  style="overflow:visible;"/>
				</clipPath>
				
					<linearGradient id="SVGID_126_" gradientUnits="userSpaceOnUse" x1="6261.9136" y1="-4299.2808" x2="6262.8989" y2="-4299.2808" gradientTransform="matrix(-0.6722 -1.6307 1.6307 -0.6722 11270.3584 7334.6787)">
					<stop  offset="0" style="stop-color:#68A243"/>
					<stop  offset="0.87" style="stop-color:#80AE46"/>
					<stop  offset="1" style="stop-color:#9CBE4C"/>
				</linearGradient>
				<polygon class="st41" points="47.7,22.1 44.4,14 54.9,9.7 58.2,17.8 				"/>
			</g>
		</g>
		<path class="st42" d="M41.3,19c5.9-4.3,11.5-5.4,13.9-5.4c0.2,0,0.4,0,0.5,0v-0.3c-0.2,0-0.3,0-0.5,0c-2.4,0-8.1,1.2-14,5.5
			c-1.6,1.2-3,2.4-4.1,3.5c0.1,0,0.2,0.1,0.3,0.1C38.4,21.2,39.7,20.1,41.3,19"/>
	</g>
	<line class="st43" x1="95" y1="22.6" x2="95" y2="36.4"/>
	<g>
		<path d="M110.2,30.9h-6.5v6h-3V22.8h3v5.1h6.5v-5.1h3v14.1h-3V30.9z"/>
		<path d="M121.9,37.1c-4,0-7.3-3.3-7.3-7.3c0-4,3.3-7.3,7.3-7.3c4,0,7.3,3.3,7.3,7.3C129.2,33.9,125.9,37.1,121.9,37.1z
			 M117.6,29.8c0,2.3,2,4.3,4.3,4.3c2.3,0,4.3-2,4.3-4.3c0-2.3-1.9-4.3-4.3-4.3C119.6,25.5,117.6,27.5,117.6,29.8z"/>
		<path d="M139.1,31.7L143,37h-3.8l-3.6-5.1h-1.5V37H131V22.9h6.4c3.6,0,4.9,2.2,4.9,4.5c0,1.9-1,3.8-3.4,4.4H139.1z M134.1,25.3
			v4.2h2.4c1.5,0,2.7-0.3,2.7-2.1c0-1.8-1.2-2.1-2.7-2.1H134.1z"/>
		<path d="M145.3,22.9h3.1v14.1h-3.1V22.9z"/>
		<path d="M150,34.5l7.6-9h-7v-2.6h11.1v2.4l-7.6,9h7.8v2.6H150V34.5z"/>
		<path d="M170,37.1c-4,0-7.3-3.3-7.3-7.3c0-4,3.3-7.3,7.3-7.3c4,0,7.3,3.3,7.3,7.3C177.3,33.9,174,37.1,170,37.1z M165.7,29.8
			c0,2.3,2,4.3,4.3,4.3c2.3,0,4.3-2,4.3-4.3c0-2.3-1.9-4.3-4.3-4.3C167.7,25.5,165.7,27.5,165.7,29.8z"/>
		<path d="M181.5,27.2V37h-2.7V22.8h3.6l6.3,8.8v-8.8h2.6V37h-2.6L181.5,27.2z"/>
	</g>
</g>
</svg>
