<?xml version="1.0" encoding="utf-8"?>
<!-- Generator: Adobe Illustrator 25.4.1, SVG Export Plug-In . SVG Version: 6.00 Build 0)  -->
<svg version="1.1" id="Layer_1" xmlns="http://www.w3.org/2000/svg" xmlns:xlink="http://www.w3.org/1999/xlink" x="0px" y="0px"
	 viewBox="0 0 348 104" style="enable-background:new 0 0 348 104;" xml:space="preserve">
<style type="text/css">
	.st0{fill:#221F20;}
	.st1{fill:#F88334;}
	.st2{fill:none;stroke:#221F20;stroke-width:0.75;stroke-miterlimit:10;}
	.st3{fill:#2A110F;}
</style>
<text transform="matrix(1 0 0 1 96.4357 167.1429)" style="display:none;fill:#363435;enable-background:new    ; font-family:'ArialMT'; font-size:20.8058px;">Panvel, Navi Mumbai</text>
<g>
	<g>
		<rect x="73.3" y="74.6" class="st0" width="10.4" height="0.5"/>
		<g>
			<path class="st1" d="M62.9,44.5c-2.7-2.6-6-4-9.7-4c-2.6,0-5.2,0.7-7.3,2.2V19.9l-6.5,6.5v41.8h6.8v-14c0-1.9,0.7-3.7,2.1-5
				c1.4-1.4,3.1-2.2,5-2.2s3.7,0.7,5,2.2c1.4,1.4,2.1,3.1,2.1,5v14.1h6.5V54.2C66.9,50.4,65.5,47.1,62.9,44.5"/>
			<path class="st1" d="M138.1,44.5c-2.6-2.6-5.8-4-9.6-4c-2.6,0-5.2,0.7-7.3,2.2V20l-6.5,6.5v41.8h6.8V54.2c0-1.9,0.7-3.7,2.1-5
				c1.5-1.4,3.1-2.2,5.2-2.2c1.9,0,3.7,0.7,5,2.2c1.4,1.4,2.1,3.1,2.1,5v14.1h6.5V54.2C142.1,50.4,140.8,47.1,138.1,44.5"/>
			<path class="st1" d="M89.1,59.2l-0.2,0.2c-0.7,0.7-1.5,1.1-2.3,1.5L86.4,61c-0.8,0.3-1.7,0.5-2.6,0.5c-0.8,0-1.5-0.1-2.3-0.3
				l14.4-14.3c-2.5-2.7-4.8-4.6-6.9-5.4c-1.7-0.7-3.4-1-5.3-1c-1.7,0-3.4,0.2-5,0.9l-0.3,0.1c-1.7,0.7-3.2,1.7-4.5,3
				c-1.4,1.3-2.4,2.9-3.1,4.6c-0.7,1.6-1,3.3-1,5.2c0,1.7,0.3,3.4,0.9,5l0.1,0.5c0.7,1.6,1.7,3.1,3,4.4c1.3,1.4,2.9,2.4,4.6,3.1
				c1.6,0.7,3.4,1,5.3,1c1.7,0,3.4-0.3,5-0.9l0.3-0.1c1.6-0.7,3.1-1.7,4.4-3l0.1-0.1L89.1,59.2z M76.7,56.6
				c-0.2-0.7-0.3-1.5-0.3-2.3c0-0.9,0.2-1.8,0.6-2.7c0.3-0.9,0.9-1.7,1.6-2.4s1.5-1.1,2.3-1.5H81c0.9-0.3,1.8-0.5,2.7-0.6
				c0.7,0,1.5,0.1,2.2,0.3L76.7,56.6z"/>
			<path class="st1" d="M34,53.6c-1.8-1.7-4.6-2.3-7.8-2.6c-0.9-0.1-2.1-0.3-2.9-0.9c-0.5-0.3-0.7-0.8-0.8-1.4
				c0-1.4,1.4-2.2,3.2-2.2c1.7,0,3.1,1.1,3.2,2.1v0.1v0.2h7.2c0-2.5-1-4.6-3.2-6.2c-1.9-1.5-4.5-2.3-7.2-2.3s-5.5,0.8-7.6,2.3
				S15,46.1,15,48.4c0,1.9,0.6,3.5,1.7,4.9c1.7,1.9,4.7,3.7,8.5,4c1.1,0.1,2.3,0.1,3.3,0.8c0.9,0.7,0.7,1.7,0.1,2.5
				c-0.7,0.8-1.7,1-2.7,1c-2.3,0-3.8-1-3.8-3h-7.2c0,2.7,1,5,3,6.8c1.9,1.8,4.8,2.6,7.9,2.6s6-1,7.8-3c1.7-1.8,2.6-3.9,2.6-6.3
				C36.4,56.9,35.6,55.2,34,53.6"/>
			<polygon class="st1" points="106.2,31.3 106.2,19.9 106.1,19.9 100,26 100,31.3 94.6,31.3 94.6,37.6 100,37.6 100,68.3 
				106.2,68.3 106.2,37.6 111.5,37.6 111.5,31.3 			"/>
		</g>
		<path class="st0" d="M23,88.8c-0.1-0.1-0.2-0.3-0.3-0.8l-2.6-5.8C20,82,20,82,20,82c0-0.1,0.1-0.1,0.2-0.2l0,0v-0.2h-1.9v0.2l0,0
			c0.1,0,0.2,0.1,0.2,0.2c0,0,0,0.1-0.1,0.3l-2.7,6.2c-0.1,0.3-0.2,0.5-0.3,0.6c0-0.1-0.1,0-0.2,0l0,0v0.2H17v-0.2l0,0
			c-0.2,0-0.3-0.1-0.3-0.2c0,0,0-0.1,0.1-0.2l0.7-1.5h4l0.6,1.4c0.1,0.2,0.1,0.3,0.1,0.3s0,0.1-0.3,0.2l0,0v0.2h1.9v-0.2l0,0
			C23.2,89,23.1,88.9,23,88.8 M20.8,86.3h-3.3l1.6-3.7L20.8,86.3z"/>
		<path class="st0" d="M29.4,86c-0.2-0.1-0.5-0.2-0.8-0.2s-0.7-0.1-1.3-0.1c-0.7,0-1.1,0-1.4-0.1c-0.2,0-0.3,0-0.6-0.1
			c-0.1,0-0.3-0.1-0.3-0.3c-0.1-0.1-0.1-0.3-0.1-0.5c0-0.3,0.2-0.7,0.6-0.9c0.5-0.2,0.9-0.3,1.5-0.3c0.7,0,1.4,0.1,1.8,0.5
			c0.3,0.1,0.3,0.2,0.3,0.3c0,0,0,0.1,0,0.2l0,0l0.2,0.1l0.7-1.3l-0.2-0.1l0,0c0,0.1-0.2,0.1-0.2,0.1s0,0-0.2-0.1
			c-0.8-0.3-1.6-0.6-2.4-0.6c-0.9,0-1.6,0.2-2.2,0.6S24,84,24,84.7c0,0.3,0.1,0.7,0.2,0.9c0.2,0.2,0.5,0.5,0.7,0.6s0.5,0.1,0.8,0.2
			c0.2,0,0.7,0.1,1.4,0.1c0.6,0,0.9,0,1,0.1c0.2,0,0.3,0.1,0.5,0.1c0.1,0,0.2,0.1,0.3,0.3c0.1,0.1,0.1,0.3,0.1,0.5s-0.1,0.3-0.2,0.6
			c-0.1,0.1-0.2,0.3-0.5,0.5c-0.5,0.2-0.9,0.3-1.6,0.3c-0.7,0-1.4-0.2-1.9-0.6c-0.5-0.2-0.6-0.3-0.6-0.5v-0.1v-0.1L24,87.5l-0.8,1.3
			l0.2,0.1l0,0c0.1-0.1,0.2-0.2,0.2-0.2s0,0,0.1,0c0.5,0.2,0.9,0.5,1.4,0.6s1,0.2,1.5,0.2c0.9,0,1.7-0.2,2.3-0.6
			c0.5-0.3,0.7-0.8,0.7-1.5c0-0.3-0.1-0.6-0.2-0.8C29.9,86.3,29.6,86.1,29.4,86"/>
		<path class="st0" d="M36.1,83.1L36.1,83.1c0.1,0,0.2,0.1,0.3,0.1c0,0.1,0.1,0.1,0.1,0.3v2.1h-4v-2.1c0-0.1,0-0.2,0.1-0.3
			c0,0,0.1-0.1,0.2-0.1l0,0v-0.2h-1.7v0.2l0,0c0.1,0,0.2,0.1,0.2,0.1c0,0.1,0.1,0.1,0.1,0.3v5.2c0,0.1,0,0.2-0.1,0.3
			c0,0.1-0.1,0.1-0.2,0.1l0,0v0.2h1.6V89l0,0c-0.1,0-0.2-0.1-0.2-0.1c0-0.1-0.1-0.1-0.1-0.3v-2.3h4v2.3c0,0.1,0,0.2-0.1,0.3
			c0,0.1-0.1,0.1-0.2,0.1l0,0v0.2h1.6V89l0,0c-0.1,0-0.2-0.1-0.2-0.1c0-0.1-0.1-0.1-0.1-0.3v-5.2c0-0.1,0-0.2,0.1-0.3
			c0-0.1,0.1-0.1,0.2-0.1l0,0v-0.2h-1.6C36.1,82.7,36.1,83.1,36.1,83.1z"/>
		<path class="st0" d="M46.8,83.1L46.8,83.1c0.2,0.1,0.3,0.1,0.3,0.3c0,0.1,0,0.1,0,0.2L45.6,88L44,83.6c0-0.1-0.1-0.2-0.1-0.3
			c0-0.1,0.1-0.2,0.3-0.2l0,0v-0.2h-1.7v0.2l0,0c0.2,0,0.2,0.1,0.2,0.2c0,0,0,0.1-0.1,0.3L41.1,88l-1.6-4.4
			c-0.1-0.2-0.1-0.2-0.1-0.3c0-0.1,0.1-0.2,0.3-0.2l0,0v-0.2H38v0.2l0,0c0.1,0,0.2,0.1,0.3,0.2s0.1,0.2,0.2,0.5l1.7,4.7
			c0.1,0.2,0.1,0.3,0.1,0.5c0,0.1-0.1,0.2-0.2,0.2l0,0v0.2h1.8v-0.3l0,0c-0.2,0-0.3-0.1-0.3-0.3c0,0,0-0.1,0.1-0.3l1.5-4.2l1.5,4.2
			c0.1,0.2,0.1,0.3,0.1,0.5s-0.1,0.2-0.2,0.2l0,0v0.2h1.8v-0.2l0,0c-0.2,0-0.2-0.1-0.2-0.2s0-0.2,0.1-0.3l1.7-4.8
			c0.1-0.2,0.1-0.3,0.2-0.5c0.1-0.1,0.2-0.1,0.3-0.2l0,0V83h-1.7v0.3h0V83.1z"/>
		<path class="st0" d="M49.1,83.1L49.1,83.1c0.1,0,0.2,0.1,0.3,0.1c0,0.1,0,0.1,0,0.3v5.2c0,0.1,0,0.2-0.1,0.3
			c0,0.1-0.1,0.1-0.2,0.1l0,0v0.2h1.6V89l0,0c-0.1,0-0.2-0.1-0.2-0.1c0-0.1-0.1-0.1-0.1-0.3v-5.2c0-0.1,0-0.2,0.1-0.3
			c0,0,0.1-0.1,0.2-0.1l0,0v-0.2h-1.6V83.1z"/>
		<path class="st0" d="M57.2,83.1L57.2,83.1c0.1,0,0.2,0.1,0.3,0.1c0,0.1,0.1,0.1,0.1,0.3v4.4l-3.7-4.2c-0.1-0.1-0.2-0.2-0.2-0.3
			c0-0.1,0.1-0.2,0.2-0.2l0,0V83h-2.1v0.2l0,0c0.1,0,0.2,0.1,0.2,0.1c0,0.1,0.1,0.1,0.1,0.3v5.2c0,0.1,0,0.2-0.1,0.3
			c0,0.1-0.1,0.1-0.2,0.1l0,0v0.2h1.5v-0.3l0,0c-0.1,0-0.2-0.1-0.2-0.1c0-0.1-0.1-0.1-0.1-0.3v-4.6l4,4.5c0.2,0.2,0.2,0.3,0.2,0.5
			c0,0.1-0.1,0.1-0.2,0.2l0,0v0.2h1.7v-0.3l0,0c-0.1,0-0.2-0.1-0.2-0.1c0-0.1-0.1-0.1-0.1-0.3v-5.2c0-0.1,0-0.2,0.1-0.3
			c0,0,0.1-0.1,0.2-0.1l0,0V83h-1.3v0.3h-0.2V83.1z"/>
		<path class="st0" d="M69.4,85.2c-0.2-0.1-0.6-0.2-0.9-0.3c-0.3,0-1-0.1-1.8-0.1c-0.6,0-1,0-1.4-0.1c-0.2,0-0.5-0.1-0.7-0.2
			s-0.3-0.2-0.5-0.3C64,84.1,64,83.9,64,83.7s0.1-0.5,0.2-0.6c0.1-0.2,0.3-0.3,0.6-0.5c0.5-0.2,1.1-0.3,1.8-0.3
			c0.8,0,1.6,0.2,2.4,0.6c0.3,0.1,0.3,0.2,0.3,0.3c0,0,0,0.1-0.1,0.3l0,0l0.2,0.1l0.8-1.6L70,81.8l0,0C69.9,82,69.8,82,69.8,82
			s0,0-0.2-0.1c-0.6-0.2-1-0.5-1.5-0.6s-0.9-0.1-1.5-0.1s-1.2,0.1-1.7,0.3c-0.6,0.1-0.9,0.3-1.3,0.7c-0.5,0.5-0.6,0.9-0.6,1.5
			c0,0.3,0.1,0.7,0.2,0.9c0.1,0.2,0.3,0.5,0.7,0.7c0.3,0.1,0.6,0.3,1,0.3c0.3,0.1,0.9,0.1,1.5,0.1c0.9,0,1.5,0.1,1.6,0.1
			c0.2,0,0.3,0,0.6,0.1c0.6,0.2,0.8,0.6,0.8,1c0,0.3-0.1,0.7-0.5,1c-0.5,0.5-1.1,0.6-2.2,0.6c-0.5,0-0.9,0-1.3-0.1
			c-0.3-0.1-0.8-0.2-1.3-0.5c-0.6-0.3-0.7-0.5-0.7-0.6c0,0,0-0.1,0.1-0.3l0,0l-0.2-0.1l-0.9,1.5l0.2,0.1l0,0
			c0.1-0.2,0.2-0.2,0.2-0.2s0.1,0,0.3,0.1c0.7,0.3,1.3,0.6,1.7,0.7c0.5,0.1,1,0.2,1.7,0.2c1.1,0,2.1-0.2,2.6-0.8
			c0.6-0.5,0.9-1,0.9-1.7C70.3,86.1,70,85.6,69.4,85.2"/>
		<path class="st0" d="M76.2,83.1L76.2,83.1c0.1,0,0.2,0.1,0.3,0.1c0,0.1,0.1,0.1,0.1,0.3v2.1h-4v-2.1c0-0.1,0-0.2,0.1-0.3
			c0,0,0.1-0.1,0.2-0.1l0,0v-0.2h-1.5v0.2l0,0c0.1,0,0.2,0.1,0.2,0.1c0,0.1,0.1,0.1,0.1,0.3v5.2c0,0.1,0,0.2-0.1,0.3
			c0,0.1-0.1,0.1-0.2,0.1l0,0v0.2H73V89l0,0c-0.1,0-0.2-0.1-0.2-0.1c0-0.1-0.1-0.1-0.1-0.3v-2.3h4v2.3c0,0.1,0,0.2-0.1,0.3
			c0,0.1-0.1,0.1-0.2,0.1l0,0v0.2H78V89l0,0c-0.1,0-0.2-0.1-0.2-0.1c0-0.1-0.1-0.1-0.1-0.3v-5.2c0-0.1,0-0.2,0.1-0.3
			c0-0.1,0.1-0.1,0.2-0.1l0,0v-0.2h-1.6v0.3C76.4,83.1,76.2,83.1,76.2,83.1z"/>
		<path class="st0" d="M84.6,88.2c0,0.1-0.1,0.2-0.1,0.2c-0.1,0-0.1,0.1-0.3,0.1h-3.8v-2.2h2.4c0.1,0,0.2,0,0.3,0.1
			c0,0,0.1,0.1,0.1,0.2l0,0h0.2v-1.4h-0.2l0,0c0,0.1-0.1,0.2-0.1,0.2s-0.1,0.1-0.3,0.1h-2.4v-2.1h3.8c0.1,0,0.2,0,0.3,0.1
			c0,0,0.1,0.1,0.1,0.2l0,0h0.2v-1.5h-0.2l0,0c0,0.1-0.1,0.2-0.1,0.2s-0.1,0.1-0.3,0.1h-5v0.2l0,0c0.1,0,0.2,0.1,0.2,0.1
			c0,0.1,0.1,0.1,0.1,0.3v5.2c0,0.1,0,0.2-0.1,0.3c0,0.1-0.1,0.1-0.2,0.1l0,0v0.2h5c0.1,0,0.2,0,0.3,0.1c0.1,0,0.1,0.1,0.1,0.2l0,0
			h0.3v-1.4L84.6,88.2L84.6,88.2z"/>
		<path class="st0" d="M91.6,82.5c0,0.1-0.1,0.2-0.1,0.2s-0.1,0.1-0.3,0.1h-4.9c-0.1,0-0.2,0-0.3-0.1c0,0-0.1-0.1-0.1-0.2l0,0h-0.2
			V84h0.2l0,0c0-0.1,0.1-0.2,0.1-0.2s0.1-0.1,0.3-0.1h1.9v5c0,0.1,0,0.2-0.1,0.3c0,0-0.1,0.1-0.2,0.1l0,0v0.2h1.7V89l0,0
			c-0.1,0-0.2-0.1-0.2-0.1c0-0.1-0.1-0.1-0.1-0.3v-5h1.9c0.1,0,0.2,0,0.3,0.1c0.1,0,0.1,0.1,0.1,0.2l0,0h0.2v-1.5L91.6,82.5
			L91.6,82.5z"/>
		<path class="st0" d="M97.5,83.1L97.5,83.1c0.1,0,0.2,0.1,0.3,0.1c0,0.1,0.1,0.1,0.1,0.3v2.1h-4v-2.1c0-0.1,0-0.2,0.1-0.3
			c0,0,0.1-0.1,0.2-0.1l0,0v-0.2h-1.6v0.2l0,0c0.1,0,0.2,0.1,0.2,0.1c0,0.1,0,0.1,0,0.3v5.2c0,0.1,0,0.2-0.1,0.3
			c0,0.1-0.1,0.1-0.2,0.1l0,0v0.2h1.6V89l0,0c-0.1,0-0.2-0.1-0.2-0.1c0-0.1-0.1-0.1-0.1-0.3v-2.3h4v2.3c0,0.1,0,0.2-0.1,0.3
			c0,0.1-0.1,0.1-0.2,0.1l0,0v0.2h1.6V89l0,0c-0.1,0-0.2-0.1-0.2-0.1c0-0.1-0.1-0.1-0.1-0.3v-5.2c0-0.1,0-0.2,0.1-0.3
			c0-0.1,0.1-0.1,0.2-0.1l0,0v-0.2h-1.6C97.5,82.8,97.5,83.1,97.5,83.1z"/>
		<path class="st0" d="M108.3,85.3c-0.1,0-0.1-0.1-0.1-0.2l0,0H108v1.6h0.2l0,0c0-0.1,0.1-0.2,0.1-0.2s0.1-0.1,0.3-0.1h1.7v1.4
			c-0.3,0.3-0.7,0.6-1.1,0.7c-0.5,0.1-1,0.2-1.5,0.2c-1,0-1.8-0.2-2.4-0.8c-0.7-0.6-1-1.4-1-2.4s0.3-1.8,1-2.4s1.4-0.8,2.3-0.8
			c0.8,0,1.6,0.2,2.3,0.7c0.5,0.2,0.6,0.5,0.6,0.5s0,0.1-0.1,0.2l0,0l0.2,0.1l0.9-1.5l-0.2-0.1l0,0c-0.1,0.2-0.2,0.2-0.2,0.2
			s-0.1,0-0.2-0.1c-0.6-0.3-1-0.6-1.6-0.7c-0.5-0.1-1-0.2-1.6-0.2c-0.7,0-1.3,0.1-1.8,0.3c-0.8,0.3-1.4,0.8-1.9,1.4
			c-0.3,0.6-0.6,1.4-0.6,2.3c0,0.6,0.1,1.3,0.3,1.7c0.2,0.5,0.6,0.9,0.9,1.3c0.8,0.7,1.8,1,3.1,1c1,0,1.9-0.2,2.7-0.7
			c0.3-0.2,0.8-0.5,1.1-0.9l0,0v-0.2l0,0c-0.1,0-0.2-0.1-0.2-0.1s-0.1-0.1-0.1-0.3v-1c0-0.1,0-0.2,0.1-0.3c0-0.1,0.1-0.1,0.2-0.1
			l0,0v-0.5H108.3C108.4,85.3,108.4,85.3,108.3,85.3"/>
		<path class="st0" d="M119,89l-0.1-0.1l-1.5-2.5c0.6-0.1,1-0.2,1.3-0.6c0.3-0.3,0.5-0.7,0.5-1.1c0-0.6-0.2-1-0.7-1.4
			c-0.2-0.1-0.5-0.2-0.7-0.3c-0.2-0.1-0.6-0.1-1-0.1H113v0.2l0,0c0.1,0,0.2,0.1,0.2,0.1c0,0.1,0.1,0.1,0.1,0.3v5.2
			c0,0.1,0,0.2-0.1,0.3c0,0-0.1,0.1-0.2,0.1l0,0v0.2h1.6V89l0,0c-0.1,0-0.2-0.1-0.2-0.1c0-0.1-0.1-0.1-0.1-0.3v-2.2h2.2l1.4,2.3
			c0.1,0.2,0.1,0.2,0.1,0.2s-0.1,0.1-0.2,0.1l0,0v0.2h1.6V89l0,0C119.1,89,119.1,89,119,89 M114.1,83.5h2.4c0.6,0,1,0.1,1.3,0.2
			c0.2,0.2,0.5,0.5,0.5,0.9s-0.1,0.7-0.5,0.8c-0.1,0.1-0.3,0.1-0.5,0.1s-0.5,0-0.8,0h-2.3L114.1,83.5L114.1,83.5L114.1,83.5z"/>
		<path class="st0" d="M126.5,83.5c-0.7-0.6-1.6-0.9-2.7-0.9c-0.7,0-1.1,0.1-1.7,0.2c-0.7,0.2-1.3,0.7-1.6,1.3
			c-0.3,0.6-0.6,1.1-0.6,1.8c0,1,0.3,1.8,1.1,2.5c0.7,0.6,1.6,0.9,2.7,0.9c1.5,0,2.6-0.6,3.3-1.5c0.3-0.6,0.6-1.1,0.6-1.8
			C127.5,85,127.2,84.2,126.5,83.5 M123.8,88.7c-0.9,0-1.6-0.2-2.2-0.8c-0.5-0.5-0.7-1-0.7-1.8c0-0.7,0.2-1.3,0.7-1.8
			c0.6-0.6,1.3-0.8,2.2-0.8s1.6,0.3,2.2,0.8c0.5,0.5,0.7,1,0.7,1.8c0,0.7-0.2,1.3-0.7,1.7C125.4,88.4,124.7,88.7,123.8,88.7"/>
		<path class="st0" d="M133.6,83.1L133.6,83.1c0.1,0,0.2,0.1,0.3,0.1c0,0.1,0.1,0.1,0.1,0.3v3.2c0,0.5,0,0.8-0.1,0.9
			c0,0.2-0.1,0.3-0.2,0.5c-0.3,0.3-0.9,0.5-1.8,0.5c-0.8,0-1.4-0.1-1.7-0.5c-0.1-0.1-0.2-0.2-0.3-0.5c0-0.2-0.1-0.6-0.1-1v-3.3
			c0-0.1,0-0.2,0.1-0.3c0-0.1,0.1-0.1,0.2-0.1l0,0v-0.2h-1.6v0.2l0,0c0.1,0,0.2,0.1,0.2,0.1c0,0.1,0.1,0.1,0.1,0.3v3.4
			c0,0.6,0,0.9,0.1,1.1s0.2,0.5,0.5,0.7c0.5,0.5,1.3,0.7,2.3,0.7c0.8,0,1.4-0.1,1.8-0.3c0.5-0.2,0.8-0.5,0.9-0.9
			c0.1-0.2,0.1-0.7,0.1-1.3v-3.4c0-0.1,0-0.2,0.1-0.3c0,0,0.1-0.1,0.2-0.1l0,0v-0.2h-1.4v0.5L133.6,83.1L133.6,83.1z"/>
		<path class="st0" d="M141.4,83.1c-0.2-0.1-0.5-0.2-0.7-0.2s-0.6-0.1-1-0.1h-3.5V83l0,0c0.1,0,0.2,0.1,0.2,0.1s0.1,0.1,0.1,0.2v5.3
			c0,0.1,0,0.2-0.1,0.2c0,0-0.1,0.1-0.2,0.1l0,0v0.2h1.6V89l0,0c-0.1,0-0.2-0.1-0.2-0.1s-0.1-0.1-0.1-0.2v-2.3h2.3
			c0.5,0,0.8,0,1-0.1c0.2,0,0.5-0.1,0.7-0.2s0.5-0.3,0.6-0.6s0.2-0.6,0.2-0.9s-0.1-0.6-0.2-0.9C141.9,83.5,141.6,83.3,141.4,83.1
			 M137.4,83.5h2.2c0.3,0,0.7,0,0.9,0s0.3,0.1,0.5,0.2s0.3,0.5,0.3,0.9s-0.1,0.7-0.3,0.9c-0.1,0.1-0.3,0.1-0.5,0.2
			c-0.2,0-0.5,0-0.9,0h-2.2V83.5z"/>
		<path class="st0" d="M140.4,88.9c0,0.2-0.2,0.5-0.5,0.5s-0.5-0.2-0.5-0.5s0.2-0.5,0.5-0.5C140.3,88.4,140.4,88.7,140.4,88.9"/>
	</g>
	<line class="st2" x1="157.9" y1="14.5" x2="157.9" y2="88.3"/>
	<g>
		<path class="st3" d="M284.1,60.7c-0.4,0.3-0.9,0.6-1.4,0.8c-0.5,0.1-1,0.1-1.5,0.1c-2.5,0-6.6-1-12.4-2.9l-6.2-2.1
			c1.3-1.4,2.4-2.8,3.5-4.4c2.3-3.3,3.7-5.2,4.2-6c1.2-1.6,2.3-2.9,3.5-4.2c1.5-1.6,2.4-2.5,2.9-2.5c0.4,0,0.8,0.1,1.1,0.3
			c0.2-0.7,0.4-1.4,0.5-2.2c0-0.4,0-0.7-0.1-0.7c-0.5,0-1.8,1.1-4,3.4c-1.7,1.8-3.2,3.6-4.6,5.4c-0.3,0.3-1.9,2.5-4.9,6.5
			c-1,1.4-2.1,2.7-3.3,4l-7-2.2c-3.8-1.2-7.7-1.8-11.7-1.9c-2.8,0-5.5,0.8-7.8,2.3c-2.9,1.7-4.3,3.9-4.3,6.5c-0.1,2,1,3.8,2.7,4.8
			c2,1.1,4.2,1.7,6.5,1.6c4.4,0,8.8-1,12.7-2.9c3.2-1.7,6.2-3.8,8.9-6.4l6.5,2.1c3.3,1.1,5.2,1.6,5.6,1.7c1.7,0.5,3.5,0.8,5.3,0.8
			c0.9,0,1.8,0,2.7-0.1c1-0.3,1.9-0.7,2.7-1.3c0.2-0.1,0.3-0.2,0.2-0.2C284.3,61,284.2,60.9,284.1,60.7 M251.9,63.8
			c-3.2,1.7-6.8,2.6-10.5,2.6c-2.5,0.1-5-0.5-7.3-1.6c-1.7-1-2.6-2.3-2.6-3.7c-0.1-2.4,1.2-4.7,3.4-5.9c2.2-1.1,4.6-1.7,7-1.6
			c2.4,0,5.8,0.6,10.2,1.8c1.3,0.4,3.9,1.2,7.9,2.4C257.6,60.2,254.9,62.2,251.9,63.8"/>
		<path class="st3" d="M333,51.6c-0.1,0-0.2,0-0.2,0c-1.4,1.1-2.8,2.1-4.3,3c-2.2,1.4-3.9,2-5.2,2c0.7-0.4,1.3-1,1.7-1.7
			c0.5-0.6,0.9-1.4,1-2.2c0-1-0.5-1.4-1.6-1.4c-0.5,0-0.9,0.1-1.4,0.4c0,0-0.1-0.1-0.1-0.1c-0.1,0-0.1,0-0.2,0
			c-2.3,1.7-3.6,2.7-4,2.9c-1.8,1.3-3.2,1.9-4.1,1.9c-1.1,0-1.6-0.4-1.6-1.2c0.1-0.8,0.4-1.6,1-2.2c0.4-0.4,0.7-0.8,1-1.2
			c0-0.3-0.1-0.4-0.2-0.4c-1.2,0-3.8,1.4-7.8,4.1c0.5-0.5,1-1.1,1.4-1.7c0.4-0.5,0.8-1,1-1.6c0-0.6-0.4-0.8-1.1-0.8
			c-0.2,0-0.4,0.1-0.5,0.2c0,0-0.1-0.1-0.1-0.1c-0.1,0-0.2,0-0.2,0c0,0,0,0,0,0c-1,1.2-2.3,2.2-3.6,3c-1.7,1.1-3.1,1.7-4,1.7
			c-0.5,0-1.1-0.4-1.6-1.1c0.8-0.8,1.3-1.8,1.3-2.9c0-0.9-0.4-1.4-1.2-1.4c-0.5,0-0.9,0.2-1.2,0.6c-0.3,0.4-0.5,0.9-0.5,1.4
			c0,0.8,0.2,1.5,0.6,2.2c-1.2,1.1-2.1,1.7-2.5,1.7c-0.6,0.1-1.2-0.3-1.3-0.9c0-0.1,0-0.2,0-0.3c0-0.8,0.3-1.7,0.8-2.3
			c0.6-0.8,0.8-1.1,0.8-1.1c0-0.3-0.1-0.4-0.2-0.4c-0.1,0-0.2,0.1-0.3,0.1c-3.6,2.9-5.8,4.3-6.7,4.3c-0.3,0-0.5-0.1-0.5-0.3
			c0-0.9,1.1-2.2,3.3-3.8c0.2-0.1,0.4-0.2,0.6-0.2c0.3-0.1,0.5-0.2,0.5-0.2c0-0.5-0.2-0.8-0.7-0.8c-0.5,0-0.9,0.2-1.2,0.6
			c0,0-0.1,0.1-0.1,0.1c-0.1,0-0.1,0-0.2,0c-2.3,1.7-3.7,2.8-4.3,3.1c-2.1,1.4-3.6,2.1-4.6,2.1c-0.6,0.1-1.1-0.3-1.2-0.9
			c0-0.1,0-0.2,0-0.3c0.1-0.5,0.3-0.9,0.5-1.3c0.2-0.4,0.4-0.8,0.5-1.2c0-0.2-0.1-0.3-0.4-0.3s-0.6,0.2-1.1,0.7
			c-0.4,0.5-0.9,1-1.4,1.4c-1.1,0.8-2.3,1.2-3.6,1.3c-0.3,0-0.5-0.2-0.5-0.7c0-0.7,0.5-1.6,1.6-2.5c0.8-0.8,1.8-1.3,2.9-1.4
			c0.3,0,0.7,0.2,0.8,0.5c0.2,0.3,0.2,0.5,0.2,0.5c0.3,0,0.6-0.1,0.8-0.3c0.3-0.2,0.4-0.6,0.4-0.9c0-0.4-0.4-0.6-1.2-0.6
			c-1.3,0-2.9,0.7-4.6,2c-1.7,1.4-2.6,2.5-2.6,3.4c0,0.3,0.2,0.7,0.6,0.8c0.4,0.2,0.8,0.3,1.2,0.3c0.8-0.1,1.6-0.3,2.3-0.7
			c0.8-0.4,1.5-0.8,2.2-1.4c0,1.7,0.6,2.6,1.8,2.6c1.4,0,3.2-0.8,5.3-2.2c0.5-0.3,1.1-0.8,1.9-1.4c-0.6,0.6-0.9,1.4-1,2.2
			c0,0.3,0,0.5,0.1,0.8c0.1,0.1,0.3,0.2,0.7,0.2c0.9-0.1,1.7-0.5,2.5-1c1.1-0.6,2.1-1.3,3-2.1c-0.2,0.4-0.4,0.9-0.4,1.4
			c0,0.6,0.2,1.1,0.5,1.6c0.2,0.4,0.6,0.6,1.1,0.7c1.1,0,2.4-0.8,4.1-2.5c0.8,0.9,1.5,1.3,2.1,1.3c1.3,0,2.9-0.7,4.8-2
			c1-0.7,1.9-1.5,2.7-2.3c0,0.1,0,0.2,0.1,0.3c-0.5,0.8-1,1.6-1.6,2.4c-0.5,0.6-1,1.4-1.2,2.1c0,0,0.1,0.1,0.2,0.2
			c0.1,0.1,0.2,0.1,0.3,0.1c0.7-0.4,1.4-0.8,2-1.2c1.8-1.1,3.5-2.2,5.1-3.1c-0.2,0.7-0.3,1.4-0.4,2.1c0,1.3,0.6,1.9,1.8,1.9
			c0.8,0,1.6-0.2,2.3-0.5c0.1,0.1,0.3,0.1,0.5,0.1c0.7-0.3,1.4-0.6,2-1c-0.1,0.1-0.1,0.2-0.1,0.3c0.3,0.4,0.7,0.8,1.1,1.1
			c0.6,0.3,1.2,0.5,1.9,0.5c2.5,0,5-0.8,7.1-2.1c0.5-0.3,2-1.6,4.5-3.6c0.1-0.1,0.1-0.2,0.1-0.3C333.1,51.7,333,51.6,333,51.6
			 M297.7,54.6c-0.3-0.5-0.5-1.2-0.5-1.8c0-0.9,0.4-1.4,1.1-1.4c0.4,0,0.6,0.3,0.6,0.9c0,0.4-0.1,0.8-0.4,1.2
			C298.5,53.6,298.2,54,297.7,54.6 M320.9,56.5c-0.7-0.1-1.3-0.4-1.9-0.8c-0.1,0-0.2,0-0.3,0c1.5-1,2.9-2.1,4.2-3.3
			c0.2-0.1,0.4-0.1,0.6-0.1c0.4,0,0.8,0.3,0.8,0.7c0,0,0,0.1,0,0.1c0,0.8-0.4,1.5-0.9,2.1C322.9,56.1,322,56.5,320.9,56.5"/>
		<path class="st3" d="M263.8,36.3l2.8-2.5c0.1-0.1,0.1-0.2,0-0.3c-0.1-0.1-0.2-0.2-0.3-0.2c-0.3,0-0.6,0.1-0.8,0.2l-2.9,2.8h-12.3
			c-0.4,0-0.6,0.1-0.7,0.3c-0.1,0.4,0,0.6,0.3,0.6l11.5,0.3c-1.6,1.6-3.1,3.2-4.7,4.9c-0.4,0.4-0.7,0.8-1,1.2c0,0-0.1,0-0.1,0
			c-2.3,1.7-3.6,2.7-4,2.9c-1.8,1.3-3.2,1.9-4.1,1.9c-1.1,0-1.6-0.4-1.6-1.2c0.1-0.8,0.4-1.6,1-2.2c0.3-0.4,0.7-0.7,1-1.2
			c0-0.3-0.1-0.4-0.2-0.4c-1.2,0-3.8,1.4-7.8,4.1c0.5-0.5,1-1.1,1.4-1.7c0.4-0.5,0.8-1,1-1.6c0-0.6-0.4-0.8-1.1-0.8
			c-0.2,0-0.4,0.1-0.5,0.2c0,0-0.1-0.1-0.1-0.1c-0.1,0-0.1,0-0.2,0c-2.3,1.7-3.8,2.8-4.3,3.1c-2.1,1.4-3.6,2.1-4.6,2.1
			c-0.6,0.1-1.1-0.3-1.2-0.9c0-0.1,0-0.2,0-0.3c0.1-0.5,0.3-0.9,0.5-1.3c0.2-0.4,0.4-0.8,0.5-1.2c0-0.2-0.1-0.3-0.4-0.3
			s-0.6,0.2-1.1,0.7c-0.4,0.5-0.9,1-1.4,1.4c-1.1,0.8-2.3,1.2-3.6,1.3c-0.3,0-0.5-0.2-0.5-0.7c0-0.7,0.5-1.5,1.6-2.5
			c0.8-0.8,1.8-1.3,2.9-1.4c0.3,0,0.7,0.2,0.8,0.5c0.2,0.3,0.2,0.5,0.2,0.5c0.3,0,0.6-0.1,0.8-0.3c0.3-0.2,0.4-0.6,0.4-0.9
			c0-0.4-0.4-0.6-1.2-0.6c-0.9,0-1.8,0.3-2.6,0.7c0,0-0.1-0.1-0.1-0.1c-0.1,0-0.1,0-0.2,0c-1.4,1.1-2.8,2.1-4.3,3
			c-2.2,1.4-3.9,2-5.2,2c0.7-0.4,1.3-1,1.7-1.7c0.5-0.6,0.9-1.4,1-2.2c0-1-0.5-1.5-1.6-1.5c-0.5,0-0.9,0.1-1.3,0.4
			c0,0-0.1-0.1-0.1-0.1c-0.1,0-0.1,0-0.2,0c-2.3,1.7-3.8,2.8-4.3,3.1c-2.1,1.4-3.6,2.1-4.6,2.1c-0.6,0.1-1.1-0.3-1.2-0.9
			c0-0.1,0-0.2,0-0.3c0.1-0.5,0.3-0.9,0.5-1.3c0.2-0.4,0.4-0.8,0.5-1.2c0-0.2-0.1-0.3-0.4-0.3c-0.3,0-0.6,0.2-1.1,0.7
			c-0.4,0.5-0.9,1-1.4,1.4c-1.1,0.8-2.3,1.2-3.6,1.3c-0.3,0-0.5-0.2-0.5-0.7c0-0.7,0.5-1.6,1.6-2.5c0.8-0.8,1.8-1.3,2.9-1.4
			c0.3,0,0.7,0.2,0.8,0.5c0.2,0.3,0.2,0.5,0.2,0.5c0.3,0,0.6-0.1,0.8-0.3c0.3-0.2,0.4-0.6,0.4-0.9c0-0.4-0.4-0.6-1.2-0.6
			c-1.3,0-2.9,0.7-4.6,2c-1.7,1.4-2.6,2.5-2.6,3.5c0,0.3,0.2,0.6,0.6,0.8c0.4,0.2,0.8,0.3,1.2,0.3c0.8-0.1,1.6-0.3,2.3-0.7
			c0.8-0.4,1.5-0.8,2.2-1.4c0,1.7,0.6,2.6,1.8,2.6c1.1-0.1,2.2-0.3,3.1-0.9h0.2c0.7-0.3,1.4-0.6,2-1c0,0.1-0.1,0.2-0.1,0.3
			c0.4,0.4,0.7,0.7,1.1,1c0.6,0.3,1.2,0.5,1.9,0.5c2.5,0,5-0.8,7.2-2.1l0.2-0.2c-0.1,0.3-0.2,0.6-0.2,0.9c0,0.3,0.2,0.7,0.6,0.8
			c0.4,0.2,0.8,0.3,1.2,0.3c0.8-0.1,1.6-0.3,2.3-0.7c0.8-0.4,1.5-0.8,2.2-1.4c0,1.7,0.6,2.6,1.8,2.6c1.4,0,3.2-0.7,5.3-2.2
			c0.8-0.5,2.2-1.6,4.1-3.2c0,0.1,0,0.2,0.1,0.4c-0.5,0.8-1,1.6-1.6,2.4c-0.5,0.6-1,1.4-1.2,2.1c0,0,0.1,0.1,0.2,0.2
			c0.1,0.1,0.2,0.1,0.3,0.1c0.7-0.4,1.4-0.8,2-1.2c1.8-1.1,3.5-2.2,5.1-3.1c-0.2,0.7-0.3,1.4-0.3,2.1c0,1.3,0.6,1.9,1.8,1.9
			c1.4,0,3.1-0.7,5-2c0.6-0.4,1.7-1.3,3.2-2.5c-0.6,0.8-1,1.8-1.2,2.9c0,0.5,0.2,1,0.5,1.4c0.3,0.4,0.8,0.6,1.3,0.6
			c1.4,0,3.2-0.7,5.3-2.2c0.9-0.6,2.4-1.8,4.6-3.6c0.1-0.1,0.1-0.2,0.1-0.3c0-0.1-0.1-0.2-0.1-0.2c-0.1,0-0.1,0-0.2,0
			c-1.4,1-2.7,2-4.1,3.1c-2,1.4-3.6,2.1-4.8,2.1c-0.9,0-1.3-0.4-1.3-1c0-1.1,1.1-2.8,3.2-5.3c0.2-0.2,1.8-1.9,4.7-4.9h8.2
			c0.8-0.1,1.2-0.4,1.2-0.8L263.8,36.3z M215.2,48.5c-0.7-0.1-1.3-0.4-1.9-0.8c-0.1,0-0.2,0-0.3,0c1.5-1,2.8-2.1,4.2-3.3
			c0.2,0,0.4-0.1,0.6-0.1c0.4-0.1,0.8,0.2,0.8,0.6c0,0.1,0,0.1,0,0.2c-0.1,0.8-0.4,1.5-1,2.1C217,48,216.1,48.5,215.2,48.5"/>
		<path class="st3" d="M203.7,39.1c2.6-3.2,4.7-6.7,6.2-10.4c1.1-2.7,1.7-4.6,1.7-5.4c0-1.4-0.4-2-1.2-2c-0.4,0-0.9,0.2-1.2,0.5
			c-0.7,0.5-1.1,1.4-1.1,2.3c0,0.9,0.1,1.8,0.3,2.7c0,0.1,0.2,0.1,0.5,0c0.3-0.1,0.4-0.2,0.4-0.3c0-0.4,0-0.8,0-1.2c0-0.6,0-1,0-1.2
			c0-0.9,0.3-1.4,0.9-1.4v0.7c0,1.1-0.7,3.2-2,6.3c-1.3,3.1-3,6-5.1,8.7c-1.9,2.5-4.1,4.8-6.4,6.9c-2.5,2.3-4.4,3.5-5.6,3.5
			c-0.5,0-1-0.3-1.3-0.8c-0.4-0.5-0.6-1.1-0.6-1.7c0.5-2.1,1.1-4.2,1.8-6.3c1.2-3.8,1.8-6.6,1.8-8.2c0.1-2.2-0.7-4.4-2.1-6.1
			c-1.4-1.6-3.4-2.5-5.5-2.4c-2.9,0-5.7,0.8-8.1,2.3c-2.4,1.4-3.5,2.6-3.5,3.7c0,0.2,0.1,0.3,0.2,0.4c0.1,0.1,0.2,0.1,0.3,0
			c2.2-3,5.7-4.8,9.4-4.8c2.1-0.1,4.1,0.7,5.6,2.1c1.5,1.3,2.3,3.2,2.2,5.2c0,1.2-0.7,3.7-2,7.6c-1.3,3.8-2,6.1-2,7
			c0,0.8,0.3,1.6,0.8,2.2c0.5,0.6,1.2,0.9,1.9,0.9c1.6,0,3.8-1.1,6.5-3.3C199.1,44.2,201.5,41.8,203.7,39.1"/>
		<path class="st3" d="M277.8,46.2L277.8,46.2L277.8,46.2L277.8,46.2v-0.1l0,0V46l0,0l0,0l0,0l0,0l0,0l0,0l0,0l0,0l0,0l0,0l0,0l0,0
			h0.2c6.1,0,10.3-1.6,12.5-4.8c1.8-2.6,2-5.8,1.8-8.1c-0.1-1.1-0.3-2.3-0.6-3.4c-2.5,0.4-5-1-5.9-3.4c0,0-0.8-2.4,1.5-0.9
			c0,0-0.2-0.9,0.3-1.2c0.4-0.2,0.9-0.2,1.3,0c0,0,0.2-1.1,0.9-1.3c0.6-0.3,1.3-0.1,1.7,0.4c0,0,0-1.7,0.9-1.6c0,0,0.3-0.8,0.8-0.5
			c0.5,0.3,3.1,5,0,7.6c-0.2,0.1-0.3,0.3-0.5,0.5c0.3,1.1,0.5,2.3,0.6,3.4c0.3,3.4-0.4,6.4-1.9,8.6c-1.4,1.9-3.4,3.4-5.7,4.1
			c2.5-0.7,4.7-2,6.5-3.8c1.4-1.4,2.5-3,3.3-4.8c-0.2-0.1-3.1-1.3-1-7.1c0.2-0.4,1.4-0.5,1.1,0.8c0.2-0.3,0.7-0.4,1-0.3
			c0.4,0.1,0.6,0.5,0.5,0.9c0,0.1,0.6-0.8,1.5-0.6c0.9,0.2,1,0.5,1,0.8c0.2-0.4,0.7-0.6,1.2-0.5c0.4,0.1,0.6,0.5,0.5,0.9
			c0,0,0,0,0,0c0,0,0.4-0.6,0.9,0c0.2,0.3-1.8,6.6-6,5.4c-0.8,1.8-2,3.5-3.4,4.9c-1.6,1.6-3.6,2.8-5.7,3.6l-0.7,0.2
			c3.4-0.2,6.9-0.8,10.1-2c1.8-0.6,3.4-1.5,4.9-2.6c-0.5-0.6-2.4-3.5,1.5-7.2c0,0,0.4-0.3,0.6,0c0.3,0.3,0.3,0.7,0.1,1.6
			c0,0,0.7-0.6,1.2-0.4c0.4,0.2,0.5,0.8,0.3,1.3c0,0,1-0.5,1.6-0.1c0.5,0.2,0.7,0.8,0.5,1.2c0,0,0.9-0.6,1.3-0.4
			c0.5,0.3,0.3,0.9,0.1,1.2c0,0,0.9-0.3,0.9,0.1c0.3,2.8-4.7,5.4-7.8,3.1c-1.5,1.1-3.2,2-5,2.7c-2.4,0.9-5,1.5-7.6,1.8
			c-2.1,0.3-4.2,0.4-6.3,0.4c-1.6,0-3.3-0.1-4.9-0.2C278,46.7,277.8,46.5,277.8,46.2C277.8,46.3,277.8,46.2,277.8,46.2"/>
		<path d="M225.1,77.6h8.6v1.3h-3.6v9h-1.5v-9h-3.5V77.6z"/>
		<path d="M243.8,77.6h1.5v10.3h-1.5v-4.5H238v4.5h-1.5V77.6h1.5V82h5.8V77.6z"/>
		<path d="M252.3,77.5h1l4.6,10.3h-1.5l-1.4-3h-4.4l-1.3,3h-1.5L252.3,77.5z M254.5,83.5l-1.7-3.7l-1.6,3.7H254.5z"/>
		<path d="M268.7,77.6h1.4v10.3h-1.3L262,80v7.9h-1.4V77.6h1.2l6.9,8L268.7,77.6z"/>
		<path d="M273.8,77.6h5.8v1.3h-4.4V82h4.2v1.3h-4.2v3.2h4.5v1.3h-6V77.6z"/>
	</g>
</g>
</svg>
